<svg
   width="56.492599mm"
   height="11.076711mm"
   viewBox="0 0 56.492599 11.076711"
   version="1.1"
   id="svg5"
   xml:space="preserve"
   xmlns="http://www.w3.org/2000/svg"
   xmlns:svg="http://www.w3.org/2000/svg"><defs
     id="defs2" /><g
     id="layer1"
     transform="translate(-6.8589315,-97.872794)"><path
       d="m 21.043657,98.295402 -0.01818,0.304239 0.488332,-0.02224 c 0.785681,-0.0253 0.774889,-0.04253 0.786058,1.069339 0.0077,0.76442 -0.02193,0.99058 -0.117832,0.9568 -0.244952,-0.067 -0.614905,0.11043 -0.613071,0.29284 9.84e-4,0.0956 -0.04072,0.17416 -0.104446,0.1748 -0.223015,0.002 -0.09402,0.15732 0.172008,0.20677 0.202209,0.0414 0.31868,0.005 0.47649,-0.14379 l 0.22101,-0.20203 -0.06152,0.21781 c -0.03067,0.12193 -0.06004,0.36547 -0.0583,0.5392 0.0032,0.3214 -0.0073,0.3302 -0.368374,0.33382 -0.201773,0.002 -0.372122,-0.0397 -0.372559,-0.0831 -5.24e-4,-0.0521 -0.05399,-0.0863 -0.117692,-0.0857 -0.148682,0.002 -0.411997,0.22133 -0.410775,0.34294 5.24e-4,0.0521 -0.04152,0.096 -0.08399,0.0964 -0.116821,0.001 -0.335897,0.39431 -0.334065,0.57673 7.87e-4,0.0782 0.09793,0.23357 0.215964,0.35401 0.257575,0.26672 0.293109,0.63123 0.05948,0.63358 -0.08496,8.5e-4 -0.15895,0.0363 -0.158427,0.0885 4.36e-4,0.0434 0.054,0.0863 0.107069,0.0858 0.11682,-0.001 0.15383,0.51101 0.04981,0.72924 -0.04161,0.0873 -0.210926,0.14981 -0.455178,0.15226 -0.244165,0.0111 -0.297097,0.029 -0.137535,0.0535 0.127615,0.0161 0.23459,0.0932 0.235287,0.1627 6.98e-4,0.0695 0.06493,0.12097 0.149904,0.12011 0.09558,-9.6e-4 0.128137,0.0682 0.08713,0.21631 -0.04038,0.2089 -0.08278,0.21802 -0.709346,0.22432 -0.615944,0.006 -0.679836,-0.0106 -0.713522,-0.19264 -0.02272,-0.14747 -0.118834,-0.19862 -0.395117,-0.21322 -0.191336,-0.0155 -0.403459,0.0127 -0.466658,0.0655 -0.06319,0.0528 -0.306921,0.10733 -0.54047,0.11837 -0.392847,0.0126 -0.403377,0.0215 -0.08451,0.0443 0.180704,0.0156 0.340528,0.0661 0.341051,0.11819 4.37e-4,0.0435 -2.03821,0.0987 -5.202891,0.13046 -4.4921465,0.0451 -5.2565925,0.0702 -5.5315655,0.18588 -0.359509,0.15998 -0.315284,0.33328 0.07686,0.25116 0.360288,-0.0818 0.574513,0.0985 0.578352,0.48069 0.0029,0.28665 -0.01801,0.32161 -0.241373,0.2891 -0.138312,-0.0247 -0.414172,0.004 -0.615502,0.0496 -0.190637,0.054 -0.275161,0.0983 -0.168958,0.0973 0.201861,0.007 0.257575,0.26672 0.05583,0.26875 -0.201779,0.002 0.879367,0.84253 1.156004,0.89187 0.15965,0.0331 0.266893,0.13632 0.311111,0.30963 l 0.07695,0.25985 26.1351935,-0.26256 26.145719,-0.27133 0.47082,-0.70841 c 0.512511,-0.78701 1.468263,-1.85647 1.73297,-1.93732 0.08461,-0.0356 0.157897,-0.14058 0.156939,-0.23613 -0.0016,-0.17374 -0.03363,-0.17342 -8.040975,-0.10166 -4.428524,0.0358 -7.901523,0.0359 -7.731873,0.008 l 0.317897,-0.0727 -0.479022,-0.10813 c -0.266101,-0.0581 -0.521502,-0.10769 -0.585131,-0.0984 -1.719703,0.0868 -1.836604,0.0792 -2.072689,-0.16162 -0.311197,-0.3183 -0.448993,-0.29085 -0.360368,0.0731 0.07782,0.34672 0.04605,0.35572 -0.592963,0.17971 -0.24495,-0.067 -0.489552,-0.0993 -0.542475,-0.0814 -0.05286,0.0266 -0.456041,0.0654 -0.901981,0.0786 -0.775064,0.0251 -0.817637,0.0169 -1.02168,-0.20692 -0.290048,-0.32721 -0.417224,-0.29987 -0.370905,0.0819 0.03398,0.20815 0.109599,0.3377 0.248092,0.37975 0.106545,0.0337 -0.838263,0.0779 -2.102013,0.0906 -1.900844,0.0278 -2.315189,0.0146 -2.316237,-0.0897 -0.0015,-0.14767 0.231803,-0.18476 1.484579,-0.2321 1.422702,-0.049 1.337138,-0.10899 -0.149628,-0.0941 -0.977019,0.01 -1.29596,-0.0217 -1.509494,-0.13252 -0.320332,-0.17053 -1.733369,-0.21715 -2.241808,-0.0817 -0.264791,0.0722 -0.349058,0.1425 -0.347401,0.30755 0.0015,0.15636 0.05522,0.20794 0.246348,0.20602 0.127438,-0.001 0.308411,0.0404 0.393807,0.0829 0.117431,0.0596 -0.05224,0.0874 -0.551349,0.0924 l -0.722147,0.007 -0.0046,-0.46906 c -0.0043,-0.42565 0.01661,-0.46061 0.239633,-0.46285 0.127434,-10e-4 0.690193,-0.0156 1.242246,-0.0386 l 1.00861,-0.0362 -1.328425,-0.0822 c -0.733322,-0.0448 -1.403156,-0.11621 -1.48864,-0.16748 -0.224149,-0.11069 -1.987374,-0.12772 -2.230579,-0.0211 -0.116296,0.0533 -0.210565,0.18455 -0.209432,0.29748 0.0015,0.15635 0.07652,0.21641 0.321125,0.2487 0.287263,0.0493 0.319466,0.0837 0.322695,0.40507 0.0033,0.33009 -0.01774,0.34768 -0.304484,0.35056 -0.297351,0.003 -0.318856,-0.0229 -0.440464,-0.49945 -0.07706,-0.26853 -0.176202,-0.62373 -0.220163,-0.77096 -0.06581,-0.20784 -0.05618,-0.3035 0.04963,-0.34799 0.137352,-0.0709 0.267992,-0.81063 0.129935,-0.80924 -0.03183,3.2e-4 -0.09627,-0.0685 -0.118385,-0.15519 -0.04387,-0.13855 -0.05452,-0.13845 -0.06371,6.4e-4 -0.0095,0.12172 -0.104632,0.15743 -0.370121,0.16009 -0.254878,0.003 -0.382753,-0.0396 -0.415742,-0.15219 -0.04387,-0.13856 -0.05452,-0.13845 -0.06371,6.4e-4 -0.0095,0.12172 -0.104625,0.15742 -0.401895,0.1691 -0.222929,0.0109 -0.583909,0.0233 -0.806838,0.0342 -0.222929,0.0109 -0.435669,-0.0217 -0.478585,-0.0647 -0.129184,-0.17245 -0.133635,-0.61547 -0.01877,-0.80774 0.09408,-0.14863 0.0933,-0.22681 -0.0032,-0.3214 -0.107249,-0.10317 -0.08627,-0.12945 0.104625,-0.15743 0.127264,-0.0187 0.254173,-0.0721 0.274885,-0.12438 0.05173,-0.13952 -0.310325,-0.23144 -0.394062,-0.10898 -0.136399,0.16643 -0.234413,-0.0758 -0.108814,-0.25953 0.135876,-0.21855 0.135701,-0.23592 -0.06764,-0.39025 -0.342623,-0.27455 -1.104893,-0.0324 -0.93166,0.29604 0.03268,0.0779 0.09777,0.21621 0.13058,0.31144 0.05469,0.15581 0.04404,0.15592 -0.116296,0.0533 -0.106894,-0.0684 -0.181321,-0.0764 -0.180798,-0.0243 5.24e-4,0.0521 -0.08382,0.11378 -0.179221,0.13211 -0.16957,0.0364 -0.169395,0.0538 0.02219,0.0953 0.149104,0.042 0.213706,0.12817 0.204994,0.31937 0.0014,0.13899 -0.02909,0.2783 -0.06065,0.30467 -0.09487,0.0704 0.03573,0.38189 0.152522,0.38071 0.05313,-5.3e-4 0.08583,0.086 0.06563,0.19047 -0.01967,0.15657 -0.09356,0.20075 -0.34844,0.20331 -0.308064,-0.006 -0.318857,-0.0229 -0.376056,-0.43059 -0.0457,-0.32098 -0.07818,-0.38146 -0.129801,-0.23326 -0.04117,0.13073 -0.115062,0.1749 -0.232225,0.14133 -0.09585,-0.0251 -0.170093,-0.0156 -0.16957,0.0364 5.23e-4,0.0521 0.04353,0.10381 0.107417,0.12055 0.170355,0.0417 -0.0066,0.40837 -0.218652,0.43657 -0.201519,0.0281 -0.201432,0.0368 0.01423,0.35604 0.280309,0.41418 0.209365,0.7537 -0.16232,0.75743 -0.201773,0.002 -0.255308,-0.0409 -0.257052,-0.2146 -0.002,-0.19979 -0.04465,-0.21674 -0.458833,-0.21258 -0.594707,0.006 -0.922,0.20039 -0.92904,0.55664 -0.0091,0.15646 -0.06423,-0.0515 -0.121359,-0.45052 -0.114136,-0.78941 -0.07252,-0.8767 0.415975,-0.88161 0.201775,-0.002 0.233287,-0.0371 0.17888,-0.16685 -0.04369,-0.12119 -0.002,-0.19979 0.156588,-0.27089 0.243206,-0.10669 0.283249,-0.35034 0.04963,-0.34799 -0.08497,8.5e-4 -0.158689,0.0624 -0.157992,0.13189 6.98e-4,0.0695 -0.07303,0.13105 -0.157984,0.1319 -0.08496,8.5e-4 -0.158508,0.0798 -0.157548,0.17533 0.0026,0.25191 -0.358892,0.2208 -0.510194,-0.0383 -0.194463,-0.32816 -0.173489,-0.35444 0.344784,-0.56814 0.70873,-0.28512 0.589903,-0.48373 -0.19447,-0.32817 -0.530026,0.10089 -0.604884,0.0495 -0.598628,-0.38492 l -0.0036,-0.36483 0.172705,0.27626 c 0.183504,0.29353 0.30076,0.33579 0.554324,0.20293 0.126733,-0.0708 0.104274,-0.19217 -0.103702,-0.80689 -0.141976,-0.3895 -0.272819,-0.727 -0.283611,-0.74426 -8.7e-5,-0.009 -0.137877,0.0187 -0.29674,0.0638 l -0.275154,0.0983 -0.01161,-1.155311 -0.01149,-1.146618 -0.658423,0.0066 -0.66905,0.0066 z m 23.278053,7.124368 c -0.169743,0.0191 -0.424621,0.0217 -0.584089,0.006 -0.170094,-0.0157 -0.03223,-0.0344 0.286383,-0.0376 0.318594,-0.003 0.456826,0.0128 0.297706,0.0318 z"
       id="aircraft-carrier-2" /></g></svg>
