<svg
   width="46.188957mm"
   height="9.3517494mm"
   viewBox="0 0 46.188957 9.3517494"
   version="1.1"
   id="svg5"
   xml:space="preserve"
   xmlns="http://www.w3.org/2000/svg"
   xmlns:svg="http://www.w3.org/2000/svg"><defs
     id="defs2" /><g
     id="layer1"
     transform="translate(-7.4020506,-120.37899)"><path
       d="m 26.703477,120.97286 c 0.0069,0.68961 -0.06118,0.82653 -0.408212,0.86407 l -0.307414,0.0286 0.330255,0.26915 c 0.330269,0.26914 0.330354,0.27766 0.266855,0.87431 -0.02626,0.34936 -0.01387,0.59615 0.03576,0.59565 0.04962,-5e-4 0.0918,0.246 0.104801,0.55239 0.0046,0.45122 -0.02421,0.55368 -0.153232,0.55498 -0.13895,10e-4 -0.138779,0.0184 0.02156,0.17007 0.160343,0.15165 0.160514,0.16868 0.02155,0.17008 -0.09926,9.9e-4 -0.1683,0.0442 -0.167787,0.0954 5.99e-4,0.0596 -0.227585,0.0704 -0.694489,0.0325 l -0.695342,-0.0526 0.0622,0.26332 c 0.04115,0.14433 0.03345,0.36579 0.0049,0.48528 -0.04782,0.17928 -0.116966,0.21403 -0.454408,0.21742 -0.287824,0.003 -0.397339,-0.0301 -0.39828,-0.12372 -6.83e-4,-0.0681 -0.06082,-0.1271 -0.140232,-0.1263 -0.248123,0.002 -0.462019,-0.54028 -0.468433,-1.17881 -0.0033,-0.33203 -0.03584,-0.60416 -0.07555,-0.60376 -0.04962,5e-4 -0.08651,0.28184 -0.08309,0.62239 -0.01215,0.76642 -0.128937,0.99748 -0.525933,1.00147 -0.248124,0.002 -0.297406,0.0371 -0.29561,0.21584 0.0013,0.1277 -0.0574,0.21343 -0.136812,0.21423 -0.06948,6.9e-4 -0.197637,0.0871 -0.285935,0.19019 -0.195854,0.26592 -0.316148,0.14792 -0.190366,-0.17689 l 0.106516,-0.26502 -0.41685,0.004 -0.416839,0.004 0.03448,0.46795 c 0.04397,0.42528 0.02455,0.46805 -0.164023,0.46994 -0.119097,0.001 -0.208086,0.0362 -0.207659,0.0787 4.27e-4,0.0425 -0.08872,0.0605 -0.198156,0.0361 -0.109423,-0.0244 -0.19969,-0.1172 -0.200545,-0.20233 -0.0012,-0.1192 0.06785,-0.16246 0.296123,-0.16475 0.168728,-0.002 0.297491,-0.0285 0.306986,-0.0712 -3.41e-4,-0.0341 0.01857,-0.12791 0.03756,-0.21324 0.01909,-0.0768 -0.0616,-0.20373 -0.181381,-0.27064 -0.29955,-0.1758 -1.937156,-0.15934 -2.213259,0.0222 -0.138011,0.095 -0.495043,0.12417 -1.39813,0.14176 -0.744369,0.008 -1.220419,0.0463 -1.219907,0.0974 4.29e-4,0.0425 0.189432,0.0832 0.427716,0.0894 0.228354,0.006 0.784234,0.009 1.230856,0.005 0.456637,0.004 0.824191,0.0343 0.824534,0.0683 4.27e-4,0.0425 -0.03901,0.0685 -0.09856,0.0691 -0.04962,4.9e-4 -0.09771,0.15424 -0.09584,0.34154 l 0.0034,0.34054 -0.615514,-0.0109 c -0.347366,0.004 -0.476648,-0.0208 -0.298169,-0.0396 0.257791,-0.0281 0.316826,-0.0798 0.315286,-0.23305 -0.0032,-0.32352 -0.222372,-0.39795 -1.21495,-0.3965 -0.684905,-0.002 -1.002152,0.0356 -1.239324,0.14018 -0.237088,0.11306 -0.584119,0.15061 -1.417806,0.15899 -0.664967,0.007 -1.091399,0.045 -1.090887,0.0961 5.14e-4,0.0511 0.447477,0.0807 1.142222,0.0737 0.625266,-0.006 1.141701,0.0226 1.142044,0.0566 4.26e-4,0.0425 -1.388542,0.1076 -3.085445,0.15019 -2.4212405,0.0669 -3.2253365,0.0579 -3.7423705,-0.0305 -0.367904,-0.0644 -0.725706,-0.11191 -0.78526,-0.11131 -0.36722,0.004 0.09899,0.96114 0.598143,1.24562 0.179672,0.10037 0.578037,0.2326 0.876469,0.29771 0.557077,0.12212 0.647086,0.18934 0.75027,0.57996 0.05184,0.22086 0.09171,0.23749 0.5978845,0.23241 0.406919,-0.004 0.566067,0.0284 0.636649,0.13834 0.09059,0.12681 0.120466,0.13502 0.198841,0.0321 0.06853,-0.0943 0.197465,-0.10415 0.624839,-0.0488 0.685847,0.0953 38.677757,-0.34601 38.895076,-0.45035 0.09882,-0.0436 0.42284,-0.39592 0.726663,-0.78212 0.313659,-0.39482 0.834039,-0.962 1.168489,-1.26337 l 0.600026,-0.54244 -1.785963,0.069 c -5.427383,0.20778 -7.322948,0.23533 -7.274527,0.11562 0.03875,-0.0941 0.316318,-0.13089 1.199465,-0.1568 1.52809,-0.0494 1.536474,-0.20275 0.01796,-0.18749 -0.91309,0.009 -1.201263,-0.022 -1.400866,-0.13068 -0.199611,-0.10868 -0.44799,-0.13173 -1.093025,-0.11673 -0.525847,0.0223 -0.833776,-2.4e-4 -0.834374,-0.0597 -5.14e-4,-0.0511 0.277038,-0.0879 0.674037,-0.0919 0.46647,-0.005 0.625009,-0.0318 0.515239,-0.0903 -0.07983,-0.0417 -0.636048,-0.0788 -1.241473,-0.0727 -0.754377,-9e-4 -1.171563,-0.0308 -1.34114,-0.11424 -0.299201,-0.14175 -1.897361,-0.15124 -2.193833,-0.0205 -0.118498,0.0608 -0.186773,0.18067 -0.185147,0.34243 0.0024,0.23838 0.03234,0.25511 0.349937,0.25192 0.317596,-0.003 0.347537,0.0136 0.349931,0.25192 0.0028,0.28095 -0.16547,0.32521 -0.633477,0.17665 -0.228961,-0.0658 -0.25933,-0.12511 -0.262667,-0.45714 l -0.0037,-0.3746 -0.645724,-0.0531 c -0.576235,-0.0538 -0.64597,-0.0787 -0.647595,-0.24042 -0.0015,-0.14474 -0.09138,-0.20343 -0.419751,-0.28527 -0.377998,-0.0814 -0.99386,-0.12625 -1.48985,-0.0957 -0.10908,0.01 -0.177881,0.0784 -0.176941,0.17207 9.15e-4,0.0936 -0.03773,0.19621 -0.09702,0.22234 -0.05929,0.0261 -0.0996,-0.0331 -0.100703,-0.14373 -0.0028,-0.28095 -0.182757,-0.40685 -0.589677,-0.40277 -0.31768,-0.005 -0.33762,-0.0137 -0.179842,-0.1174 0.08872,-0.0605 0.166582,-0.21453 0.165385,-0.33372 -0.0017,-0.17027 0.06708,-0.23908 0.354131,-0.31859 0.28697,-0.088 0.336252,-0.12258 0.20662,-0.18088 -0.08983,-0.0502 -0.130468,-0.14344 -0.101723,-0.2459 0.03833,-0.13661 -0.0017,-0.17027 -0.220055,-0.16808 -0.188569,0.002 -0.25839,-0.0315 -0.219551,-0.117 0.03893,-0.077 -0.05099,-0.13572 -0.259842,-0.17619 -0.178988,-0.0323 -0.347972,-0.0561 -0.377742,-0.0558 -0.08924,0.01 -0.198753,-1.01122 -0.208332,-1.96475 -0.008,-0.80028 -0.01822,-0.82572 -0.226556,-0.81511 -0.129019,0.001 -0.307329,0.0372 -0.406321,0.0637 -0.158199,0.0612 -0.13801,0.0951 0.132183,0.31371 0.260185,0.21025 0.300827,0.3035 0.30459,0.6781 0.0084,0.83433 -0.111486,1.74659 -0.220836,1.73065 -0.05955,6e-4 -0.237857,0.0365 -0.386212,0.089 -0.158199,0.0612 -0.316568,0.10535 -0.366199,0.10585 -0.0397,4e-4 -0.05878,0.0772 -0.02806,0.17058 0.03071,0.0934 0.14066,0.16888 0.239909,0.16788 0.208422,-0.002 0.338817,0.13282 0.190706,0.21094 -0.04936,0.026 -0.09761,0.16276 -0.09633,0.29046 0.0013,0.12771 -0.05672,0.28155 -0.115768,0.33323 -0.118071,0.10336 -0.03764,0.20472 0.241108,0.28706 0.03986,0.0166 0.04166,0.19542 0.0041,0.40866 -0.05622,0.33263 -0.105325,0.38421 -0.333336,0.41205 -0.158634,0.0186 -0.387594,-0.0472 -0.57728,-0.15598 -0.259757,-0.16768 -0.30022,-0.24391 -0.303984,-0.6185 -0.0057,-0.57041 -0.09754,-0.81641 -0.286112,-0.81452 -0.456545,0.005 -1.70409,0.31513 -1.703063,0.4173 6.84e-4,0.0681 -0.06741,0.20502 -0.155627,0.31659 -0.09789,0.13722 -0.116878,0.22255 -0.04697,0.26442 0.06973,0.0248 0.113022,0.38202 0.117811,0.85878 l 0.008,0.80028 -0.436704,0.004 c -0.238193,0.002 -0.575379,0.0313 -0.74385,0.0585 l -0.307157,0.0542 -0.0048,-0.47677 c -0.0035,-0.34906 0.03491,-0.47716 0.13416,-0.47815 0.129021,-10e-4 0.256336,-0.17287 0.25454,-0.35166 -4.27e-4,-0.0425 -0.149643,-0.0751 -0.318371,-0.0734 -0.178645,0.002 -0.436947,-0.0212 -0.566317,-0.0539 l -0.238712,-0.0487 0.03825,-1.1328 c 0.02343,-0.6303 -0.0015,-1.14092 -0.04123,-1.14052 -0.03969,4e-4 -0.07529,-0.57823 -0.09232,-1.28476 -0.0071,-0.70663 -0.04294,-1.3108 -0.07297,-1.33604 -0.03003,-0.0252 -0.048,0.16226 -0.04543,0.41766 z m 7.225403,2.89897 c 0.0302,0.0423 0.01078,0.085 -0.03884,0.0855 -0.05955,6e-4 -0.109595,-0.0414 -0.110022,-0.084 -5.13e-4,-0.0511 0.01899,-0.0853 0.03884,-0.0855 0.02977,-3e-4 0.07975,0.0333 0.110034,0.084 z m 7.943331,2.23614 c -0.415139,0.17445 -0.361403,0.58262 0.08521,0.57813 0.158797,-10e-4 0.288167,0.0312 0.288679,0.0822 5.13e-4,0.0511 -0.267114,0.0878 -0.594632,0.0911 l -0.595502,0.006 -0.0044,-0.42568 -0.0044,-0.42568 0.526108,0.003 c 0.426774,-0.004 0.476565,0.0123 0.29869,0.0907 z m -30.394073,2.86819 c 0.0414,0.16987 -0.236233,0.19821 -0.307329,0.0372 -0.03037,-0.0593 -0.05997,-0.0419 -0.05911,0.0431 -0.0091,0.0852 -0.07786,0.15405 -0.157258,0.15484 -0.158798,0.001 -0.179072,-0.0407 -0.09241,-0.30559 0.04807,-0.15374 0.09745,-0.17978 0.316312,-0.1309 0.149223,0.0326 0.279183,0.12491 0.299801,0.20134 z"
       id="battleship-2" /></g></svg>
