<svg
   width="27.54541mm"
   height="21.528927mm"
   viewBox="0 0 27.54541 21.528927"
   version="1.1"
   id="svg5"
   xml:space="preserve"
   xmlns="http://www.w3.org/2000/svg"
   xmlns:svg="http://www.w3.org/2000/svg"><defs
     id="defs2" /><g
     id="layer1"
     transform="translate(-68.063809,-31.922167)"><path
       d="m 81.621385,32.107733 c -0.41546,0.232187 -0.717613,1.558941 -0.835643,3.69122 -0.02365,0.435935 -0.0519,0.805534 -0.06135,0.810273 -0.02365,0.02365 -0.915894,0.165841 -1.033924,0.165841 -0.103863,0 -0.103863,-0.0095 -0.07556,-0.535439 0.01421,-0.289044 0.0094,-0.677592 -0.0094,-0.857652 -0.02833,-0.289043 -0.0519,-0.34117 -0.184124,-0.454884 -0.085,-0.07105 -0.151076,-0.16111 -0.151076,-0.203758 0,-0.07105 0.06611,-0.08058 0.519323,-0.08058 0.514601,0 0.849801,-0.07105 0.849801,-0.184799 0,-0.09003 -0.151076,-0.194278 -0.29743,-0.203757 -0.212449,-0.0095 -0.203004,-0.0095 -0.656234,0.02365 l -0.41546,0.03319 v -0.142074 c 0,-0.165841 -0.179401,-0.379069 -0.321042,-0.379069 -0.165235,0 -0.339922,0.180059 -0.339922,0.35064 0,0.08526 -0.01421,0.165841 -0.02833,0.18006 -0.01421,0.01421 -0.151076,-0.02365 -0.311597,-0.08526 -0.297431,-0.123194 -0.462665,-0.113724 -0.462665,0.02365 0,0.137412 0.127465,0.213228 0.467387,0.265354 0.269106,0.0474 0.311598,0.06637 0.325764,0.161102 0.0094,0.07105 -0.02833,0.16111 -0.118029,0.251136 -0.132197,0.137412 -0.132197,0.142152 -0.11803,0.69181 0.0094,0.303262 0.02833,0.729718 0.04722,0.942946 0.01889,0.217967 0.03778,0.393287 0.0331,0.398027 -0.0094,0.01421 -2.039533,0.312732 -2.058422,0.298522 -0.01421,-0.0095 -0.04246,-0.326951 -0.05667,-0.706028 -0.0331,-0.7155 -0.06611,-0.848173 -0.221893,-0.900299 -0.05667,-0.01898 -0.09443,-0.07105 -0.09443,-0.132673 0,-0.104244 0.0094,-0.104244 0.552379,-0.09003 0.439063,0.01421 0.575973,0 0.651511,-0.05684 0.07556,-0.05684 0.085,-0.09003 0.04246,-0.151631 -0.08024,-0.132673 -0.287987,-0.170581 -0.783708,-0.137412 l -0.462674,0.02842 V 34.92711 c 0,-0.255875 -0.179401,-0.450145 -0.363524,-0.402767 -0.174679,0.04263 -0.245504,0.156371 -0.250217,0.388549 0,0.227446 0.0043,0.227446 -0.382414,0.146891 -0.429627,-0.09003 -0.65152,0.06161 -0.420183,0.293783 0.07556,0.07582 0.155799,0.09477 0.448508,0.09477 0.321042,0 0.354089,0.0094 0.354089,0.09477 0,0.05216 -0.01889,0.09477 -0.04722,0.09477 -0.02365,0 -0.08971,0.04263 -0.141632,0.09477 -0.08023,0.08058 -0.09443,0.156362 -0.08971,0.483313 0,0.217967 0.01889,0.573347 0.03778,0.796054 0.01889,0.222707 0.02366,0.416986 0.0094,0.431196 -0.01412,0.01897 -1.123639,0.17532 -2.459716,0.35064 -3.59279,0.469103 -3.668328,0.478582 -3.965759,0.630213 -0.174679,0.08526 -0.306875,0.19427 -0.401293,0.331691 -0.127474,0.184799 -0.141632,0.241657 -0.141632,0.568608 0,0.454884 0.0331,0.582826 0.221892,0.791315 0.297431,0.341161 0.68928,0.469103 2.044247,0.658642 1.170843,0.165841 6.656811,0.8766 9.111796,1.184602 l 1.227501,0.151622 0.0331,0.634953 c 0.08024,1.506818 0.27382,4.828448 0.297431,5.055886 0.02833,0.289043 -0.0331,0.369598 -0.434349,0.559137 -0.259662,0.123194 -0.528768,0.199009 -2.964872,0.829222 -0.939506,0.241657 -1.586304,0.431196 -1.713778,0.507011 -0.259662,0.151623 -0.387127,0.35538 -0.387127,0.634945 0,0.454884 0.406016,0.630204 1.746816,0.748667 0.297431,0.02842 1.293595,0.104244 2.21422,0.170581 0.920618,0.06637 1.680722,0.123202 1.685445,0.132681 0.0043,0.0052 0.0331,0.341161 0.06611,0.743928 0.02833,0.402767 0.07556,0.805534 0.09914,0.88608 0.127474,0.402767 0.665687,0.402767 0.793152,0 0.03778,-0.123194 0.146354,-1.269888 0.146354,-1.558932 0,-0.09003 0.01412,-0.09477 1.982884,-0.227446 2.856287,-0.194279 3.432269,-0.303254 3.625836,-0.668113 0.07079,-0.137421 0.04722,-0.431195 -0.05667,-0.587566 C 87.763643,49.701482 87.579519,49.625675 86.370907,49.308195 85.72411,49.137614 84.751557,48.881739 84.2039,48.739587 83.221903,48.478972 82.834776,48.33682 82.636486,48.166239 l -0.108586,-0.09002 0.09442,-1.492604 c 0.05667,-0.819744 0.132196,-2.165456 0.179401,-2.985203 l 0.08024,-1.492596 1.605192,-0.199017 c 7.482992,-0.947686 9.621675,-1.24146 10.084349,-1.383612 0.618464,-0.194279 0.897023,-0.535448 0.901737,-1.104056 0.0094,-0.402767 -0.07079,-0.611255 -0.31632,-0.838693 -0.278542,-0.255875 -0.448516,-0.298523 -2.148118,-0.52123 -0.793143,-0.0995 -2.138674,-0.279564 -2.988475,-0.388548 l -1.548543,-0.203757 0.02833,-0.383809 c 0.01421,-0.208488 0.0331,-0.578087 0.03778,-0.819743 0.0094,-0.431196 0.0043,-0.445414 -0.118029,-0.554398 -0.221893,-0.18953 -0.174679,-0.260606 0.165234,-0.260606 0.439072,0 0.665686,-0.16111 0.500452,-0.364859 -0.06135,-0.07105 -0.250226,-0.07105 -0.637353,0.0095 -0.146354,0.03319 -0.146354,0.03319 -0.174688,-0.194278 -0.02833,-0.274825 -0.169965,-0.421717 -0.358802,-0.374339 -0.174688,0.04263 -0.240782,0.151631 -0.240782,0.393297 v 0.203749 l -0.481554,-0.03319 c -0.519323,-0.03319 -0.840365,0.03795 -0.840365,0.189539 0,0.137412 0.184123,0.18006 0.745938,0.165841 0.618473,-0.01421 0.684567,0.02365 0.434349,0.236917 l -0.155798,0.127942 -0.04246,0.729718 c -0.02833,0.402758 -0.0519,0.739188 -0.05667,0.743928 0,0 -0.462674,-0.06161 -1.019766,-0.146892 l -1.015044,-0.151631 0.0043,-0.189539 c 0,-0.0995 0.01889,-0.5307 0.04246,-0.952416 l 0.03778,-0.762886 -0.127474,-0.118463 c -0.08023,-0.07581 -0.122743,-0.165841 -0.122743,-0.255867 0,-0.137421 0.0094,-0.142151 0.25494,-0.170589 0.429618,-0.04263 0.656233,-0.213228 0.481554,-0.360119 -0.07556,-0.06161 -0.236059,-0.03319 -0.557093,0.108984 l -0.179401,0.07581 v -0.146891 c 0,-0.279565 -0.19829,-0.454885 -0.448516,-0.393288 -0.118021,0.02842 -0.283264,0.312732 -0.245495,0.416985 0.01889,0.0474 -0.118029,0.06161 -0.61375,0.05684 -0.557093,-0.0052 -0.646798,0.0043 -0.694003,0.07582 -0.03778,0.06637 -0.0331,0.104244 0.0331,0.165841 0.07079,0.07105 0.188846,0.09003 0.6704,0.104244 0.528768,0.01421 0.590139,0.02365 0.590139,0.09951 0,0.0474 -0.0519,0.118455 -0.118029,0.161102 -0.174679,0.113723 -0.217171,0.374338 -0.203004,1.175123 l 0.01412,0.710769 -0.259662,-0.02842 c -0.141632,-0.01898 -0.391858,-0.05216 -0.552379,-0.08058 l -0.292709,-0.05208 -0.02357,-0.289043 c -0.0094,-0.161111 -0.04722,-0.625474 -0.07556,-1.028241 -0.122743,-1.720042 -0.368247,-2.786181 -0.722327,-3.117872 -0.146363,-0.137413 -0.354089,-0.170581 -0.51461,-0.08058 z"
       id="bomber-2" /></g></svg>
