<svg
   width="30.506329mm"
   height="6.8231792mm"
   viewBox="0 0 30.506329 6.8231792"
   version="1.1"
   id="svg5"
   xml:space="preserve"
   xmlns="http://www.w3.org/2000/svg"
   xmlns:svg="http://www.w3.org/2000/svg"><defs
     id="defs2" /><g
     id="layer1"
     transform="translate(-7.8750237,-132.53457)"><path
       d="m 23.097183,132.84492 c 0.0019,0.18039 0.03202,0.21016 0.211538,0.21587 0.179507,0.006 0.172107,0.0133 -0.05921,0.0607 l -0.261224,0.0477 0.248238,0.14785 c 0.210617,0.12567 0.225877,0.15559 0.114181,0.20182 -0.126654,0.0464 -0.126579,0.0539 5.28e-4,0.0526 0.08231,0.007 0.127548,0.0438 0.10565,0.0967 -0.01443,0.0527 -0.07386,0.091 -0.118865,0.0764 -0.134886,-0.0287 -0.08776,0.19633 0.05466,0.23248 0.119922,0.0289 0.119997,0.0364 4.53e-4,0.0451 -0.164417,0.009 -0.177845,0.15964 -0.02084,0.15807 0.05981,-6e-4 0.112451,0.0289 0.112904,0.074 3.78e-4,0.0376 -0.05157,0.0757 -0.11887,0.0764 -0.05981,6e-4 -0.08933,0.0385 -0.06645,0.0834 0.03036,0.0448 -0.02145,0.0979 -0.110943,0.12139 -0.156557,0.0467 -0.156557,0.0467 0.04743,0.25511 0.256846,0.26052 0.345203,0.86853 0.144848,1.02088 -0.08911,0.061 -0.110634,0.15146 -0.0719,0.28638 0.100968,0.37485 -0.01827,0.41363 -1.199559,0.4255 -1.233635,0.0124 -1.293668,-0.01 -1.298802,-0.52068 -0.003,-0.30817 -0.0031,-0.31569 -0.151347,-0.17889 -0.08148,0.076 -0.147579,0.19693 -0.146749,0.27961 0.002,0.19543 -0.132909,0.16672 -0.164851,-0.0359 -0.01586,-0.0901 -0.07642,-0.16461 -0.136238,-0.16401 -0.05981,6e-4 -0.118871,0.0764 -0.132916,0.16671 -0.01398,0.0979 -0.06554,0.17356 -0.125365,0.17416 -0.06729,6.7e-4 -0.08881,0.0911 -0.07174,0.30141 0.01782,0.28547 0.0105,0.30058 -0.19137,0.30261 -0.142053,0.001 -0.216445,0.0398 -0.215691,0.11493 0.0013,0.12777 -0.536799,0.15573 -1.890877,0.0867 -0.63596,-0.0387 -0.800749,-0.0671 -0.824165,-0.16462 -0.03089,-0.0974 -0.03835,-0.0973 -0.04478,0.008 -0.0056,0.18047 -0.558856,0.19355 -0.889559,0.024 -0.202854,-0.0957 -0.240836,-0.15544 -0.243026,-0.37341 -0.0024,-0.24053 -0.01752,-0.25542 -0.271729,-0.25286 -0.261671,0.003 -0.269072,0.0102 -0.221795,0.25029 0.04712,0.22505 0.03239,0.24775 -0.221053,0.32547 -0.208655,0.0697 -0.27595,0.0704 -0.306689,-0.0119 -0.02296,-0.0524 -0.150738,-0.11877 -0.293093,-0.14741 -0.194768,-0.0356 -0.255116,-0.0876 -0.263786,-0.20782 -0.0089,-0.15026 -0.01646,-0.15019 -0.04492,-0.007 -0.02159,0.0829 -0.10271,0.19648 -0.176939,0.24984 -0.09651,0.0686 -0.140174,0.18934 -0.13821,0.38477 l 0.0029,0.27811 -0.949447,0.017 c -0.762527,0.0151 -0.867344,0.001 -0.516402,-0.0474 0.283733,-0.0404 0.462562,-0.10237 0.506585,-0.18551 0.0367,-0.068 0.09615,-0.1062 0.14123,-0.0841 0.03768,0.0297 0.06729,-6.7e-4 0.06661,-0.0683 -6.04e-4,-0.0601 0.0287,-0.12056 0.05844,-0.13589 0.02975,-0.0153 -8.26e-4,-0.0827 -0.07635,-0.1571 -0.1132,-0.1041 -0.135627,-0.10387 -0.134722,-0.0137 6.04e-4,0.0601 -0.05867,0.11335 -0.125968,0.11403 -0.112151,10e-4 -0.119475,0.0162 -0.02167,0.0754 0.06018,0.037 0.08315,0.0894 0.05353,0.11974 -0.07401,0.0759 -0.723562,0.17264 -0.724241,0.105 -3.02e-4,-0.0301 -0.187903,-0.0958 -0.412642,-0.13868 -0.224754,-0.0429 -0.404789,-0.10118 -0.390139,-0.13139 0.0071,-0.0302 -0.01556,-0.06 -0.06056,-0.0746 -0.03745,-0.007 -0.07453,0.0233 -0.07401,0.0759 5.28e-4,0.0526 -0.09606,0.11372 -0.222941,0.13755 -0.29097,0.0631 -0.573491,0.22376 -0.52788,0.29847 0.02273,0.0299 0.142656,0.0587 0.277316,0.0649 0.127094,-0.001 0.254416,0.02 0.277083,0.0423 0.02265,0.0224 -0.276176,0.0479 -0.657481,0.0517 -0.6878525,0.007 -0.7103535,-3.8e-4 -0.9519395,-0.23099 -0.181175,-0.17107 -0.271344,-0.21527 -0.330553,-0.15454 -0.0592,0.0607 -0.05852,0.12838 0.0024,0.24053 0.08367,0.14199 0.06887,0.15717 -0.110565,0.15897 -0.314016,0.003 -0.70559,-0.27105 -0.715407,-0.50398 -0.0089,-0.13522 -0.02401,-0.15762 -0.04553,-0.0672 -0.01427,0.0678 0.0333,0.33793 0.11819,0.60018 0.08481,0.25474 0.178909,0.68979 0.204131,0.96767 0.02529,0.28541 0.08057,0.57802 0.12627,0.66025 0.08374,0.1495 0.143564,0.1489 14.2368365,0.007 l 14.153085,-0.14218 0.658093,-0.73579 c 0.938951,-1.06184 0.916971,-1.01651 0.610808,-0.97585 -0.141826,0.024 -1.001248,0.0702 -1.913158,0.10191 -1.487385,0.0601 -1.666893,0.0543 -1.667951,-0.0509 -9.08e-4,-0.0902 -0.07598,-0.11952 -0.292788,-0.11734 -0.164488,0.002 -0.31432,-0.0269 -0.3446,-0.0642 -0.06079,-0.0971 -0.628409,-0.0313 -0.948541,0.10726 -0.08186,0.0384 -0.171812,0.0168 -0.247256,-0.0501 -0.234116,-0.23069 -0.130273,-0.31442 0.482203,-0.38071 0.156854,-0.0166 0.08941,-0.0309 -0.179822,-0.0358 -0.254272,-0.005 -0.494059,-0.0552 -0.561945,-0.11464 -0.06781,-0.0519 -0.262879,-0.11763 -0.442626,-0.14589 -0.292036,-0.0422 -0.321795,-0.0269 -0.38727,0.15423 -0.0438,0.10569 -0.07206,0.27135 -0.07099,0.37658 9.89e-4,0.0977 -0.02061,0.18061 -0.05044,0.18844 -0.231541,0.0249 -0.3733,0.0564 -0.484915,0.11011 -0.07446,0.0308 -0.134356,0.0239 -0.134658,-0.006 -3.78e-4,-0.0376 -0.187436,-0.0507 -0.419061,-0.0334 -0.373602,0.0263 -0.418608,0.0118 -0.374886,-0.10148 0.02175,-0.0679 0.04341,-0.14325 0.04326,-0.15829 -1.51e-4,-0.015 0.06699,-0.0308 0.156709,-0.0317 0.127094,-10e-4 0.149151,-0.0391 0.124225,-0.2869 l -0.02522,-0.27789 -0.688065,-0.0156 -0.695547,-0.0156 0.003,0.30818 c 0.0024,0.24053 0.02545,0.30043 0.145073,0.29923 0.179439,-0.002 0.272099,0.29044 0.100284,0.3072 -0.07469,0.008 -0.164404,0.009 -0.216811,0.002 -0.04492,-0.007 -0.104453,0.0236 -0.133904,0.069 -0.07356,0.12102 -0.537403,0.0956 -0.59103,-0.0316 -0.05385,-0.14981 -0.270582,-0.14011 -0.269073,0.0101 6.8e-4,0.0676 -0.05127,0.10575 -0.118719,0.0914 -0.104901,-0.0215 -0.120985,-0.1341 -0.119928,-0.77308 0.0064,-0.85702 -0.02515,-1.01457 -0.226489,-0.95992 -0.208731,0.0622 -0.255411,-0.11771 -0.07793,-0.31494 0.207076,-0.2276 0.168792,-0.31742 -0.114717,-0.25443 -0.171586,0.0393 -0.186386,0.0545 -0.05172,0.0607 0.201934,0.006 0.218093,0.1256 0.01744,0.24789 -0.08913,0.061 -0.147724,0.1819 -0.146515,0.30216 0.002,0.19543 -0.02032,0.21068 -0.326853,0.21376 l -0.328968,0.003 0.01956,-0.28584 c 0.03352,-0.38372 -0.02786,-0.54096 -0.199819,-0.53924 -0.07477,7.6e-4 -0.142436,-0.0362 -0.142815,-0.0737 -4.54e-4,-0.0451 -0.06804,-0.0745 -0.150284,-0.0737 -0.127102,0.001 -0.149007,0.0541 -0.161315,0.31734 -0.0056,0.18048 -0.003,0.43604 0.01328,0.5787 0.02575,0.3305 -0.0327,0.46639 -0.175278,0.41521 -0.07508,-0.0294 -0.113668,-0.14921 -0.115932,-0.3747 -0.0019,-0.18039 -0.03323,-0.33042 -0.07808,-0.32997 -0.03738,3.7e-4 -0.07528,-0.0518 -0.07588,-0.112 -6.04e-4,-0.0601 -0.06842,-0.11207 -0.150668,-0.11124 -0.09719,9.9e-4 -0.149001,0.0541 -0.148019,0.15183 0.0012,0.12026 -0.05082,0.15085 -0.222783,0.15258 -0.186914,0.002 -0.224609,-0.0278 -0.226194,-0.18566 -0.0013,-0.13529 0.04296,-0.18836 0.147572,-0.19693 0.08216,-0.008 0.186681,-0.0244 0.223997,-0.0324 0.04478,-0.008 0.134352,-0.0239 0.201558,-0.0321 0.09711,-0.008 0.104378,-0.0312 0.03639,-0.0981 -0.05287,-0.0521 -0.09122,-0.14942 -0.0919,-0.21708 -0.0011,-0.10523 -0.144242,-0.21654 -0.271351,-0.21527 -0.01495,1.5e-4 -0.0287,0.12056 -0.02726,0.26338 0.0021,0.21046 -0.02726,0.26337 -0.146892,0.26457 -0.119626,10e-4 -0.150064,-0.0511 -0.152253,-0.26908 -0.0015,-0.15785 -0.03239,-0.24775 -0.07695,-0.21723 -0.03715,0.0229 -0.07484,-0.007 -0.07544,-0.0669 -8.26e-4,-0.0827 0.06608,-0.12094 0.208126,-0.12237 0.216825,-0.002 0.528266,-0.26089 0.430094,-0.35763 -0.07551,-0.0744 -1.107435,-0.0791 -1.256209,-0.002 -0.09666,0.0536 -0.111765,0.0387 -0.08307,-0.0819 0.02159,-0.0829 0.162591,-0.18956 0.348902,-0.25156 0.25329,-0.0928 0.30518,-0.13838 0.281318,-0.28097 -0.01676,-0.18024 -0.145834,-0.37439 -0.243026,-0.37342 -0.0299,3e-4 -0.07378,0.0985 -0.09493,0.22647 -0.05686,0.29374 -0.340672,0.32667 -0.358506,0.0412 -0.0085,-0.10515 -0.0173,-0.23285 -0.02529,-0.28539 -0.008,-0.0525 0.08134,-0.091 0.23842,-0.0851 0.231851,0.005 0.327683,-0.13109 0.162146,-0.23467 -0.0376,-0.0222 -0.05323,-0.0897 -0.03134,-0.1425 0.02907,-0.083 -0.06842,-0.11208 -0.449958,-0.1308 l -0.493674,-0.0176 z m 1.049734,1.77854 c 0.05233,-5.3e-4 0.09025,0.0517 0.09093,0.11937 8.27e-4,0.0827 -0.05876,0.10583 -0.238345,0.0926 -0.202024,-0.013 -0.23978,-0.0502 -0.233738,-0.1931 0.0048,-0.26315 0.01224,-0.27075 0.155575,-0.1444 0.07552,0.0744 0.180716,0.12598 0.225578,0.12553 z m -12.466409,2.80137 c -0.0222,0.0228 -0.08941,0.031 -0.141985,0.009 -0.06003,-0.022 -0.03783,-0.0447 0.0444,-0.0456 0.08218,-0.008 0.127259,0.0137 0.09758,0.0366 z"
       id="destroyer" /></g></svg>
