<svg
   width="16.41337mm"
   height="16.413374mm"
   viewBox="0 0 16.41337 16.413374"
   version="1.1"
   id="svg5"
   xml:space="preserve"
   xmlns="http://www.w3.org/2000/svg"
   xmlns:svg="http://www.w3.org/2000/svg"><defs
     id="defs2" /><g
     id="layer1"
     transform="translate(-152.19698,-12.23572)"><g
       transform="matrix(0.00710171,0,0,-0.00707715,151.07497,31.058646)"
       fill="#000000"
       stroke="none"
       id="emblem-DE"><path
         d="m 990.87258,2623.5876 c -346.21831,-97.4187 -607.5121,-321.4649 -757.75599,-655.9178 -58.79024,-126.6413 -75.12532,-217.5527 -75.12532,-464.3402 0,-285.7507 9.79774,-327.9593 107.78498,-526.03123 C 762.23851,-29.305701 2281.0172,210.97464 2454.1248,1321.4926 c 107.7836,675.3985 -375.6137,1285.8605 -1054.978,1334.5636 -153.5134,9.7796 -287.4282,0 -408.27422,-32.4686 z"
         id="path565-45-4-3"
         style="fill:#6a1b1b;fill-opacity:1;stroke-width:3.25664" /><path
         style="fill:#ffffff;fill-opacity:1;stroke-width:1.28827"
         d="m 845.58084,2463.9155 c 74.06791,-132.8537 132.35748,-289.017 174.68216,-408.6951 51.3939,-144.9311 70.8528,-314.7174 49.6907,-331.1868 -22.6738,-15.3716 -231.55593,34.6118 -432.59704,105.9781 -167.78622,30.7429 -127.49156,57.7407 -302.83572,110.4431 -25.69699,7.6857 -2.02104,-195.3008 -2.02104,-515.9062 0,-187.7517 -9.84193,-346.3958 2.17132,-343.4041 171.042,42.5962 162.95902,62.13 235.51524,84.0893 270.57419,79.0534 139.01671,85.1912 399.00994,99.4648 l 107.172,9.6232 -32.9375,-174.5706 C 1012.3075,934.79587 993.99141,854.23248 852.28612,550.42077 c -4.52644,-20.95804 8.69383,-20.84507 450.07758,-20.84507 258.4811,0 463.2533,-15.61432 463.2533,-13.41841 0,2.19594 -29.9484,67.22837 -64.715,129.81228 -111.8572,204.22121 -144.8541,402.58273 -170.38,551.93613 l -12.3301,72.1448 106.5644,-6.3157 c 259.8515,-60.8543 85.3976,-22.3287 268.4317,-60.2815 71.0445,-20.8613 138.2223,-25.1355 360.8676,-149.4004 45.4162,-25.348 23.8567,174.2652 23.8567,362.0169 0,320.6054 17.6691,531.8996 -6.5165,524.2139 -377.8971,-113.0902 -418.5712,-197.7187 -657.3575,-225.0242 l -95.8464,-10.9602 60.2809,306.6905 c 33.4574,170.2213 36.4052,164.6139 171.4068,449.5208 10.581,17.5674 -3.1092,23.4402 -446.0047,23.4402 -442.89495,0 -468.87519,-2.4679 -458.29406,-20.0353 z"
         id="path327-7"
         transform="translate(-7.0563317e-5,-1.5395632e-5)" /><path
         id="path327"
         d="m 995,2373 c 49,-121 93,-252 121,-361 34,-132 65,-364 51,-379 -15,-14 -248,17 -381,52 -111,28 -242,72 -358,120 -17,7 -18,-12 -18,-304 0,-171 2,-311 4,-311 3,0 45,16 93,36 179,72 406,127 578,140 l 85,7 v -39 c 0,-167 -71,-455 -175,-707 -7,-16 12,-17 304,-17 171,0 311,2 311,4 0,2 -18,50 -41,107 -74,186 -139,472 -139,610 v 42 l 85,-7 c 171,-13 400,-69 580,-141 47,-19 88,-35 91,-35 2,0 4,140 4,311 0,292 -1,311 -17,304 -250,-103 -536,-175 -695,-175 h -48 v 41 c 0,158 73,450 175,702 7,16 -12,17 -305,17 -293,0 -312,-1 -305,-17 z m -185,117 c 0,-6 20,-50 44,-98 81,-162 149,-369 181,-553 8,-46 13,-84 12,-86 -5,-4 -152,23 -227,42 -124,31 -256,78 -383,136 -70,33 -130,59 -132,59 -3,0 -5,-223 -5,-495 v -495 l 98,49 c 118,59 261,113 390,148 104,27 249,53 256,45 3,-2 3,-18 -1,-36 C 1004,987 954,821 869,637 837,567 810,507 810,505 c 0,-3 223,-5 495,-5 h 495 l -49,98 c -59,118 -113,261 -147,388 -27,102 -54,245 -48,255 5,9 146,-15 256,-44 126,-34 268,-88 390,-148 l 98,-48 v 495 c 0,272 -2,494 -4,494 -3,0 -49,-21 -103,-46 -129,-60 -205,-89 -338,-129 -96,-28 -294,-70 -301,-62 -5,5 25,165 45,244 31,119 76,242 137,375 30,64 54,119 54,122 0,3 -220,6 -490,6 -326,0 -490,-3 -490,-10 z m 887,-62 c -3,-7 -23,-53 -45,-103 -77,-175 -138,-400 -157,-574 l -7,-64 68,7 c 165,17 430,92 593,167 46,21 85,39 87,39 2,0 4,-180 4,-400 0,-220 -2,-400 -4,-400 -2,0 -38,16 -82,36 -164,76 -428,150 -603,169 l -64,7 7,-63 c 19,-175 93,-438 170,-605 20,-42 36,-80 36,-83 0,-3 -180,-6 -400,-6 -220,0 -400,3 -400,7 0,3 16,39 35,80 73,150 152,432 171,607 l 7,63 -64,-7 c -174,-19 -399,-80 -574,-157 -49,-22 -96,-42 -102,-45 -10,-4 -13,79 -13,396 0,221 2,401 4,401 2,0 37,-16 78,-35 151,-73 432,-152 607,-171 l 64,-7 -7,64 c -19,176 -92,434 -167,598 -22,46 -39,85 -39,87 0,2 180,4 401,4 317,0 400,-3 396,-12 z" /></g></g></svg>
