<svg
   width="15.741277mm"
   height="13.345054mm"
   viewBox="0 0 15.741277 13.345054"
   version="1.1"
   id="svg5"
   xml:space="preserve"
   xmlns="http://www.w3.org/2000/svg"
   xmlns:svg="http://www.w3.org/2000/svg"><defs
     id="defs2" /><g
     id="layer1"
     transform="translate(-101.37129,-32.659913)"><path
       d="m 109.15869,32.850448 c -0.0142,0.03154 -0.0285,0.08032 -0.0285,0.108958 0,0.04878 -0.0456,0.06022 -0.46153,0.103213 -0.6353,0.06594 -1.3276,0.180632 -1.43871,0.237974 -0.094,0.04878 -0.1282,0.126157 -0.057,0.126157 0.17093,0 0.76067,-0.08023 1.23929,-0.169159 0.52135,-0.09749 0.57548,-0.103222 0.57548,-0.06022 0,0.02868 -0.0456,0.08604 -0.0997,0.129017 -0.057,0.04012 -0.1339,0.123289 -0.17094,0.180631 -0.16809,0.260918 -0.31054,0.971973 -0.34756,1.734634 -0.0113,0.246578 -0.0285,0.401406 -0.0484,0.407142 -0.0172,0.0061 -0.78629,0.05736 -1.7122,0.114685 -2.62672,0.160564 -4.25631,0.272381 -4.45858,0.303921 -0.22222,0.0344 -0.4188,0.126157 -0.49286,0.232238 -0.04,0.05164 -0.0741,0.197831 -0.11397,0.484552 -0.0655,0.467344 -0.0484,0.682383 0.0684,0.865883 0.13105,0.203566 0.10541,0.194971 2.19937,0.576302 3.0854,0.561962 3.78908,0.682383 4.15375,0.713922 l 0.39031,0.03154 0.0171,0.444409 c 0.0769,1.789108 0.17663,3.515146 0.25925,4.472782 0.0228,0.260909 0.037,0.478816 0.0285,0.484552 -0.006,0.0061 -0.39031,0.08888 -0.85753,0.180632 -0.86608,0.172027 -0.98289,0.21217 -1.0769,0.355527 -0.1396,0.215038 -0.10826,0.559094 0.0655,0.736857 0.18234,0.1835 0.33049,0.209303 1.14527,0.209303 l 0.70369,-0.0035 0.11966,-0.08318 c 0.0684,-0.04878 0.1396,-0.100354 0.16239,-0.114685 0.0285,-0.0201 0.0484,-0.01438 0.0712,0.02582 0.0655,0.114685 0.17093,0.189227 0.2735,0.189227 0.0798,0 0.11965,-0.02296 0.20226,-0.111817 l 0.10257,-0.111817 0.11111,0.08888 c 0.0997,0.08023 0.1396,0.09462 0.35612,0.111817 0.68944,0.05164 1.31336,0.01144 1.53842,-0.103213 0.38461,-0.19784 0.3732,-0.834352 -0.0171,-0.997776 -0.0599,-0.02582 -0.45298,-0.114685 -0.87747,-0.197831 -0.42164,-0.08032 -0.78061,-0.160564 -0.79485,-0.172036 -0.0142,-0.01438 0,-0.364131 0.0342,-0.863018 0.1111,-1.505263 0.14244,-2.055753 0.24215,-4.381028 l 0.006,-0.157688 0.37606,-0.0344 c 0.20797,-0.01724 0.55553,-0.06594 0.76921,-0.106089 0.21652,-0.04012 0.7977,-0.143357 1.29056,-0.232238 4.32469,-0.771265 4.15945,-0.73399 4.3019,-0.989172 0.0655,-0.117553 0.0712,-0.157696 0.0684,-0.458749 -0.006,-0.421474 -0.0712,-0.782737 -0.15954,-0.883082 -0.16809,-0.1835 -0.34187,-0.215039 -1.74639,-0.306789 -1.60965,-0.106081 -4.71784,-0.301052 -4.80616,-0.301052 -0.0741,0 -0.0741,0 -0.0912,-0.280986 -0.0285,-0.430069 -0.10256,-1.060845 -0.151,-1.28162 -0.0883,-0.407134 -0.23646,-0.705318 -0.3903,-0.785596 -0.0883,-0.04878 -0.10826,-0.189236 -0.0228,-0.163432 0.13676,0.04298 1.2165,0.223634 1.47861,0.249446 0.33901,0.03154 0.41594,0.0087 0.26779,-0.08318 -0.10541,-0.06308 -0.79485,-0.183491 -1.49283,-0.260909 -0.42449,-0.04584 -0.43304,-0.04869 -0.4416,-0.117553 -0.0142,-0.103222 -0.057,-0.143356 -0.15099,-0.143356 -0.0513,0 -0.0912,0.0201 -0.1111,0.0545 z"
       id="jet-DE" /></g></svg>
