<svg
   width="9.6300354mm"
   height="10.626478mm"
   viewBox="0 0 9.6300354 10.626478"
   version="1.1"
   id="svg5"
   xml:space="preserve"
   xmlns="http://www.w3.org/2000/svg"
   xmlns:svg="http://www.w3.org/2000/svg"><defs
     id="defs2" /><g
     id="layer1"
     transform="translate(-43.178637,-7.6740308)"><path
       d="m 47.570126,13.810322 c 0.0728,0.11494 0.15562,0.23177 0.24762,0.35251 0.0553,-0.20367 -0.133,-0.24803 -0.24762,-0.35251 z m -0.01,-0.002 c -0.0573,-0.20368 -0.1925,-0.3368 -0.37425,-0.43774 -0.075,-0.0417 -0.13035,-0.1181 -0.19655,-0.17655 -0.11419,-0.10084 -0.23242,-0.19721 -0.34436,-0.30045 -0.19061,-0.17578 -0.17165,-0.38724 0.005,-0.57421 0.0872,-0.0923 0.18967,-0.0887 0.27525,-0.13445 0.15007,-0.0802 0.35497,-0.0776 0.44517,-0.27855 0.0803,-0.17888 0.20321,-0.33883 0.30995,-0.50545 0.0206,-0.0321 0.0482,-0.069 0.0813,-0.0823 0.19322,-0.0779 0.389,-0.14956 0.61585,-0.23539 -0.0324,-0.10998 -0.0697,-0.23662 -0.11238,-0.38182 0.0772,0.0182 0.13789,0.0309 0.19761,0.0471 0.0922,0.025 0.17609,0.0439 0.20796,-0.0867 0.007,-0.0277 0.0636,-0.0676 0.0891,-0.0623 0.13558,0.0283 0.27178,0.0611 0.39995,0.112 0.0294,0.0117 0.0363,0.10047 0.039,0.15451 0.0119,0.23461 0.0183,0.24209 0.253,0.22206 0.0885,-0.008 0.17694,-0.0148 0.27461,-0.023 0,-0.10355 0,-0.20059 0,-0.33224 0.22271,0.0129 0.43785,0.0189 0.6516,0.0394 0.21396,0.0205 0.21398,0.0269 0.23271,-0.18894 0.007,-0.0828 0.0108,-0.16593 0.0156,-0.24237 0.13868,0 0.27413,0.0273 0.39219,-0.006 0.17257,-0.0493 0.33225,-0.14313 0.49834,-0.21589 0.048,-0.0211 0.10034,-0.0523 0.14883,-0.0492 0.32125,0.0202 0.64198,0.0483 0.96068,0.0738 0.0562,-0.1644797 0.029,-0.2071297 -0.14873,-0.2096397 -0.3264,-0.005 -0.65291,-0.002 -0.96895,-0.002 -0.0427,-0.17265 0.0667,-0.32268 -0.0555,-0.44442 -0.18341,0.10811 -0.31997,0.07 -0.43624,-0.0946 -0.021,-0.0297 -0.10179,-0.0415 -0.14275,-0.027 -0.068,0.0241 -0.14515,0.0627 -0.18476,0.1189397 -0.12013,0.17052 -0.2782,0.14845 -0.4457,0.11704 -0.077,-0.0145 -0.15548,-0.0211 -0.23249,-0.0311 -2.5e-4,-0.2190797 -2.5e-4,-0.2190697 -0.21643,-0.2529597 -0.0685,-0.0108 -0.1374,-0.0319 -0.20551,-0.0298 -0.0878,0.003 -0.13363,-0.0408 -0.14316,-0.11465 -0.0169,-0.13113 -0.1264,-0.11314 -0.20374,-0.1237 -0.0368,-0.005 -0.0842,0.0576 -0.1242,0.0926 -0.014,0.0123 -0.0204,0.0335 -0.0299,0.0509 -0.12593,0.22725 -0.12592,0.22725 -0.38004,0.18576 -0.16651,-0.0272 -0.19398,-0.01 -0.24119,0.1556597 -0.0838,0 -0.16736,0 -0.25096,0 0.14533,-0.0423 0.12626,-0.1431197 0.12633,-0.2539297 3e-5,-0.0653 0.0466,-0.15113 0.0998,-0.19199 0.18411,-0.14155 0.27568,-0.4691597 0.17329,-0.6792494 -0.21235,-0.43572 -0.75406,-0.6810597 -1.21855,-0.5363797 -0.10202,0.0318 -0.21259,0.1035897 -0.27236,0.1895397 -0.12645,0.18183 -0.22724,0.3825597 -0.32576,0.5818697 -0.0198,0.04 0.0126,0.10963 0.0295,0.16284 0.0146,0.0457 0.0416,0.0874 0.0657,0.1363797 -0.18261,0.0459 -0.3228,0.0522 -0.46504,-0.0645 -0.15028,-0.12328 -0.33922,-0.10386 -0.51049,-0.0324 -0.26905,0.1121797 -0.49341,0.2654597 -0.63511,0.5471897 -0.14127,0.28086 -0.33692,0.53547 -0.51908,0.79431 -0.1353,0.19226 -0.25916,0.38566 -0.29163,0.62467 -0.006,0.0435 -0.0174,0.089 -0.038,0.12723 -0.0979,0.18181 -0.0636,0.34241 0.0702,0.48109 -0.0281,0.15515 -0.12147,0.18642 -0.25784,0.17489 -0.15293,-0.0129 -0.30757,-0.009 -0.46141,-0.007 -0.12738,0.002 -0.23495,0.0312 -0.26041,0.1867 -0.006,0.0373 -0.0547,0.0765 -0.0932,0.0977 -0.08,0.0443 -0.11502,0.0946 -0.0899,0.19154 0.0659,0.25384 0.12078,0.5105 0.18555,0.76464 0.0103,0.0405 0.049,0.0737 0.0716,0.10602 -0.0541,0.0811 -0.15329,0.16774 -0.16474,0.26476 -0.0111,0.0942 0.0679,0.19895 0.10911,0.30358 0.0582,-0.01 0.10501,-0.0175 0.11928,-0.0198 0.0752,0.10575 0.1462,0.19101 0.19932,0.28626 0.0283,0.0508 0.0397,0.12014 0.0342,0.17881 -0.011,0.11705 0.0233,0.19638 0.12614,0.26034 0.0999,0.0622 0.19022,0.14125 0.27934,0.21907 0.0843,0.0737 0.16548,0.1037 0.2833,0.0706 0.1366,-0.0383 0.28324,-0.0395 0.42374,-0.0662 0.0536,-0.0102 0.10218,-0.0464 0.15306,-0.0708 0.006,-0.0202 0.0127,-0.0404 0.019,-0.0607 0.0569,0.0865 0.1218,0.16879 0.16879,0.26033 0.0774,0.15077 0.18693,0.2878 0.19497,0.47124 10e-4,0.0363 0.0746,0.0713 0.11723,0.10365 0.099,0.0751 0.19952,0.14814 0.29685,0.22012 -0.19211,0.19924 -0.36134,0.37692 -0.53314,0.55208 -0.0972,0.0991 -0.13907,0.20329 -0.0665,0.29479 -0.0971,0.15841 -0.18085,0.29995 -0.26961,0.43829 -0.0585,0.0911 -0.12615,0.17635 -0.18597,0.26669 -0.0544,0.0821 -0.11753,0.16249 -0.0486,0.27174 0.0118,0.0187 -0.0144,0.0681 -0.0324,0.0977 -0.11517,0.18936 -0.25073,0.36618 -0.25017,0.60759 2.5e-4,0.12341 0.0351,0.1875 0.15935,0.19847 0.13339,0.0118 0.27689,0.0657 0.39783,0.0333 0.39832,-0.10651 0.78716,0.0763 1.17833,0.0121 0.12395,-0.0204 0.24886,-0.0684 0.35918,-0.12932 0.12613,-0.0697 0.12309,-0.14725 0.0206,-0.25057 -0.0238,-0.0239 -0.0404,-0.0553 -0.059,-0.0841 -0.0699,-0.10803 -0.16625,-0.13836 -0.29382,-0.12645 -0.1217,0.0114 -0.25088,0.0148 -0.36723,-0.0152 -0.071,-0.0183 -0.15732,-0.0973 -0.17636,-0.16577 -0.0229,-0.0822 0.0436,-0.14644 0.13962,-0.1925 0.29977,-0.14382 0.47939,-0.40862 0.61566,-0.69908 0.0679,-0.14469 0.14111,-0.26811 0.29511,-0.33323 0.0818,-0.0346 0.15623,-0.0867 0.23399,-0.13086 -0.0196,-0.0199 -0.0392,-0.0399 -0.0589,-0.0598 0.0788,0.0981 0.16938,0.18941 0.23203,0.29696 0.036,0.0619 0.0385,0.1504 0.036,0.22627 -0.008,0.24008 0.008,0.26608 0.24171,0.33029 0.0237,0.006 0.0619,0.009 0.0677,0.0242 0.0493,0.12438 0.12929,0.2511 0.12941,0.37718 2.5e-4,0.20863 -0.008,0.41324 0.0801,0.60657 0.0171,0.0375 0.0636,0.0832 0.10008,0.0865 0.18446,0.0169 0.37094,0.0377 0.54488,-0.062 0.0325,-0.0186 0.0853,-0.0142 0.1254,-0.005 0.40602,0.0897 0.78088,0.0455 1.09108,-0.25833 0.0503,-0.0493 0.11679,-0.13736 0.1025,-0.18596 -0.0317,-0.10783 -0.0873,-0.22389 -0.23292,-0.23601 -0.16308,-0.0136 -0.32589,-0.0303 -0.4888,-0.046 -0.31651,-0.0305 -0.52706,-0.19992 -0.65543,-0.48715 -0.0312,-0.0698 -0.0321,-0.10867 0.0259,-0.16497 0.16391,-0.15917 0.16266,-0.25685 0.0395,-0.45443 -0.18533,-0.29727 -0.28958,-0.62739 -0.35924,-0.96805 -0.042,-0.20546 -0.13809,-0.39751 -0.12626,-0.61863 0.003,-0.07 -0.0891,-0.1451 -0.15004,-0.2316 -0.095,-0.13057 -0.17782,-0.2474 -0.2606,-0.36424 z"
       id="soldier-DE" /></g></svg>
