<svg
   width="30.499662mm"
   height="5.7043438mm"
   viewBox="0 0 30.499662 5.7043438"
   version="1.1"
   id="svg5"
   xml:space="preserve"
   xmlns="http://www.w3.org/2000/svg"
   xmlns:svg="http://www.w3.org/2000/svg"><defs
     id="defs2" /><g
     id="layer1"
     transform="translate(-7.0249346,-149.55294)"><path
       d="m 27.941474,149.72928 c 0.01345,0.23282 0.0706,0.41344 0.137017,0.41277 0.06643,-6.7e-4 0.113581,0.28359 0.128469,0.66309 l 0.01788,0.67282 0.139598,-0.43281 0.139605,-0.43282 0.01519,0.40538 0.01528,0.414 0.664305,-0.007 0.664312,-0.007 0.006,0.59529 0.006,0.59529 0.720272,0.0532 c 0.387857,0.0306 0.786534,0.0352 0.874853,0.008 0.0883,-0.0268 0.176969,-0.019 0.199545,0.0239 0.02251,0.0343 1.230618,0.15157 2.682231,0.25779 2.437793,0.17396 2.670562,0.1975 2.860607,0.37679 0.480681,0.45247 0.100023,1.13792 -0.707099,1.2582 -0.210026,0.0367 -4.605438,0.0894 -9.776242,0.11549 -7.451578,0.049 -9.88781,0.0303 -11.726853,-0.0634 -1.285205,-0.0734 -2.703087,-0.12816 -3.157113,-0.13223 l -0.830559,-0.009 -0.218229,0.32144 c -0.207334,0.30408 -0.251358,0.3304 -0.727447,0.33518 -0.2767965,0.003 -0.5427755,-0.0204 -0.5874095,-0.0545 -0.04475,-0.0427 -0.144625,-0.0676 -0.211067,-0.0669 -0.07749,7.8e-4 -0.145491,-0.15384 -0.169535,-0.34342 -0.03658,-0.33613 -0.0478,-0.34465 -0.669252,-0.48509 -0.588195,-0.13214 -0.643549,-0.13159 -0.775112,-7.5e-4 -0.08753,0.10441 -0.131731,0.11349 -0.13251,0.0359 -8.34e-4,-0.0863 -0.03416,-0.0946 -0.155181,-0.0157 -0.121008,0.0789 -0.165474,0.0621 -0.211146,-0.0755 -0.03416,-0.0946 -0.03572,-0.24986 -0.0035,-0.3451 0.04287,-0.13848 0.08702,-0.15618 0.209587,-0.0798 0.122569,0.0764 0.1557,0.0675 0.154833,-0.0188 -6.93e-4,-0.069 0.05477,-0.061 0.144367,0.0417 0.134336,0.14533 0.167554,0.145 0.797167,-0.008 l 0.662747,-0.16196 -0.0365,-0.32751 c -0.04719,-0.28427 -0.0144,-0.32773 0.184925,-0.32974 0.132857,-10e-4 0.232076,-0.0455 0.231556,-0.0972 -5.2e-4,-0.0517 0.209581,-0.0798 0.5197665,-0.0656 0.443138,0.0214 0.554199,0.0548 0.666827,0.24352 0.281214,0.43722 0.27014,0.43733 2.924514,0.12593 1.360356,-0.16034 2.499196,-0.32709 2.509743,-0.37897 0.02173,-0.0434 0.09921,-0.0441 0.166082,-0.002 0.07794,0.0423 0.686881,0.0362 1.406114,-0.0141 0.697089,-0.0501 3.010494,-0.13378 5.147002,-0.18976 l 3.87453,-0.0993 0.09462,-0.50139 c 0.08389,-0.46676 0.105775,-0.49286 0.404714,-0.49587 0.310011,-0.003 0.320914,-0.0205 0.33907,-0.41756 0.0077,-0.33658 0.0186,-0.35395 0.05433,-0.10409 0.106667,0.69781 0.204224,0.48976 0.249445,-0.5202 0.02723,-0.59563 0.06849,-0.89803 0.08181,-0.67383 z"
       id="submarine-1" /></g></svg>
