<svg
   width="22.594433mm"
   height="9.0240202mm"
   viewBox="0 0 22.594433 9.0240202"
   version="1.1"
   id="svg5"
   xml:space="preserve"
   xmlns="http://www.w3.org/2000/svg"
   xmlns:svg="http://www.w3.org/2000/svg"><defs
     id="defs2" /><g
     id="layer1"
     transform="translate(-116.76983,-8.6034376)"><path
       d="m 125.39567,8.8154489 c 0.15251,0.04765 0.34792,0.1334477 0.44324,0.1906417 0.0953,0.05241 0.224,0.100091 0.29073,0.100091 0.0906,0 0.11439,0.02387 0.11439,0.119152 v 0.119153 h 0.73397 0.73398 l 0.34315,0.1954067 0.33839,0.195408 0.18588,-0.08104 c 0.18587,-0.08579 0.18587,-0.08579 0.33362,0.0429 0.12392,0.10009 0.20018,0.123918 0.40988,0.123918 h 0.25737 l 0.10486,0.2144767 0.10484,0.21447 h 0.27644 c 0.26213,0 0.27643,0.0051 0.27643,0.119152 v 0.119153 h 3.76519 c 2.47835,0 3.76519,-0.01436 3.76519,-0.04765 0,-0.02854 0.15251,-0.04765 0.35745,-0.04765 0.29073,0 0.35746,-0.01427 0.35746,-0.07152 0,-0.06192 0.0572,-0.07152 0.32409,-0.06192 l 0.31932,0.01436 v 0.40512 0.405112 l -0.32409,0.01436 c -0.24783,0.0095 -0.31932,0 -0.31932,-0.05241 0,-0.109622 -0.76257,-0.128684 -4.66121,-0.128684 -3.15513,0 -3.58408,0.0095 -3.58408,0.07152 0,0.05241 -0.0572,0.07152 -0.23831,0.07152 -0.21923,0 -0.2526,0.01436 -0.43371,0.214469 -0.19541,0.209713 -0.20494,0.214478 -0.50044,0.214478 -0.23829,0 -0.30502,0.01436 -0.30502,0.07152 0,0.05717 0.0905,0.07152 0.50997,0.07152 0.48613,0 0.52903,0.0095 0.75304,0.142979 0.19541,0.114387 0.29072,0.14298 0.53856,0.14298 h 0.30503 l 0.83882,0.776873 c 0.46708,0.424174 0.95799,0.867417 1.0962,0.98657 0.15251,0.128683 0.29549,0.295498 0.34792,0.414651 l 0.0858,0.204938 h 0.53856 c 0.69584,0.0051 0.90078,0.08104 1.04853,0.409886 0.12392,0.285959 0.0953,0.581457 -0.0953,0.991334 -0.14775,0.31456 -0.33839,0.500437 -1.36786,1.358332 l -0.5195,0.433712 h -6.44848 -6.44372 l -0.77687,-0.567161 c -1.03423,-0.757804 -1.27254,-0.981812 -1.43935,-1.324965 -0.0715,-0.152519 -0.14775,-0.305029 -0.16681,-0.343161 -0.019,-0.03814 -0.20018,-0.128683 -0.40035,-0.209704 -0.20018,-0.08104 -0.36699,-0.166815 -0.36699,-0.195408 0,-0.142979 0.48615,-1.677657 0.54333,-1.720545 0.0334,-0.02854 0.081,-0.16205 0.10009,-0.300264 0.0285,-0.200173 0.0524,-0.252602 0.13345,-0.271663 0.10962,-0.01903 3.86051,-0.357458 3.99873,-0.357458 0.0572,0 0.10009,-0.06192 0.13344,-0.190642 l 0.0524,-0.190642 h 0.71015 c 0.39558,0 0.71491,-0.01436 0.71491,-0.03814 -0.005,-0.01903 -0.29073,-0.24307 -0.64342,-0.500436 l -0.64342,-0.46708 V 10.150219 9.4877323 h 0.14299 c 0.0953,0 0.14298,-0.02387 0.14298,-0.07152 0,-0.06193 0.10008,-0.07152 0.59576,-0.07152 h 0.59575 v -0.119153 c 0,-0.100082 0.0239,-0.119152 0.13822,-0.119152 0.0763,0 0.30026,-0.07628 0.5052,-0.1715717 0.45755,-0.219244 0.85789,-0.257367 1.27254,-0.119153 z"
       id="tank" /></g></svg>
