<svg
   width="16.552086mm"
   height="13.95735mm"
   viewBox="0 0 16.552086 13.95735"
   version="1.1"
   id="svg5"
   xml:space="preserve"
   xmlns="http://www.w3.org/2000/svg"
   xmlns:svg="http://www.w3.org/2000/svg"><defs
     id="defs2" /><g
     id="layer1"
     transform="translate(-39.649479,-38.803847)"><path
       d="m 54.821485,39.36926 c -0.424371,0.24884 -0.784307,0.468801 -0.795415,0.488797 -0.02218,0.03778 -0.01779,0.0711 0.0156,0.151083 0.01113,0.02885 -0.03998,0.0689 -0.248846,0.191083 -0.411044,0.242176 -1.159795,0.670991 -1.190899,0.684317 -0.01552,0.0044 -0.04444,-0.01999 -0.06663,-0.05777 -0.02218,-0.03559 -0.04891,-0.06663 -0.05997,-0.06663 -0.01113,0 -0.197746,0.102201 -0.415489,0.228843 -0.217735,0.126649 -0.630998,0.36438 -0.917619,0.531015 -0.286613,0.166642 -0.842062,0.486586 -1.233103,0.71321 -1.710814,0.98649 -2.148518,1.237555 -2.172952,1.237555 -0.0156,0 -0.04891,-0.03998 -0.07777,-0.08888 -0.03998,-0.07332 -0.05777,-0.08665 -0.08887,-0.0689 -0.01999,0.01113 -0.124431,0.0711 -0.231076,0.131086 -0.193302,0.113316 -0.195528,0.113316 -0.228851,0.06663 -0.03778,-0.05557 -0.04891,-0.04664 0.226632,-0.204409 0.144412,-0.08442 0.182187,-0.115535 0.177735,-0.151083 -0.0044,-0.03998 0.06443,-0.08665 0.402155,-0.282169 0.222195,-0.128868 0.404374,-0.246621 0.404374,-0.264399 0,-0.04664 -0.07332,-0.159972 -0.102208,-0.159972 -0.01333,0 -0.208839,0.104427 -0.433245,0.233295 -0.34661,0.199965 -0.411044,0.231069 -0.433259,0.202183 -0.01999,-0.02885 -0.0533,-0.01772 -0.235513,0.08666 -0.11776,0.06663 -0.224413,0.122198 -0.235528,0.122198 -0.01333,0 -0.02885,-0.01999 -0.03778,-0.04225 -0.03551,-0.115535 -0.01779,-0.124416 -1.504172,0.730987 -0.784306,0.453249 -1.437534,0.833189 -1.448634,0.844296 -0.01113,0.01113 0,0.05331 0.02885,0.09998 0.02438,0.04444 0.04664,0.08887 0.04664,0.09998 0,0.01113 -0.159979,0.111097 -0.355492,0.222187 -0.197746,0.113316 -0.384377,0.226624 -0.417707,0.253291 -0.03332,0.02892 -0.177743,0.117756 -0.319944,0.202186 -0.14442,0.08221 -0.271061,0.159972 -0.282169,0.175524 -0.01113,0.01333 -0.04218,0.124423 -0.0689,0.24662 -0.02665,0.122205 -0.05777,0.237739 -0.0689,0.257736 -0.01779,0.03332 -0.933163,0.575453 -0.970937,0.575453 -0.0089,0 -0.04444,-0.05557 -0.08221,-0.122205 -0.03551,-0.06663 -0.06663,-0.122197 -0.0689,-0.122197 -0.0066,0 -0.779862,0.446592 -1.126465,0.651002 -0.146646,0.08442 -0.257736,0.164408 -0.253284,0.179968 0.0089,0.01999 0.968712,1.679696 1.035364,1.788567 0.01552,0.02446 0.164424,-0.05111 0.704321,-0.364381 0.377722,-0.217742 0.690995,-0.399929 0.693206,-0.402148 0.0044,-0.0022 -0.04891,-0.106653 -0.117753,-0.231068 -0.07332,-0.128868 -0.119979,-0.233295 -0.108871,-0.244403 0.01113,-0.01113 0.159972,-0.09998 0.32884,-0.197746 l 0.311047,-0.177749 0.122205,0.0711 c 0.0689,0.03778 0.208853,0.115534 0.313273,0.171079 l 0.18885,0.104427 0.01113,1.046479 0.01106,1.046479 0.05111,0.05111 c 0.04664,0.04664 0.0711,0.05111 0.319944,0.0533 l 0.268835,0.0044 0.206635,0.206635 c 0.191076,0.191075 0.235513,0.24662 0.193295,0.239957 -0.06224,-0.0089 -0.07332,0.0089 -0.07332,0.113309 v 0.111097 h -0.335503 -0.335488 l -0.382159,0.206628 c -0.208846,0.115534 -0.588779,0.322162 -0.846507,0.459918 -0.255517,0.13775 -0.484367,0.266618 -0.504356,0.284395 -0.02885,0.02446 -0.03998,0.06663 -0.03998,0.142194 0,0.05777 -0.0066,0.106653 -0.01333,0.106653 -0.0089,0 -0.333263,0.05997 -0.724303,0.135531 -0.391055,0.07332 -0.713217,0.131086 -0.717647,0.126642 -0.0044,-0.0044 -0.02219,-0.08665 -0.04225,-0.182187 -0.01999,-0.09776 -0.03998,-0.179976 -0.04225,-0.182194 -0.0022,-0.0044 -0.07776,0.0044 -0.164416,0.01779 l -0.157746,0.02219 -0.177757,0.371044 c -0.09775,0.202191 -0.168854,0.375488 -0.162191,0.386603 0.0089,0.0089 0.195528,0.01333 0.415489,0.01113 0.379933,-0.0066 0.397704,-0.0089 0.397704,-0.05111 0,-0.03998 0.05777,-0.05557 0.666539,-0.171079 0.366606,-0.0689 0.679887,-0.126642 0.695446,-0.126642 0.01772,-0.0022 0.02665,0.02885 0.02665,0.08665 v 0.08888 h 3.488267 3.488274 v -0.06663 c 0,-0.05777 0.0066,-0.06663 0.05111,-0.05557 0.108864,0.02445 0.855404,0.164416 0.955393,0.177749 0.09109,0.01333 0.10442,0.02219 0.10442,0.0689 v 0.0533 h 0.411037 c 0.226631,0 0.411037,-0.0089 0.411037,-0.01999 0,-0.0089 -0.07998,-0.184405 -0.175531,-0.38437 l -0.177735,-0.368825 -0.106653,-0.01333 c -0.05777,-0.0089 -0.133312,-0.01999 -0.166635,-0.02665 -0.05777,-0.01113 -0.05997,-0.0089 -0.08443,0.153302 -0.0156,0.09109 -0.03551,0.177749 -0.04444,0.191075 -0.01113,0.01999 -0.162198,-0.0022 -0.557683,-0.07554 -0.297728,-0.05557 -0.559901,-0.106645 -0.579897,-0.113308 -0.03332,-0.0089 -0.03998,-0.03778 -0.03998,-0.148865 0,-0.13553 -0.0022,-0.137756 -0.08442,-0.184412 -0.04445,-0.02665 -0.444367,-0.244402 -0.886515,-0.48436 l -0.804296,-0.435478 h -0.333277 -0.335495 v -0.11109 -0.111089 h -0.197747 c -0.137756,0 -0.199964,-0.0089 -0.206627,-0.02885 -0.0066,-0.01333 -0.0134,-0.102208 -0.0156,-0.19552 l -0.0044,-0.168861 0.148857,-0.171079 0.15109,-0.168861 0.106645,-0.551012 0.108871,-0.548794 0.271055,-0.271061 0.26885,-0.271069 0.224405,-0.0066 0.22218,-0.0066 0.0066,-0.07332 0.0066,-0.0711 h 0.166627 0.164424 v -0.07776 -0.07777 h -0.166637 c -0.133312,0 -0.166635,-0.0066 -0.166635,-0.03332 0,-0.02665 0.03559,-0.03331 0.179961,-0.03331 0.282169,0 0.264399,0.03331 0.264399,-0.506575 0,-0.331058 -0.0066,-0.468808 -0.02665,-0.488804 -0.01779,-0.01779 -0.137756,-0.02665 -0.388829,-0.02665 h -0.362147 l 0.0044,-0.748751 0.0066,-0.75098 0.211072,-0.124423 c 0.115534,-0.0689 0.364381,-0.21108 0.548793,-0.317725 l 0.33994,-0.19552 -0.03332,-0.06224 c -0.03998,-0.07554 -0.104412,-0.01779 0.55102,-0.488804 0.242176,-0.173305 0.453255,-0.308836 0.471026,-0.304391 0.0156,0.0066 0.04891,-0.0022 0.07555,-0.02219 l 0.04884,-0.03332 -0.04664,-0.07555 c -0.02438,-0.04445 -0.04444,-0.08665 -0.04444,-0.09554 0,-0.01113 0.08665,-0.0689 0.195521,-0.128868 0.291058,-0.16886 1.419749,-0.819855 1.748581,-1.01093 0.159965,-0.09109 0.553238,-0.319944 0.877626,-0.506575 0.324388,-0.186639 0.606557,-0.351055 0.62878,-0.364381 0.03998,-0.02446 0.03998,-0.04664 0.0044,-0.159972 -0.01113,-0.03998 0.02446,-0.06663 0.291058,-0.222187 0.166635,-0.09554 0.495467,-0.286613 0.728762,-0.422144 l 0.424363,-0.246621 0.05997,0.06224 c 0.03332,0.03551 0.07776,0.06443 0.09776,0.06443 0.02219,0 0.159972,-0.0711 0.30661,-0.155527 0.148865,-0.08665 0.497701,-0.288839 0.779863,-0.451037 0.342173,-0.197739 0.519908,-0.313273 0.54213,-0.353266 0.03112,-0.05557 0.02665,-0.0689 -0.131086,-0.342159 -0.19552,-0.342165 -0.213298,-0.364388 -0.286621,-0.362162 -0.03112,0 -0.404367,0.202183 -0.833181,0.451037 z m -11.502406,6.203345 c 0.02665,0.04218 0.04664,0.08443 0.04664,0.09331 0,0.0089 -0.08665,0.06443 -0.193302,0.126649 -0.106645,0.05997 -0.251058,0.14442 -0.324381,0.186632 l -0.131093,0.07554 0.01779,-0.108871 c 0.0089,-0.05997 0.02219,-0.126642 0.02885,-0.148857 0.01333,-0.03778 0.431041,-0.297729 0.484367,-0.302173 0.01333,-0.0022 0.04444,0.03332 0.0711,0.07777 z m 3.512708,0.542123 c 0,0.39993 -0.0089,0.622117 -0.02219,0.622117 -0.01333,0 -0.02219,-0.06224 -0.02219,-0.139983 0,-0.07998 -0.01113,-0.151083 -0.02665,-0.166635 -0.01999,-0.01999 -0.157746,-0.02665 -0.484352,-0.02665 h -0.455482 l -0.05111,-0.117753 c -0.02665,-0.06224 -0.04891,-0.126649 -0.04891,-0.137756 0,-0.01999 1.053143,-0.648769 1.095362,-0.653213 0.0089,-0.0022 0.01552,0.277724 0.01552,0.61989 z m -4.534754,1.13091 c 0.02219,0.01333 -0.01106,0.04225 -0.122197,0.106653 -0.264391,0.153301 -0.297721,0.166635 -0.297721,0.111082 0.0022,-0.02219 0.33994,-0.235506 0.377714,-0.237731 0.0066,0 0.02446,0.0089 0.04218,0.01999 z"
       id="anti-air-gun" /></g></svg>
