<svg
   width="17.662104mm"
   height="13.958375mm"
   viewBox="0 0 17.662104 13.958375"
   version="1.1"
   id="svg5"
   xml:space="preserve"
   xmlns="http://www.w3.org/2000/svg"
   xmlns:svg="http://www.w3.org/2000/svg"><defs
     id="defs2" /><g
     id="layer1"
     transform="translate(-16.957633,-40.052214)"><path
       d="m 31.214505,40.177166 c -0.0059,0.0044 -0.01047,1.428506 -0.01047,3.163645 0,2.417236 -0.0044,3.153174 -0.01794,3.153174 -0.0224,0 -0.01494,0.0044 -2.7164,-1.504788 l -2.314026,-1.293876 -0.0044,1.153272 c -0.0029,0.957318 -0.0059,1.154764 -0.02394,1.160754 -0.02394,0.0089 -0.04789,-0.0015 -2.753787,-1.302853 -2.222778,-1.069507 -2.276624,-1.094937 -2.287102,-1.082972 -0.0029,0.0029 0.0029,0.436781 0.01501,0.963301 0.02687,1.295377 0.02687,1.253495 -0.0075,1.244518 -0.01501,-0.0029 -0.894503,-0.526527 -1.95354,-1.162248 -1.059029,-0.635721 -1.938566,-1.159253 -1.953525,-1.162241 -0.02841,-0.0075 -0.02841,0.122652 -0.02841,5.076789 v 5.084265 l -0.04635,0.06282 c -0.02541,0.03595 -0.04488,0.06729 -0.04042,0.07029 0.0029,0.0029 0.07479,0.01648 0.160053,0.02995 0.103211,0.01494 0.37395,0.02841 0.815213,0.03888 0.786803,0.0194 15.296191,0.03595 15.969305,0.01794 l 0.441262,-0.01194 0.01047,-1.189171 c 0.03141,-3.914548 0.04342,-5.82171 0.03441,-5.830679 -0.0044,-0.0044 -0.36348,-0.02687 -0.797266,-0.05089 -0.433787,-0.02248 -0.852614,-0.04635 -0.930396,-0.05235 l -0.142106,-0.01201 -0.0089,-0.508581 c -0.0059,-0.279716 -0.01794,-1.736639 -0.02687,-3.238432 -0.01047,-1.5018 -0.02094,-2.7523 -0.02548,-2.779223 l -0.0075,-0.04789 h -0.670119 c -0.367976,0 -0.674616,0.0044 -0.679104,0.01047 z"
       id="factory"/></g></svg>
