<svg
   width="8.1458817mm"
   height="8.1524277mm"
   viewBox="0 0 8.1458817 8.1524277"
   version="1.1"
   id="svg5"
   xml:space="preserve"
   xmlns="http://www.w3.org/2000/svg"
   xmlns:svg="http://www.w3.org/2000/svg"><defs
     id="defs2" /><g
     id="layer1"
     transform="translate(18.253811,127.59037)"><g
       id="emblem-JA"
       transform="matrix(-0.00414204,0.02537218,-0.0253561,-0.00413942,8.6192472,-105.04083)"><path
         d="m -608.50212,841.29183 c -46.07523,12.96464 -80.8487,42.78107 -100.84335,87.29061 -7.82396,16.85363 -9.99784,28.95226 -9.99784,61.79513 0,38.02813 1.3039,43.64533 14.34421,70.00513 66.07004,133.9605 268.19152,101.9836 291.22896,-45.806 14.34401,-89.88308 -49.9873,-171.12436 -140.39816,-177.60584 -20.4298,-1.30149 -38.25142,0 -54.33382,4.32097 z"
         id="path565-45-4"
         style="fill:#ffffff;fill-opacity:1;stroke-width:0.4334" /><path
         d="m -577.60247,833.48092 c -31.6794,2.68111 -59.2666,13.0175 -83.7847,31.32666 -29.5275,22.04861 -51.0822,54.96278 -59.2667,90.52278 -3.1044,13.54667 -3.8805,20.60222 -3.8805,36.33611 0,13.75833 0.2822,17.25083 2.1166,27.69303 11.5006,65.2992 63.0414,116.84 128.4112,128.4111 8.7488,1.5523 13.4408,1.9756 23.9888,2.1873 20.2495,0.388 35.9834,-1.9403 54.1514,-8.0081 54.1161,-18.0622 94.3328,-64.0997 105.2689,-120.5442 2.0814,-10.6538 2.4695,-15.4516 2.5047,-29.56274 0,-14.00528 -0.2822,-17.81528 -2.1519,-28.04583 -9.5603,-52.88139 -44.8381,-97.11972 -94.1564,-118.11 -13.2292,-5.64445 -28.5044,-9.66611 -43.7444,-11.57111 -4.3392,-0.52917 -25.2236,-0.98778 -29.457,-0.635 z m -29.1041,12.20611 c 0.635,2.8575 23.4597,146.89666 23.3186,147.24944 -0.071,0.21167 -0.9173,0.52917 -1.8698,0.67028 -5.3622,0.77611 -15.6986,4.05694 -21.9427,6.94975 -1.6581,0.7408 -3.1045,1.2347 -3.2456,1.0936 -0.1411,-0.1764 -13.4761,-27.72835 -29.598,-61.24224 l -29.3512,-60.96 1.8698,-1.65805 c 9.0664,-8.14917 21.6958,-16.72167 32.8436,-22.33084 6.7733,-3.38666 15.8397,-7.02028 23.6008,-9.45444 4.057,-1.27 4.1275,-1.30528 4.3745,-0.3175 z m 88.018,1.23472 c 19.4733,6.42056 38.6645,17.4625 53.587,30.86806 l 1.8697,1.65805 -29.3511,60.96 c -16.122,33.51389 -29.457,61.06584 -29.5981,61.24224 -0.1411,0.1411 -1.5875,-0.3528 -3.2455,-1.0936 -6.2442,-2.89281 -16.5806,-6.17364 -21.9428,-6.94975 -0.9525,-0.14111 -1.7992,-0.45861 -1.8697,-0.67028 -0.1412,-0.35278 22.7188,-144.42722 23.3538,-147.24944 0.2117,-1.02306 0.4939,-0.9525 7.1967,1.23472 z m -185.5258,106.89166 c 3.9511,4.05695 15.0636,15.34584 24.6591,25.15306 9.5956,9.80722 21.3431,21.76643 26.1056,26.63473 4.7978,4.8331 10.3011,10.4775 12.2414,12.5236 l 3.563,3.6689 -2.6458,2.8222 c -3.5278,3.7395 -8.643,10.6186 -11.6064,15.5928 -1.7991,2.9986 -2.54,3.9864 -2.9633,3.8453 -0.2822,-0.1411 -10.1953,-5.6445 -22.0486,-12.2414 -11.8181,-6.597 -25.8234,-14.4286 -31.115,-17.3567 -8.7489,-4.8683 -9.5956,-5.4328 -9.772,-6.3853 -0.5644,-2.9986 -0.9877,-14.11107 -0.7761,-20.46107 0.3175,-10.65389 1.4111,-19.75556 3.5631,-29.28056 1.1994,-5.25639 3.0339,-11.81806 3.3161,-11.81806 0.1411,0 3.4925,3.28084 7.4789,7.3025 z m 284.6211,-3.35138 c 3.4572,12.48833 5.1505,23.91833 5.5739,37.32388 0.1764,6.17362 -0.2822,17.35669 -0.8114,20.28469 -0.2117,0.9878 -2.1872,2.152 -31.2914,18.415 -17.1097,9.525 -31.3619,17.4273 -31.6442,17.5684 -0.4233,0.1411 -1.1994,-0.8467 -2.9633,-3.8453 -2.9633,-4.9742 -8.0786,-11.8533 -11.6064,-15.5928 l -2.6458,-2.8222 3.7394,-3.8453 c 4.057,-4.198 32.1734,-32.91415 46.2845,-47.27221 19.2264,-19.57916 23.7772,-24.16528 24.0241,-24.16528 0.1411,0 0.7409,1.79917 1.3406,3.95112 z m -261.0556,121.81417 c 8.6431,1.6581 15.7339,3.0339 15.7692,3.1044 0.035,0.035 -0.035,0.7762 -0.2117,1.6581 -0.7408,4.0217 -1.1289,11.7828 -0.9172,17.9917 0.1058,3.5983 0.247,6.8439 0.3175,7.2319 0.071,0.5997 -0.2117,0.7408 -2.0108,1.0231 l -2.0461,0.3175 -3.8806,-3.8453 c -7.62,-7.5847 -13.4761,-14.7461 -19.8614,-24.3064 -3.7394,-5.6092 -4.3039,-6.7381 -3.2455,-6.35 0.2469,0.1058 7.4789,1.5169 16.0866,3.175 z m 244.2634,-0.9525 c -6.9498,10.9714 -14.1464,20.0378 -22.6131,28.4339 l -3.8805,3.8453 -2.0462,-0.3175 c -1.7638,-0.2823 -2.0813,-0.4234 -2.0108,-1.0231 0.071,-0.388 0.2117,-3.6336 0.3175,-7.2319 0.2117,-6.2089 -0.1764,-13.9348 -0.9172,-17.9917 -0.1764,-0.8819 -0.247,-1.6228 -0.2117,-1.6581 0.035,-0.071 7.1261,-1.4463 15.7692,-3.1044 8.6078,-1.6581 15.8397,-3.0692 16.0161,-3.1397 0.8819,-0.3175 0.7761,0.3175 -0.4233,2.1872 z"
         id="path488"
         style="fill:#e00000;fill-opacity:1;stroke:none;stroke-width:0.0352778" /></g></g></svg>
