<svg
   width="15.734198mm"
   height="13.3527mm"
   viewBox="0 0 15.734198 13.3527"
   version="1.1"
   id="svg5"
   xml:space="preserve"
   xmlns="http://www.w3.org/2000/svg"
   xmlns:svg="http://www.w3.org/2000/svg"><defs
     id="defs2" /><g
     id="layer1"
     transform="translate(-101.43368,-48.428588)"><path
       d="m 109.27724,48.575935 c -0.0795,0.01352 -0.14057,0.105518 -0.14057,0.213739 0,0.08119 -0.008,0.08928 -0.0769,0.08928 -0.053,0 -0.0795,0.01629 -0.0902,0.05415 -0.0133,0.0487 -0.0372,0.05407 -0.23075,0.05407 -0.31562,0 -1.62322,0.156925 -1.66566,0.200213 -0.005,0.0078 -0.003,0.02435 0.008,0.04055 0.0265,0.04601 0.20158,0.03518 1.04767,-0.0649 0.43763,-0.05138 0.80631,-0.0947 0.82223,-0.0947 0.0159,0 0.0265,0.07036 0.0265,0.156916 0,0.15151 -0.003,0.156926 -0.0955,0.208333 -0.24932,0.137975 -0.3289,0.432876 -0.34746,1.304053 -0.0106,0.47347 -0.0238,0.630386 -0.0477,0.630386 -0.14588,0 -1.21741,0.06221 -1.64444,0.0947 -1.50653,0.119044 -2.47463,0.289486 -3.72123,0.652031 -0.98666,0.286782 -1.39777,0.476165 -1.50121,0.684497 -0.17506,0.351715 0.0583,0.660141 0.77182,1.028094 1.12989,0.578979 2.6656,0.887405 4.70259,0.949634 0.65778,0.01898 0.77978,0.02981 0.93362,0.0785 0.37398,0.121747 0.58882,0.351723 0.61534,0.657446 0.008,0.09469 0.0398,0.876584 0.069,1.739642 0.0292,0.863058 0.061,1.696361 0.0717,1.853278 l 0.0159,0.28679 -0.36071,0.05953 c -0.65779,0.110925 -0.98137,0.216443 -1.16969,0.389597 -0.33153,0.294901 -0.37663,0.811651 -0.0902,1.022686 0.26258,0.194799 0.63126,0.259731 1.32353,0.232672 l 0.4668,-0.01898 0.0583,0.18668 c 0.17506,0.551928 0.47742,0.497817 0.6286,-0.116332 l 0.0159,-0.07036 0.44294,0.01897 c 0.80896,0.03249 1.25721,-0.08387 1.43756,-0.378774 0.0717,-0.113628 0.0584,-0.465343 -0.0212,-0.624972 -0.0822,-0.159628 -0.26522,-0.324663 -0.44293,-0.405825 -0.18567,-0.08387 -0.59147,-0.186679 -0.95484,-0.24079 -0.14323,-0.02158 -0.26524,-0.04324 -0.27054,-0.0487 -0.003,-0.0052 0.008,-0.435589 0.0292,-0.955042 0.0212,-0.522165 0.0557,-1.444749 0.0795,-2.056195 0.0318,-0.876592 0.0477,-1.120086 0.0795,-1.168781 0.122,-0.186688 0.38194,-0.338198 0.69225,-0.397715 0.13263,-0.02435 0.45355,-0.04601 0.87263,-0.05407 1.97598,-0.04332 3.69734,-0.416648 4.77419,-1.038916 0.55169,-0.319257 0.72409,-0.557335 0.6127,-0.857651 -0.0849,-0.227265 -0.3289,-0.373359 -0.98402,-0.589801 -0.44029,-0.146103 -1.35004,-0.397716 -1.72667,-0.476174 -0.85936,-0.178561 -2.02904,-0.321952 -3.15362,-0.381478 -0.29176,-0.0162 -0.63922,-0.03518 -0.77184,-0.04324 l -0.244,-0.0162 -0.0106,-0.624971 c -0.0159,-0.852236 -0.0849,-1.133611 -0.32092,-1.287824 -0.0955,-0.0649 -0.0982,-0.07036 -0.0982,-0.224562 0,-0.08656 0.003,-0.156916 0.008,-0.156916 0.005,0 0.37132,0.04324 0.81691,0.09469 0.44294,0.05415 0.85936,0.0947 0.92302,0.08928 0.13261,-0.0078 0.1724,-0.05953 0.069,-0.08656 -0.15915,-0.04055 -1.14316,-0.154222 -1.46409,-0.170451 -0.30502,-0.01352 -0.35011,-0.02158 -0.36072,-0.0649 -0.008,-0.02703 -0.0425,-0.05138 -0.0875,-0.05684 -0.0663,-0.0078 -0.0769,-0.02166 -0.0848,-0.102815 -0.0132,-0.148797 -0.0981,-0.216442 -0.23606,-0.194798 z"
       id="jet-JA" /></g></svg>
