<svg
   width="10.147547mm"
   height="10.624197mm"
   viewBox="0 0 10.147547 10.624197"
   version="1.1"
   id="svg5"
   xml:space="preserve"
   xmlns="http://www.w3.org/2000/svg"
   xmlns:svg="http://www.w3.org/2000/svg"><defs
     id="defs2" /><g
     id="layer1"
     transform="translate(-54.427686,-15.321978)"><path
       d="m 61.308993,17.31049 c 0.021,0.007 0.0442,0.0105 0.0624,0.022 0.0517,0.0324 0.10135,0.068 0.16275,0.10987 -0.004,0.002 -0.0373,0.0392 -0.0684,0.0373 -0.0795,-0.005 -0.1456,-0.0413 -0.16253,-0.14769 -0.005,-0.0142 0.006,-0.0214 0.006,-0.0214 z m -0.63024,0.32609 c -0.0405,-0.0362 -0.0731,-0.0657 -0.10565,-0.0953 0.003,-0.008 0.007,-0.0154 0.0109,-0.0231 0.0695,0.0149 0.13899,0.0298 0.2214,0.0475 -0.0154,0.0422 -0.028,0.0771 -0.0432,0.11883 -0.0292,-0.0159 -0.0523,-0.0286 -0.0835,-0.048 z m 0.71918,0.38203 c -0.0239,0.0361 -0.0658,0.0943 -0.0839,0.0877 -0.0502,-0.0185 -0.0904,-0.0639 -0.13461,-0.0987 0.008,-0.0152 0.0161,-0.0304 0.0242,-0.0456 0.0623,0.0164 0.12471,0.0327 0.19426,0.0566 z m -1.20025,-2.5346 c 0.44462,-0.0612 0.79152,0.36794 0.82349,0.70235 0.004,0.0412 5e-4,0.085 0.0135,0.12319 0.0453,0.13393 0.11515,0.26948 -0.12216,0.29141 -0.0222,0.002 -0.0483,0.1127 -0.048,0.17282 5e-4,0.086 0.0657,0.18365 -0.0988,0.1952 -0.0465,0.004 -0.0876,0.0848 -0.14121,0.14084 0.0358,0.0371 0.0986,0.0983 -0.0606,0.15346 0.12938,0.0429 0.21753,0.0722 0.3057,0.10144 0.005,0.001 0.0116,0.004 0.0129,0.003 0.10263,-0.1238 0.24489,-0.0203 0.36449,-0.0509 -0.0498,-0.19692 -0.005,-0.23952 0.18718,-0.20319 0.0714,0.0135 0.15091,-0.004 0.2179,0.019 0.18067,0.0613 0.35659,0.13664 0.56431,0.21814 -0.0779,0.0785 -0.15129,0.15243 -0.23427,0.23604 0.0535,0.0599 0.11083,0.12412 0.18033,0.20196 0.0501,-0.22036 0.0648,-0.22746 0.24618,-0.15593 0.0425,0.0167 0.0868,0.033 0.13172,0.0388 0.15661,0.0201 0.24061,0.11322 0.28367,0.25854 0.007,0.0243 0.0449,0.0444 0.0727,0.0568 0.0824,0.0366 0.1669,0.0685 0.26228,0.10694 0.0619,-0.0373 0.13839,-0.0888 0.2201,-0.12984 0.0275,-0.0138 0.0788,-0.0139 0.0997,0.004 0.0179,0.0148 0.0175,0.0661 0.009,0.0964 -0.0233,0.0785 -0.0557,0.15436 -0.0901,0.24628 0.23037,0.0904 0.45743,0.18345 0.68799,0.26684 0.0538,0.0195 0.12551,-0.01 0.17878,0.0105 0.19096,0.0722 0.20084,0.13516 0.0519,0.2966 -0.0745,-0.0812 -0.24459,-0.0246 -0.26481,-0.19196 -0.001,-0.01 -0.0409,-0.0142 -0.0625,-0.0215 -0.23818,-0.0817 -0.47781,-0.15938 -0.71357,-0.24749 -0.0733,-0.0274 -0.12775,-0.0318 -0.20099,0.005 -0.0641,0.0322 -0.15695,0.0583 -0.21839,0.0358 -0.27422,-0.1002 -0.54174,-0.21877 -0.82036,-0.33429 -0.0295,0.0867 -0.0627,0.1852 -0.0965,0.28348 -0.0346,0.10049 -0.0704,0.18452 -0.18632,0.23916 -0.0717,0.0338 -0.10118,0.15994 -0.1465,0.24627 -0.0826,0.15733 -0.1633,0.31565 -0.24386,0.47404 -0.0329,0.0647 -0.0692,0.12843 -0.0937,0.19631 -0.0583,0.16148 -0.51429,0.28589 -0.63249,0.16197 -0.0787,-0.0825 -0.13646,-0.1852 -0.20259,-0.27955 -0.0306,-0.0437 -0.0589,-0.0892 -0.10555,-0.16004 -0.0855,0.22063 -0.16513,0.41229 -0.23415,0.6077 -0.0895,0.25334 -0.21266,0.31476 -0.46772,0.2391 -0.0711,-0.0211 -0.15383,-0.003 -0.27834,-0.003 0.0543,0.12332 0.10076,0.19953 0.12166,0.28221 0.0535,0.21184 0.23953,0.30701 0.37795,0.44161 0.18066,0.17569 0.30264,0.38666 0.40627,0.61048 0.0778,0.16805 0.0682,0.34051 -0.007,0.50784 -0.13498,0.30112 -0.27257,0.60107 -0.40956,0.90129 -0.0573,0.12557 -0.13911,0.22289 -0.2775,0.26925 -0.0481,0.0161 -0.0881,0.0618 -0.12694,0.0991 -0.11553,0.11065 -0.22883,0.22363 -0.34252,0.33619 -0.0149,0.0148 -0.0322,0.0305 -0.0398,0.0491 -0.0466,0.11402 -0.0898,0.22937 -0.13571,0.34367 -0.11616,0.28929 0.0183,0.55937 0.31858,0.63864 0.19175,0.0506 0.31337,0.23918 0.27008,0.4316 -0.006,0.0289 -0.0527,0.0667 -0.0834,0.0696 -0.41462,0.0398 -0.8251,0.0701 -1.18672,-0.2144 -0.097,-0.0763 -0.24054,-0.0902 -0.35437,-0.14893 -0.34094,-0.17594 -0.31863,-0.23943 -0.12022,-0.46179 0.26253,-0.29424 0.39345,-0.66661 0.6004,-0.99363 0.0113,-0.0179 0.0123,-0.0429 0.0159,-0.065 10e-4,-0.008 -0.007,-0.019 -0.005,-0.0267 0.0842,-0.27332 0.0929,-0.57386 0.32477,-0.79211 0.0927,-0.0873 0.15263,-0.21103 0.22036,-0.32251 0.0442,-0.0727 0.0756,-0.15326 0.11438,-0.23372 -0.13215,-0.0373 -0.26651,-0.0752 -0.44112,-0.12444 -0.21683,0.47964 -0.44366,0.96335 -0.65378,1.45421 -0.0971,0.22676 -0.23735,0.39235 -0.43633,0.54531 -0.33298,0.25597 -0.76307,0.37594 -1.02117,0.73525 -0.055,0.0765 -0.13116,0.13962 -0.20486,0.20002 -0.0331,0.0271 -0.094,0.0561 -0.12516,0.0431 -0.10764,-0.0448 -0.16172,0.0109 -0.21332,0.0866 -0.0871,0.12783 -0.20603,0.24817 -0.18195,0.41674 0.0183,0.12865 0.11246,0.20634 0.24509,0.22529 0.0591,0.008 0.11908,0.0103 0.17826,0.0182 0.0949,0.0127 0.14721,0.0684 0.15351,0.16407 0.007,0.10451 -0.0684,0.13404 -0.14839,0.14669 -0.30875,0.0488 -0.59923,0.0311 -0.86096,-0.17938 -0.19894,-0.16003 -0.4205,-0.29193 -0.65895,-0.45475 0.13515,-0.15614 0.24782,-0.29718 0.37256,-0.42658 0.0824,-0.0855 0.18596,-0.15023 0.27314,-0.23165 0.0899,-0.0839 0.15863,-0.16975 0.14202,-0.31755 -0.0192,-0.17034 0.13236,-0.26127 0.24488,-0.35954 0.16608,-0.14505 0.33354,-0.28913 0.50807,-0.4237 0.17386,-0.13405 0.23902,-0.33704 0.34487,-0.51355 0.0527,-0.0879 0.0876,-0.1748 0.20418,-0.203 0.0441,-0.0107 0.0878,-0.0747 0.10696,-0.12397 0.0312,-0.0804 0.061,-0.1692 0.0584,-0.25346 -0.0116,-0.38422 0.14218,-0.72578 0.26121,-1.0767 0.0226,-0.0665 0.0326,-0.12151 -0.0247,-0.18591 -0.0494,-0.0555 -0.0867,-0.13435 -0.0992,-0.20799 -0.0527,-0.31108 -0.15833,-0.62557 0.0386,-0.92757 -0.0342,-0.0233 -0.0507,-0.0391 -0.0705,-0.0474 -0.24254,-0.10216 -0.24584,-0.10417 -0.09,-0.32068 0.0912,-0.12667 0.19245,-0.24631 0.29301,-0.3659 0.0576,-0.0685 0.0849,-0.13726 0.0468,-0.22492 -0.0768,-0.17666 -0.0217,-0.3321 0.0849,-0.47604 0.22641,-0.30581 0.45453,-0.61034 0.68121,-0.91594 0.0128,-0.0173 0.0272,-0.0396 0.027,-0.0595 -0.002,-0.24958 0.14338,-0.41427 0.33259,-0.53796 0.14777,-0.0966 0.30968,-0.18041 0.47671,-0.23508 0.0876,-0.0287 0.20032,0.0142 0.30062,0.0311 0.053,0.009 0.11015,0.0544 0.15391,0.0422 0.0585,-0.0163 0.1146,-0.0658 0.15294,-0.1156 0.013,-0.0169 -0.0194,-0.0937 -0.0505,-0.11559 -0.1158,-0.0814 -0.15167,-0.16259 -0.0685,-0.29597 0.054,-0.0867 0.0608,-0.20158 0.10766,-0.29423 0.14727,-0.29091 0.36711,-0.47926 0.72837,-0.46718 m 1.09796,1.8077 c -0.0179,-2e-5 -0.0358,-6e-5 -0.0537,-1.2e-4 0.0183,0.0129 0.0366,0.0259 0.0661,0.0546 0.0122,0.0921 0.0782,0.12854 0.15772,0.13345 0.0312,0.002 0.0648,-0.0351 0.0684,-0.0373 -0.0614,-0.0418 -0.11105,-0.0775 -0.16275,-0.10987 -0.0182,-0.0115 -0.0414,-0.0149 -0.0757,-0.0408 m -0.19306,0.94333 c -0.0489,0.0207 -0.0977,0.0414 -0.16131,0.0683 0.01,0.0868 0.0223,0.19296 0.0357,0.30885 0.12448,-0.14693 0.23964,-0.28287 0.37341,-0.44077 -0.0482,0.0152 -0.0857,0.0287 -0.12414,0.0387 -0.0332,0.009 -0.0674,0.0133 -0.12367,0.0249 m 0.28817,-0.22402 c -0.0624,-0.0163 -0.12471,-0.0327 -0.18707,-0.049 -0.008,0.0152 -0.0162,0.0304 -0.0242,0.0456 0.0442,0.0348 0.0844,0.0802 0.13461,0.0987 0.0181,0.007 0.06,-0.0515 0.0767,-0.0952 m -0.70399,-0.36781 c 0.0231,0.0127 0.0463,0.0254 0.0755,0.0413 0.0152,-0.0418 0.0279,-0.0766 0.0432,-0.11883 -0.0824,-0.0177 -0.15191,-0.0326 -0.2214,-0.0475 -0.003,0.008 -0.007,0.0153 -0.0109,0.023 0.0326,0.0296 0.0651,0.0591 0.11366,0.10194 z"
       id="soldier-JA" /></g></svg>
