<svg
   width="56.508888mm"
   height="11.19748mm"
   viewBox="0 0 56.508888 11.19748"
   version="1.1"
   id="svg5"
   xml:space="preserve"
   xmlns="http://www.w3.org/2000/svg"
   xmlns:svg="http://www.w3.org/2000/svg"><defs
     id="defs2" /><g
     id="layer1"
     transform="translate(-6.9144488,-86.069965)"><path
       d="m 33.880534,86.192816 c -0.196586,0.07314 -0.218965,0.464788 -0.03377,0.569676 0.304199,0.162997 0.0819,0.295706 -0.54923,0.325765 -0.539161,0.01733 -0.591657,0.0297 -0.236162,0.06166 0.250274,0.03308 0.54048,0.113182 0.646418,0.183285 0.158917,0.105158 0.172075,0.105026 0.09195,-0.01276 -0.0533,-0.07063 -0.04085,-0.141921 0.03801,-0.142715 0.07892,-7.92e-4 0.136777,0.520515 0.145236,1.362565 0.01251,1.245286 -0.06296,1.590017 -0.303291,1.236595 -0.06647,-0.0705 -0.171236,-0.02197 -0.288063,0.133369 -0.168732,0.227057 -0.286869,0.251963 -0.760866,0.209286 -0.474117,-0.05452 -0.631604,-0.01735 -1.023466,0.259362 -0.457271,0.312978 -0.625164,0.623055 -0.34895,0.620279 0.07892,-7.92e-4 0.133446,0.188438 0.13571,0.413777 0.0046,0.45067 -0.08695,0.510898 -0.313306,0.240365 -0.119924,-0.152991 -0.172301,-0.128745 -0.301333,0.12164 -0.15474,0.309944 -0.06219,0.356454 0.489771,0.30347 0.157606,-0.02533 0.157846,-0.0015 0.01401,0.08288 -0.117541,0.08422 -0.130105,0.143639 -0.02436,0.190023 0.172063,0.10502 0.202782,0.54357 0.03174,0.545288 -0.06576,6.62e-4 -0.158552,-0.06957 -0.185696,-0.152329 -0.04014,-0.07076 -0.07917,-0.02296 -0.07774,0.119394 -0.0109,0.22547 -0.08931,0.273704 -0.405007,0.276875 l -0.394595,0.004 -0.01549,-1.541782 c -0.01394,-1.387603 0.01084,-1.542048 0.221149,-1.556025 0.184143,-0.0019 0.183903,-0.02561 -0.04057,-0.106341 -0.250988,-0.104227 -0.250988,-0.104227 0.03759,-0.190155 0.327994,-0.08633 0.340795,-0.122036 0.138371,-0.630027 -0.13499,-0.342618 -0.20112,-0.377536 -0.502929,-0.303338 -0.446145,0.111237 -0.433105,0.09925 -0.271574,0.465313 0.215583,0.50786 0.164518,0.662568 -0.190622,0.666135 -0.210466,0.0021 -0.32812,0.07447 -0.327048,0.181201 9.84e-4,0.09489 0.06755,0.177236 0.133315,0.176576 0.07892,-7.93e-4 0.130944,-0.0606 0.13023,-0.131777 -9.83e-4,-0.09488 0.0648,-0.09554 0.197413,0.0099 0.132613,0.105418 0.200995,0.365675 0.20588,0.851925 0.0064,0.628573 -0.01923,0.699996 -0.191581,0.571258 -0.106064,-0.08197 -0.213076,-0.258803 -0.214505,-0.401122 -0.01532,-0.213344 -0.02859,-0.225073 -0.07916,-0.02296 -0.03831,0.118997 0.05628,0.367129 0.216053,0.555302 0.306224,0.364616 0.360984,0.577571 0.150525,0.579685 -0.06576,6.61e-4 -0.13213,-0.05796 -0.132726,-0.117279 -7.15e-4,-0.07116 -0.07951,-0.05849 -0.18391,0.02561 -0.156528,0.132047 -0.156171,0.167627 0.0025,0.249061 0.105707,0.04638 0.185936,0.176041 0.18677,0.259062 0.0014,0.142318 -0.208666,0.180011 -0.91895,0.187147 -0.73659,0.0075 -0.92038,0.04484 -0.918951,0.187154 0.0014,0.14231 -0.234971,0.180267 -1.392465,0.191896 -0.986498,0.01 -1.355153,-0.02198 -1.290346,-0.117506 0.142548,-0.21493 -0.22706,-0.341693 -0.963655,-0.334293 -0.618201,0.0062 -0.723788,-0.02832 -0.990073,-0.345883 -0.399606,-0.494148 -0.649164,-0.456057 -0.60434,0.07724 0.02979,0.343675 0.109757,0.44962 0.439904,0.57678 0.369846,0.150472 0.330383,0.150869 -0.682307,0.172905 -0.736469,0.01931 -1.092093,-0.02463 -1.13262,-0.130954 -0.05366,-0.106209 -0.07999,-0.105946 -0.07893,7.93e-4 -0.01198,0.118726 -0.945499,0.163687 -4.22069,0.19659 -4.117002,0.04136 -4.20908,0.04229 -4.211461,-0.194909 -0.0013,-0.130457 -0.05497,-0.236673 -0.133919,-0.23588 -0.06576,6.61e-4 -0.130461,0.108067 -0.129269,0.226661 0.0021,0.213476 -0.129265,0.226659 -1.970627,0.257021 -1.6965455,0.04079 -1.9729965,0.01982 -1.9746655,-0.146215 -0.0023,-0.225345 -0.09434,-0.224419 -0.328954,-0.0086 -0.104379,0.08407 -0.432141,0.19412 -0.74734,0.244731 -0.420311,0.06351 -0.511913,0.111886 -0.366393,0.193453 0.105826,0.05822 0.303723,0.115561 0.435256,0.11424 0.21046,-0.0021 0.237718,0.09251 0.219516,0.899232 -0.01751,0.8779 -0.01728,0.901618 0.379483,1.11113 0.568696,0.302677 0.64929,0.467926 0.254688,0.471889 -0.302529,0.003 -0.341516,0.05087 -0.337823,0.418528 l 0.0041,0.415097 26.0436855,-0.261636 c 14.324052,-0.143959 26.043465,-0.285444 26.043234,-0.309129 -0.0033,-0.367657 0.315247,-1.355327 0.50993,-1.618227 0.259727,-0.33472 1.672906,-1.084302 2.08066,-1.088399 0.118379,-0.0012 0.314852,-0.08618 0.445551,-0.170528 0.535477,-0.384935 -0.03056,-0.426696 -5.423836,-0.408098 -4.498693,0.02144 -5.301409,-0.006 -5.408066,-0.147304 -0.09326,-0.117676 -0.132843,-0.129141 -0.131893,-0.03428 8.98e-4,0.118593 -0.59035,0.160119 -2.484438,0.179147 -2.091384,0.02101 -2.499384,0.0013 -2.566692,-0.152123 -0.05379,-0.118073 -0.264861,-0.175261 -0.685761,-0.171033 -0.48668,0.0049 -0.658266,-0.05268 -0.871108,-0.287776 -0.146354,-0.164581 -0.305265,-0.26974 -0.357522,-0.233631 -0.196228,0.108726 0.01942,0.62844 0.296885,0.744265 0.237829,0.10436 0.132837,0.129134 -0.524826,0.135742 -0.670708,0.01865 -0.815752,-0.01549 -0.870035,-0.181031 -0.05462,-0.201087 -0.06778,-0.200954 -0.07903,-0.01105 -0.01115,0.201738 -0.247779,0.21598 -2.931068,0.242936 -1.617864,0.01625 -3.170556,-0.02743 -3.46053,-0.08385 -0.369006,-0.06746 -0.553156,-0.06562 -0.61785,0.0418 -0.0648,0.09554 -0.104747,0.0485 -0.106534,-0.129393 -0.0014,-0.142324 -0.05521,-0.260396 -0.134162,-0.259602 -0.06576,6.61e-4 -0.133195,-0.164715 -0.135101,-0.354473 -0.0024,-0.2372 0.06219,-0.356456 0.19372,-0.357776 0.144686,-0.0015 0.195991,-0.132445 0.192536,-0.476377 -0.0027,-0.272779 0.061,-0.475055 0.139926,-0.475848 0.210446,-0.0021 0.04473,-0.783281 -0.207435,-1.006109 -0.106175,-0.09382 -0.317463,-0.174726 -0.46215,-0.173273 -0.157844,0.0015 -0.276934,-0.06839 -0.278006,-0.175122 -9.83e-4,-0.09488 -0.05438,-0.177375 -0.133328,-0.176581 -0.06576,6.6e-4 -0.130575,0.0962 -0.129502,0.202943 0.0015,0.154179 -0.03777,0.166436 -0.157248,0.06086 -0.0929,-0.08209 -0.317107,-0.139147 -0.514408,-0.137164 -0.302525,0.003 -0.368894,-0.05557 -0.438234,-0.41073 -0.05486,-0.224811 -0.148856,-0.413645 -0.214624,-0.412984 -0.06576,6.61e-4 -0.155938,0.191345 -0.206282,0.417212 -0.149736,0.808057 -0.298474,0.406274 -0.311937,-0.933894 l -0.02686,-1.363753 0.433581,-0.0518 0.420437,-0.05166 -0.421032,-0.0076 c -0.421138,-0.01952 -0.567379,-0.172223 -0.305747,-0.317175 0.353127,-0.20519 0.03252,-0.688277 -0.360852,-0.565713 z M 8.1892025,94.030138 c 0.277174,0.09211 0.280987,0.471619 0.0057,0.569277 -0.301452,0.109771 -0.314731,0.09805 -0.318543,-0.281472 -0.0038,-0.379511 0.0092,-0.391505 0.312823,-0.287805 z"
       id="aircraft-carrier-1" /></g></svg>
