<svg
   width="16.47897mm"
   height="16.479572mm"
   viewBox="0 0 16.47897 16.479572"
   version="1.1"
   id="svg5"
   xml:space="preserve"
   xmlns="http://www.w3.org/2000/svg"
   xmlns:svg="http://www.w3.org/2000/svg"><defs
     id="defs2" /><g
     id="layer1"
     transform="translate(-151.31619,-52.688533)"><g
       transform="matrix(0.00340218,0,0,-0.003404,149.78682,69.906105)"
       fill="#000000"
       stroke="none"
       id="emblem-SU"><path
         d="M 2231.4733,319.18441 C 1532.4808,517.01375 1004.9464,972.0117 701.61241,1651.2161 582.91835,1908.3925 549.9415,2093.0331 549.9415,2594.1964 c 0,580.2905 19.78725,666.0158 217.60874,1068.2575 C 1769.8776,5706.6675 4836.1903,5218.6928 5185.6828,2963.4691 5403.2914,1591.869 4427.343,352.16125 3055.7517,253.24659 c -309.9335,-19.78727 -580.2985,0 -824.2784,65.93782 z"
         id="path565-45"
         style="fill:#b20a0a;fill-opacity:1;stroke-width:6.59423"
         transform="translate(-3.7292075e-5,3.7292077e-5)" /><path
         id="path514"
         d="m 2813.3061,4295.1531 -57,-171 h -195 c -117,0 -193,-4 -191,-9 2,-6 67,-58 146,-116 78,-58 142,-112 142,-118 -1,-7 -25,-95 -55,-197 -29,-102 -52,-187 -50,-189 2,-2 72,44 154,102 83,59 160,111 171,117 17,9 38,-3 147,-82 71,-50 141,-103 158,-116 16,-14 31,-20 33,-13 2,5 -20,92 -48,191 -28,100 -49,187 -47,194 3,7 66,58 141,114 75,57 136,107 136,112 0,6 -86,11 -207,12 l -207,3 -51,162 c -28,89 -54,165 -57,168 -3,4 -32,-71 -63,-164 z m -185,738 c -733,-80 -1367,-466 -1772.99997,-1079 -86,-130 -214,-390 -261,-530 -89,-265 -127,-497 -127,-785 0,-390 74,-714 240,-1051 C 1046.3061,899.15307 1654.3061,430.15307 2403.3061,279.15307 c 318,-64 686,-59 1005,15 609,141 1132,507 1485,1040.00003 70,107 195,357 238,479 261,731 164,1534 -263,2166 -378,560 -969,934 -1645,1041 -120,18 -474,27 -595,13 z m 291,-401 c 17,-57 37,-121 44,-143 7,-22 29,-95 50,-162 l 38,-123 309,-2 309,-3 -182,-135 c -101,-74 -204,-152 -230,-172 l -47,-37 84,-287 c 45,-159 81,-290 79,-292 -2,-3 -55,31 -117,75 -207,146 -352,245 -365,250 -7,3 -121,-70 -252,-161 -132,-91 -243,-166 -247,-166 -3,0 -3,8 1,18 4,9 40,134 81,277 41,143 77,265 79,272 4,11 -85,76 -375,273 l -110,75 132,6 c 73,4 212,7 309,8 l 176,1 72,198 c 107,292 122,332 126,332 2,0 18,-46 36,-102 z m -1031,-1032 c 0,-15 -228,-301 -276,-347 -61,-57 -112,-95 -119,-88 -2,3 7,41 21,86 26,86 79,177 134,230 51,50 240,143 240,119 z m 2055,-40 c 92,-44 143,-90 193,-173 41,-70 86,-191 80,-218 -5,-24 -155,110 -218,195 -30,41 -62,84 -70,97 -8,12 -37,50 -64,84 -49,62 -50,62 -20,55 16,-4 61,-22 99,-40 z m -2419,-171 c -37,-48 -55,-97 -82,-230 -9,-44 -24,-98 -33,-120 -41,-91 -34,-102 16,-25 20,29 82,90 157,152 69,57 130,115 137,131 13,30 29,36 29,10 0,-29 -87,-196 -125,-241 -20,-23 -69,-67 -109,-97 -68,-51 -145,-127 -174,-171 -10,-16 -12,-9 -10,46 1,36 -2,103 -6,150 -14,153 25,278 115,371 42,43 107,84 117,74 2,-2 -13,-24 -32,-50 z m 2683,31 c 32,-17 98,-86 128,-136 44,-72 53,-132 50,-322 -1,-98 -4,-178 -7,-178 -3,0 -15,18 -28,40 -12,22 -55,66 -94,97 -138,111 -202,182 -246,274 -43,91 -55,129 -41,129 5,0 15,-13 23,-28 8,-16 59,-65 113,-109 119,-98 158,-136 192,-187 34,-51 38,-32 8,41 -14,32 -34,105 -46,162 -20,97 -37,139 -87,209 -19,26 -6,29 35,8 z m -1227,-240 c 349,-143 579,-366 668,-651 31,-100 38,-282 16,-395 -19,-95 -69,-211 -118,-273 l -32,-40 70,-66 c 68,-63 94,-97 94,-121 0,-6 -19,-31 -41,-55 -61,-67 -75,-63 -178,47 l -87,91 -79,-28 c -107,-38 -277,-46 -387,-20 -147,36 -290,106 -425,207 -43,32 -84,58 -90,58 -9,0 -12,-15 -10,-47 l 2,-48 -40,-5 c -22,-3 -45,-9 -52,-13 -6,-4 -28,-41 -49,-83 -44,-89 -121,-178 -168,-194 -113,-37 -127,104 -19,201 22,20 73,56 112,79 l 72,42 -6,39 c -8,49 6,69 50,69 26,0 38,8 59,35 15,19 31,35 37,35 5,0 51,-20 102,-44 176,-85 353,-129 512,-128 94,1 180,20 180,39 0,7 -88,103 -195,215 -107,112 -244,255 -305,319 -60,64 -117,117 -126,118 -9,0 -53,-38 -99,-85 l -83,-86 -81,81 -81,82 60,56 c 33,31 119,114 192,184 73,71 136,129 141,129 13,0 213,-40 231,-46 10,-3 -18,-38 -87,-107 -56,-56 -102,-107 -102,-114 0,-9 123,-129 405,-393 38,-36 116,-110 172,-164 118,-114 108,-114 163,-1 46,93 64,190 57,314 -10,192 -86,354 -253,540 -39,44 -199,178 -260,219 -10,7 -32,21 -49,32 -49,32 -7,23 107,-24 z m -1693,-18 c -17,-39 -18,-229 -3,-329 6,-38 7,-104 2,-159 -4,-52 -6,-96 -4,-98 2,-2 13,28 25,65 12,37 27,78 34,90 17,31 239,254 245,248 3,-3 -4,-36 -16,-73 -19,-60 -116,-228 -213,-368 -17,-25 -41,-74 -53,-110 l -22,-65 -36,103 c -19,57 -46,130 -59,163 -21,52 -24,76 -24,185 1,147 23,233 87,332 41,63 60,72 37,16 z m 3200,-57 c 42,-79 60,-166 62,-296 1,-109 1,-112 -49,-245 -27,-74 -54,-148 -59,-165 l -10,-30 -17,39 c -9,21 -16,44 -16,51 0,6 -43,78 -95,158 -120,185 -166,274 -172,334 l -5,48 29,-40 c 17,-22 69,-77 117,-122 90,-85 130,-148 142,-225 4,-21 10,-38 15,-38 5,0 5,15 2,33 -12,53 -9,226 5,322 12,87 8,167 -14,245 -7,25 -7,25 13,7 12,-10 35,-44 52,-76 z m -3360,-473 c 0,-21 34,-122 75,-225 41,-104 77,-212 81,-240 10,-77 29,-68 21,10 -9,94 2,125 138,392 14,28 28,63 31,79 12,60 21,5 13,-81 -10,-109 -34,-222 -82,-383 -34,-112 -37,-133 -33,-207 5,-88 -7,-109 -31,-55 -6,15 -48,73 -92,127 -94,118 -111,150 -144,273 -36,134 -41,211 -21,307 9,44 20,84 23,90 8,12 19,-36 21,-87 z m 3495,27 c 29,-116 21,-224 -32,-394 -20,-68 -37,-99 -89,-165 -35,-45 -82,-109 -106,-143 -23,-35 -45,-63 -49,-63 -5,0 -8,44 -8,97 0,84 -5,114 -39,227 -45,149 -67,259 -77,377 -5,55 -4,80 3,76 6,-4 13,-21 17,-39 3,-18 31,-76 62,-130 78,-137 103,-213 105,-318 l 1,-85 23,90 c 12,50 51,158 85,240 50,121 63,163 67,222 3,40 9,73 13,73 4,0 15,-29 24,-65 z m -3124,-482 c 24,-98 49,-252 55,-348 10,-149 23,-213 58,-282 17,-34 28,-65 25,-68 -11,-11 -280,181 -365,259 -95,89 -134,144 -162,229 -26,79 -42,188 -32,224 l 7,28 7,-35 c 11,-50 59,-118 185,-256 60,-67 129,-151 152,-188 23,-37 44,-65 46,-63 2,1 -8,32 -23,67 -23,58 -25,73 -21,165 6,109 39,326 49,319 4,-2 12,-25 19,-51 z m 2761,-69 c 11,-65 21,-164 22,-219 1,-89 -1,-106 -25,-157 -15,-32 -24,-58 -20,-58 4,0 24,28 44,63 21,34 78,107 128,161 50,55 108,120 128,145 20,25 42,52 49,58 6,7 19,35 28,63 9,27 19,50 22,50 12,0 -6,-159 -26,-225 -33,-114 -92,-194 -215,-294 -95,-77 -314,-226 -321,-219 -4,3 10,38 29,76 30,61 37,86 46,184 16,163 38,326 54,389 7,30 17,67 20,83 4,15 9,26 11,24 3,-2 14,-58 26,-124 z m -2620,-267 c 64,-91 126,-218 168,-338 50,-147 72,-190 127,-249 24,-26 44,-49 44,-52 0,-2 -48,5 -107,17 -60,12 -137,27 -173,34 -123,24 -304,142 -403,263 -43,52 -86,142 -94,195 l -5,38 32,-47 c 52,-77 126,-136 252,-199 139,-70 238,-129 292,-175 67,-58 63,-38 -8,35 -36,38 -73,85 -81,105 -8,20 -27,102 -40,183 -25,143 -35,189 -50,226 -14,35 11,15 46,-36 z m 2470,11 c -6,-19 -24,-109 -40,-201 -32,-188 -53,-233 -139,-307 -64,-54 -47,-61 19,-8 63,51 98,72 274,163 150,78 199,115 251,190 20,30 39,53 42,51 5,-6 -25,-100 -46,-141 -68,-139 -294,-314 -444,-344 -151,-31 -263,-51 -281,-51 -16,0 -12,7 21,39 57,55 86,111 141,263 55,154 74,193 148,307 55,85 74,98 54,39 z m -2181,-384 c 30,-25 104,-92 164,-148 132,-124 187,-159 277,-181 38,-9 69,-21 69,-26 0,-5 -2,-9 -5,-9 -3,0 -96,-18 -206,-40 -294,-58 -386,-54 -541,27 -77,40 -147,98 -190,157 -42,59 -35,73 15,32 90,-74 201,-106 417,-121 52,-3 135,-13 184,-21 95,-15 127,-12 55,5 -72,18 -132,55 -171,107 -29,37 -133,222 -157,277 -6,16 33,-10 89,-59 z m 1950,57 c 0,-6 -5,-13 -10,-16 -6,-4 -32,-50 -59,-103 -87,-174 -145,-231 -260,-262 -58,-15 -45,-25 16,-11 26,6 121,18 209,26 260,24 319,40 422,116 59,45 65,40 24,-17 -47,-64 -85,-100 -150,-142 -89,-58 -170,-83 -282,-89 -84,-5 -118,0 -300,37 -113,23 -207,44 -209,46 -9,8 8,15 79,35 90,25 137,56 270,183 113,107 229,206 242,206 4,0 8,-4 8,-9 z m -1075,-416 c 49,-18 77,-19 94,-2 8,8 44,11 114,10 121,-2 246,-31 399,-94 57,-23 127,-50.00003 157,-60.00003 99,-34 253,-19 338,32 53,33.00003 48,3 -8,-41 -123,-97 -202,-125 -338,-117 -122,6 -194,35 -374,148 -125,80.00003 -134,83.00003 -197,87.00003 -61,3 -64,2 -45,-13 11,-9 43,-28 70,-42 77,-39.00003 132,-80.00003 223,-161.00003 l 83,-75 -27,-28 c -15,-16 -32,-29 -37,-29 -6,0 -65,53 -131,118 -130,125 -218,186.00003 -270,186.00003 -49,0 -166,-83.00003 -284,-201.00003 -57,-57 -106,-103 -108,-103 -12,0 -64,45 -64,55 0,23 200,182 289,231.00003 50,27 91,52 91,57 0,13 -101,7 -131,-8 -16,-9 -69,-41 -117,-72.00003 -189,-122 -288,-157 -427,-151 -82,3 -101,8 -166,41 -80,39 -168,104 -169,125.00003 0,9 11,7 38,-6.00003 133,-67 259,-69 407,-7 276,116.00003 484,158.00003 590,120.00003 z"
         style="stroke:#fec100;stroke-width:35.5621;stroke-dasharray:none;stroke-opacity:1" /></g></g></svg>
