<svg
   width="15.744142mm"
   height="13.344815mm"
   viewBox="0 0 15.744142 13.344815"
   version="1.1"
   id="svg5"
   xml:space="preserve"
   xmlns="http://www.w3.org/2000/svg"
   xmlns:svg="http://www.w3.org/2000/svg"><defs
     id="defs2" /><g
     id="layer1"
     transform="translate(-118.27917,-32.217027)"><path
       d="m 126.01722,32.393051 c -0.0353,0.02435 -0.0761,0.09212 -0.0924,0.149014 l -0.0326,0.108369 h -0.2337 c -0.47827,0 -1.41579,0.03518 -1.41579,0.05415 0,0.01083 0.0706,0.05147 0.15761,0.0894 0.16848,0.07581 0.19294,0.07581 1.24188,0.0026 l 0.27174,-0.01898 -0.11685,0.127336 c -0.27989,0.303435 -0.35599,0.707103 -0.37773,2.01295 l -0.0163,0.896746 -0.14945,0.07313 c -0.30164,0.149006 -0.64948,0.189652 -3.15769,0.365743 -0.63589,0.04332 -1.64406,0.111081 -2.2419,0.149006 -0.59784,0.03795 -1.13046,0.08127 -1.18752,0.09754 -0.22283,0.05693 -0.28262,0.195059 -0.23643,0.558098 0.0326,0.270917 0.14675,0.728773 0.20381,0.815472 0.0951,0.14359 0.13044,0.151717 3.22019,0.736909 1.02448,0.192355 2.08971,0.395541 2.36418,0.447017 0.27447,0.05415 0.62774,0.12192 0.78263,0.151718 0.15762,0.02981 0.31794,0.07313 0.36143,0.09482 0.14945,0.07582 0.16033,0.12192 0.1875,0.761292 0.0136,0.325106 0.0489,1.045752 0.0788,1.598434 0.0706,1.322101 0.0706,1.330229 -0.005,1.349187 -0.30707,0.06776 -0.72556,0.124623 -1.28535,0.1761 -0.76361,0.06776 -0.9946,0.113793 -1.03264,0.211322 -0.008,0.02443 -0.008,0.208609 0.003,0.409095 0.0217,0.411795 0.0435,0.457857 0.24457,0.514749 0.0598,0.0162 0.54078,0.07859 1.07068,0.138166 0.5299,0.05961 0.98915,0.124632 1.02176,0.14359 0.2174,0.127335 0.21468,0.124623 0.2636,0.354912 0.125,0.60415 0.33696,0.623117 0.48099,0.04064 0.0516,-0.219449 0.0734,-0.265502 0.15489,-0.333233 0.10055,-0.08396 0.14946,-0.09211 1.51634,-0.246543 0.62229,-0.06776 0.83698,-0.1192 0.88317,-0.205898 0.0163,-0.02703 0.0353,-0.227577 0.0462,-0.441602 l 0.0163,-0.390128 -0.0652,-0.04064 c -0.0897,-0.05693 -0.29077,-0.0894 -0.96742,-0.154421 -0.7174,-0.06776 -1.31253,-0.154421 -1.356,-0.197779 -0.005,-0.0052 0.0191,-0.587895 0.0543,-1.294999 0.038,-0.707103 0.0761,-1.495489 0.087,-1.752863 0.0217,-0.509333 0.0353,-0.558098 0.19567,-0.639372 0.10597,-0.05147 0.29075,-0.0894 3.04898,-0.612278 3.45116,-0.652923 3.38051,-0.63938 3.52725,-0.715239 0.0407,-0.02166 0.0951,-0.0623 0.12229,-0.09211 0.0679,-0.07313 0.20652,-0.647499 0.22555,-0.926543 0.0163,-0.211322 0.0109,-0.238416 -0.049,-0.325106 -0.0435,-0.0623 -0.10054,-0.105665 -0.17119,-0.127336 -0.0598,-0.01898 -0.60328,-0.06498 -1.20927,-0.102953 -2.4756,-0.157133 -4.60066,-0.316978 -4.90501,-0.368454 -0.20653,-0.03518 -0.46467,-0.116496 -0.5761,-0.186931 l -0.0897,-0.05415 v -0.810057 c 0,-1.316677 -0.11142,-1.888317 -0.41305,-2.126733 -0.1087,-0.08396 -0.17392,-0.08128 0.6549,-0.03249 0.64133,0.03795 0.71197,0.03249 0.87231,-0.07044 l 0.0951,-0.0623 -0.44839,-0.01629 c -0.24729,-0.0078 -0.62773,-0.01898 -0.84784,-0.02166 l -0.40219,-0.0026 v -0.07044 c 0,-0.09483 -0.13587,-0.227576 -0.23641,-0.227576 -0.0435,0 -0.10327,0.01897 -0.13588,0.04064 z"
       id="jet-SU" /></g></svg>
