<svg
   width="8.998085mm"
   height="10.625566mm"
   viewBox="0 0 8.998085 10.625566"
   version="1.1"
   id="svg5"
   xml:space="preserve"
   xmlns="http://www.w3.org/2000/svg"
   xmlns:svg="http://www.w3.org/2000/svg"><defs
     id="defs2" /><g
     id="layer1"
     transform="translate(-65.435578,-15.469234)"><path
       d="m 70.915213,18.0225 c -0.0481,-0.0487 -0.086,-0.0909 -0.13303,-0.1432 0.21184,-0.0391 0.2964,0.0256 0.28191,0.2093 -0.0496,-0.0213 -0.0942,-0.0404 -0.14888,-0.0661 z m -3.10443,6.44337 c -0.14261,0.22946 -0.35951,0.32596 -0.59913,0.36576 -0.12017,0.0199 -0.12623,0.0627 -0.0794,0.14834 0.079,0.14456 0.17519,0.26096 0.36789,0.23725 0.0515,-0.006 0.12224,0.005 0.15759,0.0368 0.0657,0.0598 0.1463,0.13753 0.15433,0.2147 0.006,0.0537 -0.0886,0.14173 -0.1573,0.17508 -0.32184,0.15625 -0.7672,0.0508 -1.00998,-0.20336 -0.11274,-0.0102 -0.19545,-0.012 -0.2757,-0.0271 -0.0487,-0.009 -0.094,-0.0374 -0.1399,-0.0591 -0.28325,-0.13437 -0.29941,-0.18144 -0.16877,-0.46169 0.17491,-0.37522 0.40754,-0.70955 0.67648,-1.02477 0.12833,-0.1504 0.27968,-0.25293 0.43949,-0.35616 0.0395,-0.0255 0.0628,-0.0877 0.0774,-0.13769 0.0378,-0.12907 0.0854,-0.24173 0.21129,-0.31803 0.10251,-0.0622 0.11415,-0.21716 0.0553,-0.32483 -0.0337,-0.0617 -0.0715,-0.12825 -0.0794,-0.19588 -0.0383,-0.32833 -0.24879,-0.56626 -0.4341,-0.81014 -0.20607,-0.27118 -0.43213,-0.53117 -0.67906,-0.76476 -0.0693,-0.0655 -0.24822,-0.0465 -0.36705,-0.0208 -0.17753,0.0384 -0.19627,0.0466 -0.212,-0.13074 -0.0179,-0.2024 0.0201,-0.42117 -0.0448,-0.60514 -0.0834,-0.23651 0.0334,-0.48683 -0.0968,-0.71362 -0.0305,-0.0531 -0.001,-0.16791 0.0392,-0.22833 0.0731,-0.1091 0.17067,-0.20398 0.26895,-0.29268 0.0263,-0.0238 0.0922,-0.004 0.13991,-0.004 0.006,0.0178 0.0119,0.0357 0.0179,0.0534 0.0277,-0.0328 0.0554,-0.0657 0.082,-0.0972 -0.10854,-0.19092 -0.0914,-0.23409 0.10207,-0.28851 0.0269,-0.008 0.0545,-0.0311 0.071,-0.0548 0.0909,-0.13047 0.17738,-0.26402 0.26761,-0.39498 0.0545,-0.079 0.11298,-0.1553 0.14907,-0.20464 -0.0437,-0.13584 -0.0931,-0.24607 -0.10999,-0.36107 -0.007,-0.0505 0.0392,-0.12887 0.0848,-0.15996 0.0281,-0.0191 0.11572,0.0124 0.15034,0.0473 0.0792,0.0798 0.13912,0.081 0.21509,-2.5e-4 0.0328,-0.0351 0.0843,-0.0527 0.13007,-0.0799 -0.0756,-0.12128 -0.0465,-0.23623 0.0364,-0.33227 0.10664,-0.12347 0.25388,-0.18021 0.41127,-0.13861 0.0898,0.0237 0.14673,-0.003 0.22467,-0.0299 0.17011,-0.0582 0.34996,-0.088 0.53521,-0.1316 0.0261,-0.039 0.0578,-0.11164 0.11156,-0.15933 0.0535,-0.0474 0.12161,-0.0666 0.17299,0.0285 0.0172,0.0318 0.0854,0.0361 0.14549,0.0313 -0.11393,-0.14794 -0.14771,-0.27871 -0.0257,-0.42388 0.0281,-0.0334 0.0422,-0.0811 0.0554,-0.12444 0.13989,-0.45904 0.45699,-0.54934 0.84948,-0.51033 0.18186,0.0181 0.36363,0.0896 0.53338,0.1643 0.23815,0.10482 0.37568,0.29006 0.35188,0.56653 -0.001,0.0101 -0.002,0.0216 0.002,0.0303 0.0667,0.15449 0.0263,0.26927 -0.13235,0.35117 0.3648,0.0205 0.73361,-0.15448 1.08428,0.0534 0.0513,0.2271 0.0487,0.22975 -0.23241,0.23053 0.28115,0.23366 0.61999,0.11373 0.92071,0.16566 -0.0254,-0.0612 -0.048,-0.11594 -0.0839,-0.20273 0.2398,0.0269 0.4489,0.0273 0.64291,0.0816 0.10132,0.0283 0.15836,0.0596 0.22373,-0.0408 0.0222,-0.034 0.0717,-0.0501 0.14673,-0.0993 0.007,0.12229 0.0212,0.21303 0.0138,0.30197 -0.009,0.11122 0.036,0.14287 0.1395,0.1416 0.3087,-0.004 0.61749,-10e-4 0.9352,-10e-4 0,0.0625 0,0.10509 0,0.15918 -0.1964,0 -0.38872,0 -0.58099,0 -0.006,0.0509 -0.0117,0.0916 -0.0172,0.135 0.10773,0 0.22435,-0.001 0.34095,2.5e-4 0.16779,0.002 0.19446,0.0337 0.16559,0.20153 -0.007,0.0399 -0.0207,0.0786 -0.0337,0.12677 -0.1922,0 -0.38467,0 -0.55763,0 -0.0657,0.0743 -0.13485,0.12518 -0.16529,0.1933 -0.0463,0.10368 -0.0505,0.22727 -0.10205,0.32719 -0.0358,0.0694 -0.11428,0.14419 -0.18623,0.1602 -0.0764,0.017 -0.19464,0.0715 -0.25148,-0.073 -0.0144,-0.0364 -0.11258,-0.0495 -0.17319,-0.0521 -0.0185,-5e-4 -0.0456,0.0672 -0.0586,0.10696 -0.009,0.0273 0.002,0.0604 5e-4,0.0909 -0.0102,0.33614 -0.0453,0.36493 -0.37265,0.34942 -0.28942,-0.0137 -0.5793,-0.0219 -0.86903,-0.0236 -0.3109,-10e-4 -0.5866,-0.10638 -0.85662,-0.28007 -0.0327,0.0448 -0.0725,0.0804 -0.0878,0.12446 -0.0313,0.0904 -0.0889,0.12194 -0.18083,0.12817 -0.0444,0.003 -0.0864,0.0431 -0.12948,0.0664 -0.14588,0.0786 -0.29157,0.15758 -0.43788,0.23538 -0.022,0.0117 -0.0562,0.0108 -0.0689,0.0276 -0.13345,0.17573 -0.26223,0.35502 -0.39559,0.53082 -0.0481,0.0634 -0.10506,0.1202 -0.15822,0.17979 -0.003,0.004 -0.009,0.005 -0.0129,0.008 -0.13877,0.0836 -0.313,0.13062 -0.52458,0.14468 -0.009,0.17128 -0.0253,0.34098 -0.022,0.51027 0.002,0.0828 0.036,0.16653 0.064,0.24688 0.05,0.14347 0.10248,0.28642 0.16257,0.42586 0.0197,0.0459 0.0692,0.0781 0.0999,0.12027 0.0478,0.0655 0.0848,0.13988 0.1379,0.20031 0.0825,0.0939 0.17519,0.17878 0.26287,0.26815 0.20728,0.21125 0.15281,0.49012 0.1886,0.74501 0.004,0.03 -0.0199,0.0684 -0.0396,0.0969 -0.16248,0.23588 -0.13998,0.46849 -0.004,0.70833 0.0465,0.0821 0.0693,0.17888 0.0951,0.27115 0.0717,0.25639 0.14069,0.51355 0.2073,0.77131 0.0134,0.0521 0.0335,0.11903 0.0128,0.16021 -0.0577,0.11497 0.006,0.17337 0.0856,0.22206 0.21868,0.13349 0.45121,0.22213 0.71229,0.24184 0.10074,0.008 0.22639,0.0466 0.28914,0.11716 0.1148,0.12907 0.0722,0.22794 -0.0886,0.30438 -0.30195,0.1435 -0.61873,0.19526 -0.95083,0.15911 -0.0821,-0.009 -0.15704,-0.0293 -0.21202,0.0804 -0.0446,0.0889 -0.56423,0.0318 -0.61688,-0.0585 -0.019,-0.0327 -0.0222,-0.0779 -0.0226,-0.11746 -0.002,-0.16046 0.005,-0.32109 -10e-4,-0.48136 -0.001,-0.0392 -0.0262,-0.0996 -0.0562,-0.11214 -0.12507,-0.0522 -0.11303,-0.15081 -0.11052,-0.25466 10e-4,-0.0744 0.003,-0.15419 -0.02,-0.22286 -0.0966,-0.28135 -0.20285,-0.55936 -0.31027,-0.85137 -0.20969,0.22752 -0.40971,0.44456 -0.61648,0.67015 m 4.72619,-6.45658 c -0.18398,-0.0292 -0.37908,0.0654 -0.55675,-0.05 -0.0115,-0.007 -0.0466,0.0147 -0.0669,0.0286 -0.17483,0.11975 -0.24348,0.0948 -0.27717,-0.10957 -0.0369,0.006 -0.0735,0.0127 -0.11357,0.0196 0.006,0.11559 0.0106,0.21944 0.0146,0.30045 0.23182,-0.0291 0.45366,-0.0354 0.66186,-0.0919 0.11434,-0.031 0.25378,0.0608 0.3379,-0.0971 m -1.61163,0.0197 c 0.0446,0.0191 0.0892,0.0383 0.13875,0.0596 0.0145,-0.18363 -0.0701,-0.24834 -0.28191,-0.2093 0.047,0.0523 0.0849,0.0945 0.14316,0.14969 z"
       id="soldier-SU" /></g></svg>
