<svg
   width="30.496889mm"
   height="5.654376mm"
   viewBox="0 0 30.496889 5.654376"
   version="1.1"
   id="svg5"
   xml:space="preserve"
   xmlns="http://www.w3.org/2000/svg"
   xmlns:svg="http://www.w3.org/2000/svg"><defs
     id="defs2" /><g
     id="layer1"
     transform="translate(-7.6872655,-158.06028)"><path
       d="m 28.585309,158.59032 -0.01681,0.60635 -0.401408,0.004 -0.401416,0.004 -0.006,0.54354 c -0.0084,0.30317 -0.0055,0.58533 0.0064,0.62702 3.15e-4,0.0314 -3.15311,0.11529 -7.017931,0.17502 l -7.018564,0.11233 -1.774742,0.31046 c -0.973286,0.16655 -1.82062,0.31093 -1.889324,0.32207 -0.05726,0.011 -0.1623495,-0.17604 -0.2335745,-0.41571 -0.166555,-0.59405 -0.328483,-0.7283 -0.682452,-0.56798 -0.228429,0.0964 -0.273568,0.16998 -0.225069,0.43078 0.0605,0.31294 -0.20835,0.95318 -0.403328,0.95513 -0.05736,5.8e-4 -0.127212,-0.10323 -0.151507,-0.23886 -0.04783,-0.19809 -0.04773,-0.18764 -0.06829,0.053 -0.0093,0.21958 -0.06588,0.2933 -0.226441,0.29492 -0.344065,0.004 -0.388154,0.18157 -0.06629,0.2515 0.195393,0.0399 0.288197,0.14343 0.301236,0.30007 0.01322,0.17754 0.02479,0.18787 0.06924,0.0411 0.132693,-0.49255 0.690235,0.2021 0.580898,0.73622 -0.05505,0.23049 -0.0083,0.31362 0.233469,0.40527 0.391736,0.17373 0.5624,0.0362 0.637222,-0.50808 0.03209,-0.23025 0.08724,-0.45029 0.109868,-0.48187 0.0342,-0.0213 0.4705355,0.0266 0.9645385,0.10528 2.45897,0.43516 2.963813,0.45099 13.801942,0.34211 6.73226,-0.0676 10.642737,-0.14874 11.123692,-0.22672 0.847446,-0.13393 1.498653,-0.3913 1.999502,-0.77259 0.421098,-0.32823 0.338927,-0.51552 -0.422218,-0.92594 -0.922661,-0.50285 -1.646358,-0.61054 -4.548517,-0.63365 l -2.672889,-0.0359 -0.0061,-0.60612 -0.0062,-0.61658 -0.573445,0.006 -0.573446,0.006 -0.02847,-0.55363 -0.0169,-0.54331 -0.07451,0.57558 c -0.07399,0.62782 -0.189617,0.53493 -0.265882,-0.20636 -0.03871,-0.42812 -0.05004,-0.41755 -0.0561,0.12598 z"
       id="submarine-2" /></g></svg>
