<svg
   width="27.541101mm"
   height="21.529253mm"
   viewBox="0 0 27.541101 21.529253"
   version="1.1"
   id="svg5"
   xml:space="preserve"
   xmlns="http://www.w3.org/2000/svg"
   xmlns:svg="http://www.w3.org/2000/svg"><defs
     id="defs2" /><g
     id="layer1"
     transform="translate(-67.815883,-55.969623)"><path
       d="m 81.404449,56.215688 c -0.393765,0.378783 -0.715205,1.807191 -0.904042,4.011421 -0.11251,1.318878 -0.09644,1.223047 -0.192866,1.191101 -0.04826,-0.01369 -0.245096,-0.02738 -0.437954,-0.02738 h -0.353586 l -0.0043,-0.675417 c 0,-0.36965 -0.01612,-0.78038 -0.03215,-0.91729 -0.03215,-0.246431 -0.05623,-0.282943 -0.353578,-0.556754 -0.02816,-0.02287 -0.05225,-0.114096 -0.05225,-0.200803 V 58.8854 l 0.642881,0.0091 c 0.554476,0.0092 0.650905,0 0.707156,-0.06845 0.06429,-0.07304 0.06031,-0.07755 -0.04818,-0.114087 -0.06429,-0.01828 -0.397776,-0.03189 -0.743321,-0.03189 l -0.630829,0.0091 -0.02409,-0.173423 c -0.02816,-0.20536 -0.108481,-0.292067 -0.241076,-0.255555 -0.09242,0.02738 -0.144648,0.136902 -0.144648,0.328581 0,0.100397 -0.01204,0.100397 -0.63082,0.09126 -0.622787,-0.0043 -0.855823,0.02279 -0.855823,0.10953 0,0.08214 0.196878,0.109529 0.775468,0.104963 l 0.590633,-0.0091 v 0.19167 c -0.0043,0.164291 -0.0201,0.20537 -0.132586,0.282944 -0.212951,0.155166 -0.241076,0.32858 -0.212951,1.309763 l 0.02409,0.853388 -0.148668,0.04566 c -0.08439,0.02287 -0.337505,0.09584 -0.562516,0.16429 -0.62278,0.173423 -1.591113,0.474614 -3.326872,1.031377 -1.808084,0.579577 -2.189787,0.698231 -4.090287,1.291507 -1.663436,0.52025 -1.779958,0.579577 -1.980856,0.967484 -0.172773,0.333146 -0.100449,0.675417 0.176793,0.83514 0.421881,0.241874 0.851803,0.250997 7.32073,0.1506 3.604114,-0.05476 3.821085,-0.05476 4.259039,0.02279 l 0.462067,0.08214 0.02816,1.254994 c 0.02816,1.337143 0.08032,2.455227 0.176785,3.856255 0.05623,0.83514 0.192866,2.359388 0.237064,2.651455 l 0.0201,0.141476 -0.490193,0.241873 c -1.096907,0.533941 -2.149608,1.067882 -2.26211,1.154589 -0.353586,0.269253 -0.502245,0.515692 -0.502245,0.82145 0,0.264696 0.128574,0.483746 0.36965,0.61609 0.237056,0.132344 0.823678,0.187104 2.085326,0.19167 h 0.867875 l 0.15268,-0.13691 c 0.08439,-0.07755 0.164741,-0.136909 0.184834,-0.136909 0.01612,0 0.05225,0.07304 0.07634,0.159732 0.06031,0.214484 0.249117,0.433544 0.369659,0.433544 0.116514,0 0.233036,-0.132344 0.349558,-0.401597 l 0.0884,-0.196237 0.164741,0.13691 0.168752,0.141467 h 0.863864 c 1.26164,-0.0043 1.848261,-0.05935 2.081305,-0.19167 0.269202,-0.1506 0.353578,-0.3012 0.353578,-0.625214 0,-0.21905 -0.0201,-0.292076 -0.116522,-0.433543 -0.220983,-0.328581 -0.389744,-0.433544 -2.233985,-1.337144 -0.526359,-0.255554 -0.859843,-0.442667 -0.855831,-0.479171 0.03214,-0.232749 0.180813,-1.898464 0.233043,-2.569315 0.112502,-1.551627 0.144648,-2.240734 0.168753,-3.755858 0.02417,-1.4923 0.02417,-1.515114 0.10849,-1.537937 0.707164,-0.173414 1.048689,-0.17798 6.051049,-0.09127 2.507215,0.04107 4.761284,0.06386 5.01041,0.05017 0.502245,-0.03189 0.851803,-0.12322 1.016543,-0.255563 0.333493,-0.269254 0.229024,-0.853397 -0.204918,-1.168287 -0.172773,-0.123211 -0.530371,-0.241865 -3.250528,-1.090695 -0.940208,-0.292076 -2.205868,-0.693673 -2.812583,-0.88991 C 87.170009,62.1575 86.852589,62.057103 86.044976,61.824363 85.6472,61.705709 85.253436,61.591613 85.17308,61.568799 l -0.148668,-0.04107 0.02409,-0.880777 c 0.02417,-0.985741 -0.0043,-1.154597 -0.229023,-1.300631 -0.104461,-0.06845 -0.120534,-0.104963 -0.120534,-0.269253 V 58.8854 l 0.594654,0.0043 c 0.598682,0.0091 0.787528,-0.01828 0.759403,-0.114096 -0.02816,-0.09583 -0.353587,-0.127777 -0.920115,-0.104963 l -0.554484,0.02738 v -0.141468 c 0,-0.196236 -0.06828,-0.31489 -0.176785,-0.31489 -0.120542,0 -0.176793,0.07755 -0.192866,0.27382 l -0.01204,0.159724 h -0.691091 c -0.494204,0 -0.703143,0.0182 -0.739301,0.05476 -0.02816,0.03189 -0.0402,0.07304 -0.02417,0.09127 0.06031,0.06386 0.466088,0.09584 0.904041,0.07304 l 0.450015,-0.02738 v 0.182547 c 0,0.16429 -0.01612,0.200794 -0.136615,0.278377 -0.245096,0.16429 -0.257149,0.219059 -0.289295,1.181977 l -0.02816,0.880777 h -0.329472 c -0.180805,0 -0.385724,0.01369 -0.450006,0.02738 l -0.120543,0.02738 -0.04826,-0.657161 c -0.196878,-2.592128 -0.566528,-4.312612 -0.988418,-4.60468 -0.152679,-0.109529 -0.152679,-0.109529 -0.301347,0.03189 z"
       id="bomber-1" /></g></svg>
