<svg
   width="16.413385mm"
   height="16.413383mm"
   viewBox="0 0 16.413385 16.413383"
   version="1.1"
   id="svg5"
   xml:space="preserve"
   xmlns="http://www.w3.org/2000/svg"
   xmlns:svg="http://www.w3.org/2000/svg"><defs
     id="defs2" /><g
     id="layer1"
     transform="translate(-151.17985,-72.685382)"><g
       transform="matrix(0.00422147,0,0,-0.00424086,147.23993,93.395874)"
       fill="#000000"
       stroke="none"
       id="emblem-UK"><path
         d="m 2542.9739,4122.6142 c -369.6701,-104.6236 -648.6665,-345.258 -809.0894,-704.4658 -62.7741,-136.0107 -80.2114,-233.6593 -80.2114,-498.706 0,-306.8959 10.4623,-352.2328 115.086,-564.9675 530.093,-1081.1108 2151.7591,-823.0392 2336.5942,369.6702 115.086,725.3905 -401.0573,1381.0318 -1126.4476,1433.3436 -163.9103,10.4624 -306.8961,0 -435.9318,-34.8745 z"
         id="path565-4"
         style="fill:#ffffff;fill-opacity:1;stroke-width:3.48746"
         transform="translate(1.008322e-6,1.4872749e-4)" /><path
         d="m 2710.6925,1019.1098 c -370.0562,55.9468 -500.6018,92.5275 -706.6688,196.8898 -225.4872,114.0449 -418.6067,262.5192 -583.6772,449.7242 -292.377,331.3764 -439.10496,697.181 -484.41913,1208.2328 -15.10373,162.4606 36.68229,488.4573 113.28283,724.078 188.8048,578.8337 716.3797,1067.2909 1309.7672,1215.7639 267.5627,66.7061 524.3376,86.072 750.9034,55.9467 267.5625,-36.5807 455.2886,-92.5275 658.1202,-195.8129 173.6994,-89.2992 310.7182,-187.2063 450.9729,-321.6929 363.5843,-347.5154 546.9945,-738.0656 596.6235,-1271.7104 33.4448,-358.2736 -80.9167,-838.1244 -272.9574,-1142.6026 -132.7027,-210.8761 -343.086,-434.6632 -538.364,-573.4538 -127.3082,-90.3748 -339.8487,-200.117 -473.63,-244.2286 -117.599,-38.7321 -317.1929,-81.7683 -458.5263,-97.9058 -92.7845,-9.6838 -304.245,-12.9106 -361.4272,-3.2284 z m 406.7401,792.937 c 435.869,93.603 776.7977,413.1446 881.4487,825.212 57.1808,223.7871 57.1808,398.0828 0,621.8684 -129.4654,512.1274 -632.2258,876.8562 -1168.4312,847.8066 -639.779,-34.428 -1113.4092,-528.2652 -1113.4092,-1158.74 1.0816,-661.6775 534.0469,-1178.1075 1193.2457,-1156.5902 71.2072,2.1527 165.0691,10.7593 207.146,20.4432 z"
         id="path563-5"
         style="fill:#afb545;fill-opacity:1;stroke-width:1.07739" /><path
         d="m 2736.5803,4536.129 c -305.4783,-46.3115 -413.2418,-76.5921 -583.3478,-162.9811 -186.1368,-94.4043 -345.5555,-217.3081 -481.8184,-372.2738 -241.3546,-274.3069 -362.4771,-577.1134 -399.8827,-1000.1518 -12.4685,-134.4817 30.2807,-404.3357 93.5138,-599.3786 155.8562,-479.1467 591.3631,-883.4824 1081.1972,-1006.3862 220.8705,-55.2176 432.835,-71.2485 619.8625,-46.3116 220.8706,30.2807 375.8363,76.5923 543.2704,162.0905 143.3877,73.9204 256.4949,154.9657 372.2738,266.2916 300.1346,287.6662 451.5379,610.9565 492.5057,1052.6977 27.6089,296.5722 -66.7955,693.783 -225.3236,945.8248 -109.5446,174.559 -283.213,359.8053 -444.4129,474.6937 -105.0917,74.811 -280.5413,165.6529 -390.9766,202.1678 -97.0762,32.0619 -261.8385,67.6861 -378.508,81.0452 -76.5923,8.0155 -251.1513,10.6873 -298.3534,2.6718 z m 335.7589,-656.3774 c 359.8053,-77.4829 641.2371,-341.9932 727.626,-683.0957 47.2022,-185.2464 47.2022,-329.5247 0,-514.771 -106.8728,-423.929 -521.8958,-725.8448 -964.5275,-701.7985 -528.1301,28.4994 -919.1066,437.2882 -919.1066,959.1839 0.8905,547.7235 440.8505,975.2149 985.0115,957.4028 58.78,-1.7812 136.2629,-8.9061 170.9966,-16.9215 z"
         id="path563"
         style="fill:#08073c;fill-opacity:1;stroke-width:0.890607" /><path
         d="m 2780,3285 c -106,-30 -186,-99 -232,-202 -18,-39 -23,-67 -23,-143 0,-88 3,-101 33,-162 152,-310 617,-236 670,106 33,208 -115,396 -323,411 -47,3 -88,0 -125,-10 z"
         id="path565"
         style="fill:#630b0b;fill-opacity:1" /></g></g></svg>
