<svg
   width="15.741802mm"
   height="13.342607mm"
   viewBox="0 0 15.741802 13.342607"
   version="1.1"
   id="svg5"
   xml:space="preserve"
   xmlns="http://www.w3.org/2000/svg"
   xmlns:svg="http://www.w3.org/2000/svg"><defs
     id="defs2" /><g
     id="layer1"
     transform="translate(-101.89542,-64.060124)"><path
       d="m 109.61818,64.262263 c -0.0442,0.04852 -0.0674,0.09708 -0.0674,0.145617 v 0.07521 h -0.28375 c -0.15815,0 -0.52097,-0.01698 -0.80937,-0.03639 -0.70704,-0.04852 -0.77216,-0.0461 -0.76286,0.0052 0.009,0.05337 0.0791,0.07036 0.47214,0.121339 0.22792,0.02911 0.48609,0.04124 0.85589,0.04124 0.40004,-0.0026 0.52795,0.0052 0.52795,0.02669 0,0.01941 -0.0535,0.03882 -0.13256,0.04852 -0.25584,0.03154 -0.39306,0.128626 -0.46517,0.32521 -0.0372,0.09707 -0.0418,0.189296 -0.0372,0.708645 l 0.004,0.597019 -0.30701,0.01698 c -1.18616,0.06308 -4.98884,0.286375 -5.22142,0.305783 -0.68843,0.06065 -1.13267,0.283949 -1.2978,0.652837 -0.0512,0.111635 -0.0628,0.172314 -0.0628,0.330062 -0.002,0.507219 0.21166,0.885811 0.61168,1.087247 0.31166,0.155322 0.49075,0.196574 2.73282,0.623706 1.39315,0.266957 2.5607,0.512079 3.07006,0.645558 0.26514,0.07036 0.54889,0.18687 0.60005,0.24754 0.0302,0.03397 0.0442,0.194148 0.0721,0.854263 0.0535,1.155204 0.10467,2.150233 0.13025,2.475434 l 0.0209,0.279087 -0.0628,0.0558 c -0.13257,0.114061 -0.45586,0.249966 -1.05126,0.439262 -0.78146,0.24754 -1.37687,0.453827 -1.47223,0.504792 -0.21398,0.114062 -0.29538,0.237836 -0.29538,0.444124 0,0.22327 0.10931,0.354322 0.36283,0.436844 0.0814,0.02669 0.60703,0.114061 1.16754,0.194149 0.5582,0.08006 1.13732,0.1626 1.28385,0.184444 l 0.26979,0.04124 0.0605,0.390732 c 0.0697,0.436836 0.11397,0.614002 0.17909,0.696515 0.0373,0.04852 0.0489,0.05095 0.0815,0.02426 0.0558,-0.04852 0.12094,-0.293653 0.18838,-0.72322 0.0349,-0.211131 0.0652,-0.38587 0.0652,-0.388296 0.003,0 0.51865,-0.07521 1.14429,-0.165027 1.30477,-0.184444 1.49548,-0.216001 1.63968,-0.271818 0.20235,-0.07764 0.28143,-0.165027 0.31398,-0.354323 0.0395,-0.21114 -0.0581,-0.381018 -0.28839,-0.502367 -0.13258,-0.06793 -0.91172,-0.33734 -1.66527,-0.572749 -0.38841,-0.12134 -0.76054,-0.28394 -0.88846,-0.390723 l -0.0535,-0.04367 0.0349,-0.558184 c 0.0349,-0.582454 0.093,-1.761927 0.11629,-2.366224 0.0232,-0.633419 0.0256,-0.647976 0.12327,-0.718359 0.24188,-0.172305 1.25593,-0.405288 4.07015,-0.944055 1.87459,-0.356757 2.02577,-0.393157 2.33277,-0.560619 0.29538,-0.1626 0.47446,-0.412566 0.54656,-0.762045 0.11397,-0.565463 -0.093,-0.931925 -0.64424,-1.143065 -0.3326,-0.126191 -0.40003,-0.133478 -2.45139,-0.252392 -2.15602,-0.1262 -3.60731,-0.206287 -3.69337,-0.206287 h -0.0884 l 0.007,-0.589732 c 0.007,-0.630993 -0.003,-0.703802 -0.11396,-0.861551 -0.0744,-0.10193 -0.1535,-0.143183 -0.35352,-0.177165 -0.0907,-0.01698 -0.16513,-0.04124 -0.16513,-0.0558 0,-0.01941 0.14886,-0.02911 0.53028,-0.02911 0.35585,0 0.63262,-0.01213 0.85357,-0.04124 0.39771,-0.05095 0.46283,-0.06793 0.47446,-0.126201 0.007,-0.04124 -0.009,-0.04367 -0.30235,-0.02669 -0.17211,0.0069 -0.46283,0.02669 -0.6489,0.03882 -0.18606,0.01213 -0.46516,0.02426 -0.61866,0.02426 h -0.28374 l -0.0163,-0.08737 c -0.0349,-0.196574 -0.21165,-0.266957 -0.33957,-0.133478 z"
       id="jet-UK" /></g></svg>
