<svg
   width="7.7132754mm"
   height="10.623158mm"
   viewBox="0 0 7.7132754 10.623158"
   version="1.1"
   id="svg5"
   xml:space="preserve"
   xmlns="http://www.w3.org/2000/svg"
   xmlns:svg="http://www.w3.org/2000/svg"><defs
     id="defs2" /><g
     id="layer1"
     transform="translate(-75.398151,-7.7693491)"><path
       d="m 80.231274,8.9749526 c 0.0218,-0.1005097 0.0342,-0.2246897 -0.0668,-0.2630497 -0.0991,-0.0376 -0.23155,-0.0732 -0.33046,0.0353 -0.0486,0.0533 -0.0926,0.0937 -0.17295,0.0359 -0.02,-0.0143 -0.0876,0.0376 -0.13339,0.059 0.004,0.0121 0.007,0.0242 0.0111,0.0363 -0.0401,-0.0114 -0.0801,-0.0227 -0.12051,-0.0342 -0.006,-0.10631 0.005,-0.21305 -0.0204,-0.31054 -0.0869,-0.3369397 -0.33402,-0.5078397 -0.65504,-0.5836697 -0.0988,-0.0233 -0.20534,-0.0282 -0.30709,-0.0217 -0.13792,0.009 -0.22878,0.0951 -0.30807,0.2073 -0.0731,0.1034 -0.16277,0.19856 -0.25917,0.2809397 -0.0867,0.0741 -0.0999,0.16645 -0.0952,0.26164 0.006,0.12887 0.0312,0.25683 0.0532,0.4225297 -0.16922,-0.0949 -0.29947,-0.1679397 -0.42247,-0.2369097 -0.0698,0.1108897 -0.12592,0.1999097 -0.1842,0.2924397 -0.0615,0.007 -0.12941,0.0149 -0.19734,0.0224 -0.0807,0.009 -0.13358,0.0448 -0.15392,0.13046 -0.007,0.0278 -0.0444,0.0552 -0.0742,0.0694 -0.32469,0.1543497 -0.52147,0.4292197 -0.72314,0.7134394 -0.1403,0.19773 -0.19663,0.41112 -0.25078,0.63276 -0.086,0.35187 -0.16644,0.70508 -0.24913,1.05775 -0.0253,0.10778 -0.0324,0.21059 0.0453,0.30615 0.0174,0.0214 0.005,0.0704 5e-4,0.10579 -0.0219,0.16039 -0.0748,0.32328 -0.0596,0.47969 0.0106,0.10851 0.005,0.23567 0.1391,0.33676 0.12594,0.0948 0.18406,0.2841 0.26189,0.43698 0.0679,0.13346 0.12643,0.27232 0.18065,0.41206 0.0617,0.159 0.16876,0.26717 0.32762,0.32501 0.0824,0.03 0.13679,0.0715 0.13165,0.17459 -0.005,0.0988 0.0658,0.15752 0.15362,0.18408 0.0726,0.022 0.10117,0.0629 0.1039,0.13624 0.002,0.073 0.0115,0.14638 0.0252,0.21814 0.0197,0.10318 -0.0131,0.1605 -0.0892,0.24615 -0.10465,0.11772 -0.21237,0.22291 -0.33434,0.32019 -0.0258,0.0206 -0.0248,0.0995 -0.009,0.14164 0.0266,0.0724 -0.001,0.10788 -0.0505,0.15327 -0.0713,0.0658 -0.14645,0.13428 -0.19538,0.21628 -0.14853,0.24891 -0.0801,0.39116 0.196,0.54908 0.0145,0.008 0.0353,0.0205 0.0476,0.016 0.24118,-0.09 0.33541,0.1552 0.50704,0.22434 0.27276,0.10989 0.25409,0.35734 0.2535,0.59639 -1.2e-4,0.0932 0.0398,0.1865 0.0621,0.27961 0.0149,0.0623 0.0345,0.12376 0.0459,0.1867 0.0414,0.22868 0.17447,0.32305 0.40932,0.31668 0.11573,-0.003 0.23754,0.0177 0.34789,0.0541 0.30359,0.10013 0.55665,6e-5 0.79599,-0.17468 0.0521,-0.038 0.1052,-0.0763 0.14966,-0.12241 0.0273,-0.0283 0.0527,-0.0706 0.0554,-0.10831 0.0114,-0.16014 -0.16824,-0.37413 -0.33154,-0.38202 -0.24904,-0.012 -0.47059,-0.0926 -0.6743,-0.23051 -0.16905,-0.11445 -0.24008,-0.29189 -0.27445,-0.47873 -0.01,-0.054 0.0506,-0.14075 0.10278,-0.18237 0.10416,-0.083 0.14841,-0.17037 0.10502,-0.30091 -0.0284,-0.0853 -0.0457,-0.1744 -0.0669,-0.26204 -0.0231,-0.0953 -0.0578,-0.18708 0.0549,-0.26311 0.0295,-0.0199 0.0312,-0.11115 0.0161,-0.16061 -0.0281,-0.0922 -0.0239,-0.1539 0.0242,-0.25197 0.099,-0.20167 0.26495,-0.38991 0.19795,-0.65348 -0.041,-0.1611 -0.0676,-0.33621 -0.05,-0.49958 0.0331,-0.30818 -0.0979,-0.56694 -0.18904,-0.84199 -0.0692,-0.20885 -0.11086,-0.42689 -0.16246,-0.6414 -0.006,-0.0265 -0.008,-0.0623 0.005,-0.0837 0.0541,-0.0902 0.11466,-0.17659 0.17285,-0.26438 -0.009,-0.006 -0.018,-0.0122 -0.027,-0.0184 0.003,-0.002 0.007,-0.008 0.01,-0.008 0.24967,0.0484 0.33983,-0.10094 0.38887,-0.30809 0.0167,-0.0705 0.0523,-0.13647 0.0719,-0.20656 0.0209,-0.0747 0.0945,-0.15558 -0.0132,-0.22545 -0.003,-0.002 0.0132,-0.036 0.0141,-0.0384 0.16315,0.0874 0.32301,0.17427 0.48398,0.25901 0.10587,0.0557 0.19388,0.0307 0.29797,-0.0322 0.30293,-0.18298 0.3728,-0.44449 0.3216,-0.77379 -0.0233,-0.14977 -0.017,-0.30755 10e-4,-0.45872 0.008,-0.0647 0.0818,-0.12014 0.12118,-0.18266 0.0387,-0.0615 0.0525,-0.1227 0.15681,-0.13606 0.14725,-0.0189 0.26242,-0.11259 0.2472,-0.2409697 0.17184,-0.109 0.31448,-0.20308 0.46109,-0.29048 0.0503,-0.03 0.11547,-0.0354 0.16512,-0.0662 0.0598,-0.0371 0.10928,-0.0905 0.16534,-0.1341797 0.0305,-0.0238 0.0629,-0.0513 0.0988,-0.0608 0.0996,-0.0263 0.20628,-0.0316 0.30076,-0.069 0.0741,-0.0293 0.13414,-0.0941 0.20919,-0.14966 0.10886,0.0882 0.21166,0.056 0.26783,-0.11073 0.26072,-0.0631 0.51858,-0.1268297 0.77723,-0.1872197 0.0792,-0.0185 0.16427,-0.0175 0.23949,-0.0451 0.0444,-0.0163 0.0749,-0.0709 0.11165,-0.10826 -0.0408,-0.0303 -0.0858,-0.0906 -0.12161,-0.0855 -0.14338,0.0203 -0.28436,0.0589 -0.42535,0.0943 -0.20674,0.0518 -0.41272,0.10668 -0.62743,0.16242 -0.0113,-0.14154 -0.0156,-0.25293 -0.0319,-0.36252 -0.005,-0.0355 -0.0396,-0.0908 -0.0652,-0.0935 -0.0379,-0.004 -0.1016,0.02 -0.11689,0.0507 -0.19352,0.38893 -0.56046,0.40782 -0.9201,0.43001 -0.11157,0.007 -0.21146,0.0173 -0.31299,0.0975 -0.0221,0.004 -0.0288,0.002 -0.0356,4e-5 0.005,-0.008 0.01,-0.0154 0.0149,-0.0231 m -1.08478,0.27613 c 0.0813,-0.0363 0.16044,-0.0792 0.24451,-0.10719 0.0908,-0.0303 0.14877,0.0229 0.12966,0.11236 -0.0783,0.006 -0.15766,0.013 -0.23504,0.0194 -0.007,0.16001 -0.0546,0.18767 -0.24143,0.1485 0.0327,-0.0526 0.0644,-0.10352 0.1023,-0.17311 z"
       id="soldier-UK" /></g></svg>
