<svg
   width="24.236645mm"
   height="8.2126818mm"
   viewBox="0 0 24.236645 8.2126818"
   version="1.1"
   id="svg5"
   xml:space="preserve"
   xmlns="http://www.w3.org/2000/svg"
   xmlns:svg="http://www.w3.org/2000/svg"><defs
     id="defs2" /><g
     id="layer1"
     transform="translate(-86.841909,-7.9796352)"><path
       d="m 101.48589,13.446239 c 0.0499,0.01252 0.16615,0.08723 0.25338,0.170306 0.47352,0.452753 0.1786,1.21288 -0.47353,1.21288 -0.3406,0 -0.59813,-0.199377 -0.68536,-0.531671 -0.13291,-0.53168 0.32399,-0.963663 0.90551,-0.851515 z m -0.28245,0.261685 c 0,0.02079 0.0291,0.04151 0.0623,0.04151 0.0332,0 0.0623,-0.02071 0.0623,-0.04151 0,-0.02489 -0.0291,-0.04151 -0.0623,-0.04151 -0.0332,0 -0.0623,0.01662 -0.0623,0.04151 z m 0.24922,0.08308 c 0,0.02071 0.0291,0.04151 0.0623,0.04151 0.0332,0 0.0623,-0.02072 0.0623,-0.04151 0,-0.02497 -0.0291,-0.04151 -0.0623,-0.04151 -0.0332,0 -0.0623,0.01662 -0.0623,0.04151 z m -0.49844,0 c 0,0.02071 0.0291,0.04151 0.0623,0.04151 0.0332,0 0.0623,-0.02072 0.0623,-0.04151 0,-0.02497 -0.0291,-0.04151 -0.0623,-0.04151 -0.0332,0 -0.0623,0.01662 -0.0623,0.04151 z m 0.12877,0.195218 c -0.0955,0.116307 -0.0831,0.245075 0.0291,0.332295 0.13707,0.112156 0.3489,0.03733 0.39875,-0.137069 0.0332,-0.116299 -0.11631,-0.307374 -0.24507,-0.307374 -0.0581,0 -0.13291,0.04568 -0.18276,0.112148 z m 0.53582,0.01244 c 0,0.02071 0.0166,0.04151 0.0415,0.04151 0.0208,0 0.0415,-0.02079 0.0415,-0.04151 0,-0.02497 -0.0207,-0.04151 -0.0415,-0.04151 -0.0249,0 -0.0415,0.01662 -0.0415,0.04151 z m -0.7892,0 c 0,0.02071 0.0166,0.04151 0.0415,0.04151 0.0207,0 0.0415,-0.02079 0.0415,-0.04151 0,-0.02497 -0.0208,-0.04151 -0.0415,-0.04151 -0.025,0 -0.0415,0.01662 -0.0415,0.04151 z m 0.7892,0.269994 c 0,0.03324 0.0166,0.0623 0.0415,0.0623 0.0208,0 0.0415,-0.02906 0.0415,-0.0623 0,-0.03324 -0.0207,-0.0623 -0.0415,-0.0623 -0.0249,0 -0.0415,0.02906 -0.0415,0.0623 z m -0.7892,0 c 0,0.03324 0.0166,0.0623 0.0415,0.0623 0.0207,0 0.0415,-0.02906 0.0415,-0.0623 0,-0.03324 -0.0208,-0.0623 -0.0415,-0.0623 -0.025,0 -0.0415,0.02906 -0.0415,0.0623 z m 0.62305,0.178608 c 0,0.05403 0.0499,0.09138 0.0914,0.06647 0.0415,-0.02497 0.004,-0.09969 -0.054,-0.09969 -0.0207,0 -0.0373,0.01662 -0.0373,0.03324 z m -0.47352,0.05403 c 0.0124,0.02072 0.0415,0.02906 0.0623,0.01244 0.0208,-0.01244 0.0291,-0.04151 0.0124,-0.0623 -0.0124,-0.02071 -0.0415,-0.02906 -0.0623,-0.01244 -0.0208,0.01244 -0.0291,0.04151 -0.0124,0.0623 z m 0.23261,0.04151 c 0.008,0.02497 0.0332,0.04151 0.054,0.04151 0.0207,0 0.0457,-0.01662 0.054,-0.04151 0.008,-0.02497 -0.0166,-0.04568 -0.054,-0.04568 -0.0374,0 -0.0623,0.02071 -0.054,0.04568 z m 9.62828,-6.2762458 c 0.10799,0.2118367 0.15369,0.5192117 0.0872,0.5981307 -0.0623,0.07475 -0.61059,0.2201457 -0.9595,0.2533757 -0.14953,0.01662 -0.39045,0.05403 -0.53167,0.08723 -0.14538,0.03733 -0.29076,0.05403 -0.31984,0.04151 -0.0831,-0.02906 -3.43096,0.9221234 -3.55557,1.0135034 -0.0623,0.04151 -0.53998,0.191067 -1.05919,0.332294 -0.52337,0.141228 -1.07581,0.290757 -1.2295,0.336454 l -0.27415,0.07892 0.0373,0.149529 c 0.0499,0.170306 0.025,0.348913 -0.0249,0.191075 -0.0374,-0.116307 -0.12876,-0.09554 -0.11214,0.02497 0.0166,0.116299 -0.0581,0.120458 -0.0955,0.0083 -0.0332,-0.107998 -0.10384,-0.07065 -0.0747,0.04151 0.0374,0.137068 -0.0706,0.09553 -0.12046,-0.04568 -0.025,-0.06648 -0.0623,-0.116307 -0.0914,-0.107998 -0.025,0.0083 -0.29907,0.08723 -0.60644,0.174457 -0.30738,0.08723 -0.57321,0.161989 -0.59398,0.174449 -0.0166,0.0083 -0.008,0.05403 0.0124,0.09969 0.0249,0.04568 0.0623,0.07065 0.0831,0.05813 0.0623,-0.03733 0.0872,0.04986 0.0249,0.09969 -0.0789,0.06648 -0.19107,0.01244 -0.23677,-0.107998 -0.0332,-0.08723 -0.0581,-0.09969 -0.15368,-0.07475 -0.15369,0.03733 -0.15369,0.03733 -0.0499,0.203536 0.0831,0.141227 0.10384,0.149529 0.31567,0.149529 0.19523,0 0.22431,0.01244 0.22431,0.07892 0,0.04568 -0.0499,0.116307 -0.11215,0.161996 -0.14954,0.107998 -0.10385,0.199377 0.12046,0.232607 0.26998,0.04151 0.65213,0.236765 0.85981,0.440293 l 0.18276,0.178615 0.0789,-0.09554 c 0.0623,-0.07475 0.0872,-0.08723 0.11215,-0.04568 0.0208,0.02906 0.0581,0.04986 0.0914,0.04568 0.0332,-0.0039 0.12046,-0.0083 0.19107,-0.0039 0.10799,0.0039 0.14122,0.02497 0.16199,0.107998 0.0166,0.07475 0.004,0.132918 -0.0457,0.186917 -0.0707,0.07892 -0.0707,0.08307 0.004,0.08723 0.0581,0.0039 0.054,0.01244 -0.025,0.03324 -0.0914,0.02489 -0.10384,0.04986 -0.10384,0.232606 -0.004,0.153687 -0.0208,0.211837 -0.0665,0.220146 -0.0499,0.0083 -0.0747,0.08723 -0.0914,0.319835 -0.0124,0.166148 -0.0581,0.390445 -0.108,0.494292 l -0.0831,0.191067 0.11215,0.0039 c 0.0623,0 0.0872,0.01244 0.0581,0.02497 -0.025,0.0083 -0.0499,0.06647 -0.0499,0.124616 0,0.08307 0.0166,0.09969 0.0831,0.08307 0.0665,-0.01662 0.0831,0 0.0789,0.08723 -0.004,0.07065 -0.0124,0.08723 -0.0249,0.04151 -0.0332,-0.124608 -0.12461,-0.08308 -0.12461,0.05403 0,0.07065 -0.0207,0.141227 -0.0499,0.157838 -0.10385,0.06647 0.0665,0.120458 0.48182,0.149537 0.41952,0.02489 0.41952,0.02489 0.44029,-0.07065 l 0.0166,-0.09553 0.008,0.09138 c 0,0.05403 0.0207,0.09554 0.0457,0.09554 0.0207,0 0.0415,0.02906 0.0415,0.0623 0,0.09139 -2.56698,0.09139 -2.92005,0 -0.51922,-0.132918 -0.85982,-0.407063 -1.088278,-0.863967 -0.0789,-0.157846 -0.14537,-0.315684 -0.14537,-0.344763 0,-0.03324 -0.0332,-0.05813 -0.0707,-0.05813 -0.0872,0 -7.061298,0.286605 -7.343748,0.299065 -0.14123,0.0083 -0.20354,0.02906 -0.19938,0.0623 0.0124,0.05813 -0.004,0.0623 -0.2783,0.0623 -0.10384,0 -0.19107,-0.01662 -0.19938,-0.04568 -0.0124,-0.03733 -0.20353,-0.04568 -0.77259,-0.02071 -0.80996,0.02906 -0.89719,0.05403 -0.89719,0.253376 0,0.161997 -0.14123,0.390452 -0.43614,0.710287 -0.27415,0.294907 -0.36968,0.348906 -0.46938,0.249217 -0.0831,-0.08307 -0.0581,-0.215988 0.0955,-0.502593 0.26169,-0.494291 0.18692,-0.639677 -0.34891,-0.681208 -0.18276,-0.01244 -0.33645,-0.04151 -0.33645,-0.06648 0,-0.02489 -0.1163,-0.02906 -0.32399,-0.0083 -0.17445,0.01662 -0.50259,0.03324 -0.7269,0.04151 -0.36136,0.01252 -0.40706,0.0083 -0.39459,-0.05395 0.0124,-0.07475 0.1246,-0.0997 0.78089,-0.178616 0.40706,-0.04985 0.72274,-0.128759 0.61059,-0.153687 -0.0373,-0.0083 -0.0706,-0.03733 -0.0706,-0.07065 0,-0.0623 0.30737,-0.10384 0.71859,-0.08723 0.15784,0.0039 0.29076,-0.0039 0.30322,-0.02072 0.008,-0.01662 0.18276,-0.04151 0.39045,-0.05813 0.20353,-0.01662 0.37383,-0.04568 0.37383,-0.06647 0,-0.04986 0.11215,-0.04986 0.13292,0 0.0166,0.04986 0.53167,0.0083 0.53167,-0.04151 0,-0.02071 -0.0498,-0.04151 -0.1163,-0.04151 -0.0914,-0.0039 -0.0955,-0.0083 -0.0208,-0.02497 0.0499,-0.0083 0.18692,0.01244 0.30738,0.04568 0.27414,0.08308 0.33229,0.08308 0.30321,0.0039 -0.0207,-0.04568 0.004,-0.0623 0.0789,-0.0623 h 0.0997 l -0.0207,-0.373834 c -0.0125,-0.265844 -0.004,-0.390452 0.0332,-0.436142 0.0623,-0.07475 0.30738,-0.08308 0.36138,-0.01244 0.0706,0.09554 0.25752,0.672899 0.24921,0.780897 -0.0125,0.132917 0.13293,0.174456 0.16616,0.04568 0.0125,-0.05813 0.0665,-0.09138 0.15369,-0.107997 0.0706,-0.0083 1.45379,-0.141228 3.07789,-0.290757 3.140187,-0.290763 3.634488,-0.344755 3.634488,-0.402912 0,-0.01662 0.054,-0.03324 0.1246,-0.03324 0.0872,0 0.12462,0.02072 0.12462,0.06647 0,0.03324 0.0166,0.04986 0.0415,0.03733 0.0207,-0.01244 0.0415,-0.04986 0.0415,-0.08307 0,-0.07065 -0.24092,-0.195226 -0.27415,-0.141227 -0.0332,0.05813 -0.25337,0.04568 -0.27829,-0.02071 -0.0291,-0.07065 -0.20769,-0.107998 -0.294921,-0.05813 -0.0374,0.02072 -0.0665,0.08307 -0.0665,0.137069 0,0.09138 -0.0208,0.103847 -0.14538,0.103847 -0.10384,0 -0.14538,-0.01662 -0.14538,-0.0623 0,-0.04568 0.0332,-0.0623 0.11215,-0.05403 0.0914,0.0083 0.11631,-0.0039 0.11631,-0.07065 0,-0.04568 -0.0207,-0.07893 -0.0457,-0.07475 -0.0291,0.0039 -0.16614,0.02072 -0.31152,0.03324 -0.265837,0.02906 -0.265837,0.02497 -0.473517,-0.145378 -0.1163,-0.09554 -0.22015,-0.195226 -0.23261,-0.224304 -0.0166,-0.02497 -0.11215,-0.369676 -0.216,-0.764279 -0.21598,-0.830745 -0.25752,-0.731056 0.36554,-0.905505 0.27414,-0.07475 0.448587,-0.149537 0.506747,-0.211845 0.0498,-0.05403 0.1163,-0.09553 0.14122,-0.09553 0.0291,0 0.19938,-0.03733 0.37799,-0.08723 l 0.323991,-0.08723 v -0.182766 c 0,-0.157838 0.0124,-0.182758 0.0872,-0.182758 0.0747,0 0.0789,0.01244 0.0373,0.05813 -0.0249,0.03324 -0.0415,0.103839 -0.0332,0.153688 0.0125,0.08307 0.0374,0.09553 0.20769,0.09969 0.11215,0 0.19937,-0.01244 0.19937,-0.02906 0,-0.02071 0.0457,-0.05403 0.10384,-0.07475 0.0914,-0.03324 0.10385,-0.06648 0.10385,-0.228456 0,-0.1038387 0.0125,-0.1869167 0.0291,-0.1869167 0.0208,0 0.0581,-0.01662 0.0872,-0.03733 0.0457,-0.02489 0.0166,-0.07892 -0.1163,-0.215988 -0.18691,-0.1993757 -0.26999,-0.3281437 -0.21599,-0.3281437 0.0207,0 0.0955,0.07475 0.17031,0.1661477 0.12045,0.153687 0.33644,0.323985 0.548288,0.436142 0.0457,0.02072 0.0789,0.06647 0.0789,0.09553 0,0.103847 0.1163,0.09139 0.68952,-0.05813 0.46937,-0.124608 0.6646,-0.153687 1.03427,-0.161997 0.24923,-0.0083 0.48183,-0.01662 0.51506,-0.02497 0.0332,-0.0083 0.0706,0.01662 0.0789,0.05403 0.008,0.04151 -0.008,0.07475 -0.0415,0.07475 -0.0291,0 -0.0997,0.02906 -0.14952,0.06647 -0.0914,0.0623 -0.0914,0.06648 -0.0208,0.1869167 0.0415,0.07065 0.0955,0.145378 0.12045,0.166148 0.0623,0.04986 0.18277,0.0039 0.18277,-0.07065 0,-0.07065 0.12461,-0.07892 0.12461,-0.0083 0.004,0.03324 0.025,0.02497 0.0581,-0.02071 0.0332,-0.04151 0.0665,-0.05403 0.0747,-0.02906 0.008,0.02906 0.43613,-0.07065 1.1755,-0.2741457 0.76428,-0.207678 1.23365,-0.315676 1.37072,-0.315676 0.24091,0.0039 3.58049,-0.8473554 3.66771,-0.9345834 0.0291,-0.02906 0.0872,-0.05403 0.12877,-0.05403 0.0373,0 0.108,-0.02489 0.14953,-0.05813 0.0457,-0.03324 0.0997,-0.04986 0.12462,-0.04151 0.0249,0.01244 0.1703,-0.03733 0.31983,-0.1038397 0.2783,-0.128767 0.82243,-0.294914 0.95536,-0.294914 0.0415,0 0.10799,0.06647 0.15783,0.166147 z m -0.42783,0.1495287 c -0.12877,0.02906 -0.12877,0.02497 -0.0665,0.236765 0.0332,0.124609 0.0581,0.153687 0.11215,0.132918 0.0373,-0.01244 0.12046,-0.03733 0.18276,-0.04986 0.12876,-0.02497 0.13707,-0.0623 0.0707,-0.257526 -0.0332,-0.09138 -0.0665,-0.1246087 -0.11631,-0.1121487 -0.0373,0.01245 -0.1163,0.03324 -0.18276,0.04986 z m -0.54829,0.149537 c -0.22846,0.08723 -0.23676,0.09554 -0.21184,0.215995 0.0166,0.07057 0.0415,0.14122 0.0623,0.1619887 0.0499,0.04986 0.54414,-0.05403 0.54414,-0.1121477 0,-0.09969 -0.0872,-0.357215 -0.12461,-0.357215 -0.0166,0 -0.14122,0.04151 -0.26999,0.091379 z m -7.84635,2.0477751 c -0.0124,0.03324 0.008,0.08723 0.0415,0.120458 0.0332,0.03324 0.0872,0.05403 0.12046,0.04151 0.0914,-0.03733 0.11631,-0.153688 0.0415,-0.211845 -0.0789,-0.05403 -0.1703,-0.03324 -0.20353,0.04986 z m -4.440306,1.125652 c -0.10799,0.03741 -0.19522,0.07065 -0.19522,0.07475 0,0.02497 0.0914,0.274145 0.0997,0.274145 0.0623,0 0.39876,-0.141227 0.39876,-0.166147 0,-0.04986 -0.0789,-0.249225 -0.0955,-0.249225 -0.008,0 -0.0997,0.02906 -0.20769,0.06647 z m 3.044666,0.386294 c 0,0.04568 0.0374,0.09554 0.0872,0.107997 0.1163,0.03733 0.13292,0.01244 0.0457,-0.09554 -0.0872,-0.112149 -0.13291,-0.1163 -0.13291,-0.01244 z m -1.341648,0.137076 c -0.0291,0.08723 0.0166,0.157838 0.0955,0.157838 0.0955,0 0.14123,-0.06647 0.108,-0.145378 -0.0291,-0.07475 -0.17861,-0.08308 -0.20353,-0.01244 z m -0.5026,0.124609 c 0.0374,0.112148 0.0374,0.186917 -0.004,0.311525 -0.0291,0.08723 -0.0208,0.09554 0.108,0.07065 0.18691,-0.03733 0.18691,-0.03733 0.0831,-0.166148 -0.0457,-0.0623 -0.0872,-0.153687 -0.0872,-0.207686 0,-0.0623 -0.025,-0.09969 -0.0665,-0.09969 -0.0457,0 -0.054,0.02489 -0.0332,0.09138 z m 0.18277,0 c 0,0.02906 0.0166,0.07475 0.0332,0.103839 0.0457,0.07065 0.14953,-0.0039 0.12045,-0.08722 -0.0291,-0.07893 -0.15368,-0.09139 -0.15368,-0.01662 z m 0.16615,0.240915 c 0,0.0623 0.15784,0.132918 0.18691,0.08307 0.0125,-0.02072 0.0125,-0.0623 0,-0.08307 -0.0332,-0.05403 -0.18691,-0.05403 -0.18691,0 z m 0.87227,0.373834 c 0,0.02071 0.0166,0.04151 0.0415,0.04151 0.0207,0 0.0415,-0.02072 0.0415,-0.04151 0,-0.02497 -0.0208,-0.04151 -0.0415,-0.04151 -0.025,0 -0.0415,0.01662 -0.0415,0.04151 z m 0.834898,0.448602 c -0.5566,0.336446 -0.48183,1.183802 0.12877,1.441328 0.39459,0.161997 0.85981,-0.02497 1.03426,-0.415364 0.162,-0.357223 0.0499,-0.801667 -0.25752,-1.005202 -0.30738,-0.203528 -0.58982,-0.207679 -0.90551,-0.02079 z m 1.33749,2.047776 c -0.0747,0.04568 -0.13707,0.09553 -0.13707,0.10384 0,0.0083 0.0914,0.01662 0.20353,0.01662 0.13708,0 0.22846,-0.02497 0.27414,-0.06647 0.13708,-0.137077 -0.13706,-0.178608 -0.3406,-0.05403 z"
       id="artillery" /></g></svg>
