<svg
   width="46.005558mm"
   height="9.2771416mm"
   viewBox="0 0 46.005558 9.2771416"
   version="1.1"
   id="svg5"
   xml:space="preserve"
   xmlns="http://www.w3.org/2000/svg"
   xmlns:svg="http://www.w3.org/2000/svg"><defs
     id="defs2" /><g
     id="layer1"
     transform="translate(-7.2950577,-109.80407)"><path
       d="m 28.124788,110.00717 c -0.110125,0.0532 -0.210506,0.15825 -0.237295,0.24526 -0.02661,0.10436 -0.145789,0.17495 -0.348459,0.19434 -0.239559,0.0197 -0.322018,0.0726 -0.338982,0.22026 -0.01733,0.11294 -0.07176,0.20023 -0.117866,0.2007 -0.193622,0.002 -0.06301,0.15676 0.177202,0.19772 0.184749,0.0328 0.285833,-0.003 0.404302,-0.14285 l 0.164052,-0.19248 0.0027,0.26887 c 0.0015,0.14745 -0.02365,0.39926 -0.04982,0.54699 -0.05296,0.23473 -0.0895,0.26979 -0.366125,0.27257 -0.175186,0.002 -0.313929,-0.0402 -0.314364,-0.0836 -0.0029,-0.27755 -0.414565,0.0388 -0.713621,0.56233 -0.226933,0.35792 -0.197355,0.54845 0.08169,0.78853 0.232436,0.1885 0.244185,0.43993 0.03323,0.55482 -0.137524,0.0795 -0.137263,0.10547 -0.04445,0.16526 0.204072,0.11939 -0.108783,2.0222 -0.321119,1.99831 -0.08315,-0.0165 -0.175882,-0.0676 -0.2132,-0.11062 -0.04672,-0.0603 -0.12961,-0.0508 -0.258005,0.0199 -0.247381,0.15862 -0.265906,0.15013 -0.379343,-0.1263 -0.103684,-0.22449 -0.103684,-0.22449 -0.17562,-0.0416 -0.06318,0.13942 -0.145695,0.18362 -0.403961,0.17754 -0.396568,-0.005 -0.425093,-0.0911 -0.07654,-0.27681 l 0.247643,-0.1326 -0.276523,0.0114 c -0.571324,0.0404 -0.673092,0.007 -0.740081,-0.23544 -0.02896,-0.12982 -0.10404,-0.25919 -0.15048,-0.29342 -0.04637,-0.0256 0.01523,-0.3211 0.140721,-0.678 0.161264,-0.47003 0.204761,-0.7307 0.155774,-1.01646 -0.05932,-0.39842 -0.217383,-0.52695 -0.21381,-0.17134 0.0041,0.39898 -0.08733,0.48664 -0.502242,0.49081 -0.378043,0.004 -0.396568,-0.005 -0.436414,-0.29922 -0.04005,-0.31187 0.04202,-0.40811 0.145782,-0.17495 0.05678,0.14689 0.333687,0.17014 0.332292,0.0313 -0.0015,-0.14744 -0.37571,-0.68149 -0.47713,-0.68047 -0.04611,4.6e-4 -0.08211,0.0876 -0.08115,0.18297 0.0014,0.13878 -0.04437,0.17393 -0.173798,0.14054 -0.268004,-0.058 -0.44188,0.0738 -0.292701,0.23714 0.102557,0.11174 0.08421,0.12059 -0.16544,0.0537 -0.157188,-0.0418 -0.286268,-0.0405 -0.285919,-0.006 4.36e-4,0.0434 0.139267,0.094 0.296354,0.12714 0.230949,0.0411 0.332113,0.014 0.432406,-0.0998 0.109247,-0.13988 0.118471,-0.13997 0.06511,0.0601 -0.02644,0.12171 -0.05261,0.26944 -0.05208,0.32148 7.84e-4,0.0781 -0.155621,0.11433 -0.432144,0.12578 l -0.442546,0.0131 0.369954,0.10905 c 0.369865,0.10037 0.445286,0.26443 0.235739,0.51809 -0.0364,0.0438 -0.09889,0.25254 -0.133771,0.4524 -0.0345,0.23456 -0.106893,0.37407 -0.189888,0.3749 -0.07376,7.4e-4 -0.129516,-0.0421 -0.129951,-0.0854 -5.23e-4,-0.0521 -0.08386,-0.0859 -0.176057,-0.085 -0.184413,0.002 -0.363866,-0.42138 -0.245753,-0.59605 0.02713,-0.0523 -0.05688,-0.15557 -0.186758,-0.23233 -0.296879,-0.17918 -0.535132,-0.0293 -0.449014,0.28209 0.03815,0.12973 0.02055,0.20797 -0.04402,0.20862 -0.06457,6.5e-4 -0.100723,0.0704 -0.08149,0.14829 0.0195,0.10389 -0.03519,0.16516 -0.173368,0.1839 -0.248601,0.0372 -0.274868,0.17624 -0.05208,0.32147 0.139266,0.094 0.139615,0.12871 0.03938,0.25115 -0.155002,0.17505 -0.560612,0.1878 -0.562355,0.0143 -6.98e-4,-0.0694 -0.05661,-0.12954 -0.111955,-0.12898 -0.08299,8.3e-4 -0.07403,-0.0253 0.01759,-0.0869 0.119161,-0.0706 0.1189,-0.0966 -0.01146,-0.22542 -0.139536,-0.12004 -0.176491,-0.12834 -0.414926,0.004 -0.146827,0.0709 -0.210672,0.14091 -0.146043,0.14893 0.0554,0.008 0.147699,0.0159 0.19389,0.0241 0.04611,-4.7e-4 0.120219,0.0335 0.15745,0.0678 0.03729,0.043 -0.100735,0.0704 -0.312802,0.0725 -0.212074,0.002 -0.38691,0.0386 -0.386387,0.0906 4.36e-4,0.0434 -0.05444,0.0873 -0.128214,0.088 -0.221291,0.002 -0.247469,0.14994 -0.07871,0.42582 0.131083,0.1982 0.141176,0.28484 0.05897,0.36373 -0.155258,0.14903 -0.396219,0.03 -0.398397,-0.18683 -0.0017,-0.17347 -0.03867,-0.18177 -0.434745,-0.13442 -0.248602,0.0372 -0.607589,0.10152 -0.810012,0.14693 -0.30366,0.0638 -0.321925,0.0813 -0.109769,0.0878 0.304357,0.006 0.333505,0.15278 0.04812,0.19902 -0.156577,0.0189 -0.220336,0.0976 -0.23712,0.26261 -0.02557,0.20844 -0.07132,0.2436 -0.301836,0.24591 -0.22129,0.002 -0.267738,-0.032 -0.269568,-0.21415 -0.0019,-0.19081 -0.03903,-0.21646 -0.343337,-0.2134 -0.193636,0.002 -0.534172,0.0661 -0.764082,0.12911 -0.39526,0.12541 -0.40439,0.13418 -0.109327,0.13121 0.451881,0.004 0.352204,0.17863 -0.10882,0.18326 -0.387264,0.004 -0.41475,0.0215 -0.5133,0.30875 -0.05365,0.16536 -0.135253,0.30496 -0.162913,0.30524 -0.03685,3.7e-4 -0.562362,0.0143 -1.179964,0.0379 -0.820529,0.017 -1.115752,0.002 -1.116536,-0.0755 -6.1e-4,-0.0607 0.03598,-0.0871 0.08238,-0.0616 0.166927,0.0937 0.440052,-0.25598 0.437177,-0.54219 -0.0025,-0.24287 0.02493,-0.27783 0.20946,-0.26234 0.110816,0.0162 0.294969,-0.0116 0.386735,-0.056 0.348976,-0.1423 -2.554242,0.008 -2.949243,0.15974 -0.2021475,0.0714 -0.6805575,0.18032 -1.0579905,0.24484 -0.690402,0.1197 -1.159429,0.24585 -1.09427,0.30591 0.01863,0.0172 0.331757,-0.0207 0.681443,-0.0936 0.358974,-0.0643 0.727279,-0.12007 0.819395,-0.12967 0.165969,-0.002 0.166056,0.007 0.02922,0.15584 -0.200752,0.2102 -0.190926,0.27082 0.05897,0.36373 0.138838,0.0507 -0.155955,0.0796 -0.921256,0.0873 -0.792875,0.0166 -1.125074,-0.006 -1.153512,-0.0838 -0.02835,-0.0691 -0.05592,-0.0602 -0.09195,0.0269 -0.05391,0.13933 0.539421,1.37379 0.715658,1.47611 0.05566,0.0341 9.5069735,-0.0261 21.0048755,-0.14162 l 20.902765,-0.20992 0.237287,-0.24527 c 0.127779,-0.1314 0.227891,-0.26252 0.227542,-0.29721 -0.0011,-0.10408 1.946705,-1.73707 2.304301,-1.94016 0.192581,-0.10603 0.366376,-0.24657 0.393343,-0.31623 0.04504,-0.10455 -0.157883,-0.11118 -1.254597,-0.0481 -0.718844,0.042 -1.456043,0.0927 -1.640275,0.1119 -0.184239,0.0192 -0.746335,0.0596 -1.253201,0.0907 -3.778371,0.23747 -5.445968,0.38433 -5.527822,0.49793 -0.07298,0.0788 -0.505809,0.13519 -1.473615,0.17961 -0.764947,0.0424 -1.492922,0.0931 -1.621754,0.12039 -0.193274,0.0366 -0.350717,-0.0311 -0.713278,-0.32247 -0.659887,-0.51382 -0.633447,-0.63553 0.113155,-0.66905 0.322627,-0.0119 0.691181,-0.0416 0.80156,-0.0688 0.119696,-0.0185 0.506518,-0.0658 0.856633,-0.0953 0.847672,-0.0692 1.059304,-0.11473 1.058172,-0.22749 -9.86e-4,-0.0954 -1.733964,-0.0346 -2.783965,0.0887 -0.386816,0.0473 -0.479287,0.0221 -0.730154,-0.16616 -0.250955,-0.19699 -0.361864,-0.22189 -1.044177,-0.21504 -0.461023,0.005 -0.801742,0.0515 -0.865682,0.11279 -0.164393,0.15779 -0.138978,0.85147 0.0362,0.84971 0.07377,-7.4e-4 0.139092,0.0767 0.140051,0.17208 0.0015,0.15612 -0.06283,0.17412 -0.59759,0.17949 -0.405696,0.004 -0.618118,-0.0285 -0.637335,-0.10636 -0.171029,-0.50139 -0.162417,-0.5622 0.195788,-0.70458 0.183623,-0.0799 0.247642,-0.13261 0.137263,-0.10548 -0.138047,0.0275 -0.212161,-0.006 -0.212945,-0.0846 -6.98e-4,-0.0694 -0.02879,-0.11247 -0.0657,-0.1121 -0.441883,0.0738 -0.527041,-0.14217 -0.09481,-0.25928 0.275825,-0.0808 0.275825,-0.0808 0.05443,-0.0873 -0.129167,-0.007 -0.433705,-0.0303 -0.664486,-0.0541 -0.36933,-0.0484 -0.424482,-0.0304 -0.478147,0.13492 -0.05365,0.16534 -0.12725,0.18344 -0.652824,0.18872 -0.571665,0.006 -0.590017,0.0146 -0.587925,0.22276 0.0014,0.13878 -0.05314,0.21739 -0.145352,0.21832 -0.101433,9.9e-4 -0.128564,0.0534 -0.08125,0.1743 0.08552,0.25069 -0.03476,0.20853 -0.138826,-0.0507 -0.07542,-0.16405 -0.05801,-0.26832 0.04202,-0.40812 0.209292,-0.27968 0.170841,-0.43543 -0.0775,-0.37221 -0.202416,0.0454 -0.221029,0.0282 -0.215641,-0.35348 l 0.0051,-0.40775 -0.783833,-8.1e-4 c -0.737634,0.007 -0.783825,-8.2e-4 -0.813403,-0.19133 -0.0195,-0.1039 -0.06649,-0.19017 -0.112565,-0.18971 -0.03685,3.7e-4 -0.06572,-0.12078 -0.05809,-0.27699 0.0071,-0.20826 -0.03973,-0.28586 -0.159891,-0.31067 -0.230947,-0.0411 -0.541739,0.23097 -0.438664,0.39475 0.0377,0.0777 0.02991,0.22523 -0.02425,0.33854 -0.126385,0.27018 -0.485808,0.29113 -0.534614,0.0227 -0.02931,-0.16452 -0.0849,-0.18997 -0.518262,-0.18562 -0.53487,-0.003 -0.709016,0.10254 -0.769812,0.47614 -0.01724,0.12161 -0.06544,-0.0861 -0.115353,-0.46725 -0.09039,-0.73641 -0.04521,-0.83228 0.388116,-0.83663 0.165968,-0.002 0.202503,-0.0367 0.155271,-0.14903 -0.04707,-0.0949 0.01636,-0.20835 0.18109,-0.33144 0.137269,-0.10547 0.218936,-0.23641 0.181538,-0.28807 -0.08429,-0.12927 -0.350638,-0.0225 -0.293828,0.12439 0.02843,0.0778 -0.01723,0.12161 -0.127873,0.12272 -0.119858,0.001 -0.183797,0.0626 -0.182665,0.17533 0.0027,0.26887 -0.292971,0.21112 -0.480333,-0.0819 -0.150052,-0.25004 -0.150138,-0.25872 0.04245,-0.36475 0.110031,-0.0618 0.321146,-0.15936 0.468154,-0.21288 0.55131,-0.19637 0.244418,-0.45352 -0.344035,-0.2828 -0.459797,0.12606 -0.506077,0.10918 -0.546961,-0.28943 -0.02966,-0.19921 -0.04066,-0.37258 -0.02238,-0.39011 0.0091,-0.0174 0.09308,0.0858 0.18676,0.23233 0.177979,0.27578 0.279847,0.31814 0.490606,0.1859 0.100816,-0.0618 0.0902,-0.20041 -0.100484,-0.82304 -0.123953,-0.40645 -0.265666,-0.74333 -0.3209,-0.7341 -0.04611,4.7e-4 -0.18397,0.0452 -0.29409,0.0984 z m -4.361991,3.64364 c -0.01759,0.0869 -0.08838,0.38256 -0.150131,0.66076 -0.105681,0.4955 -0.160829,0.5134 -0.303487,0.0811 -0.05678,-0.14689 -0.02957,-0.19054 0.09942,-0.20051 0.13831,-0.001 0.138135,-0.0187 -0.02843,-0.0778 -0.110997,-0.0336 -0.222864,-0.1539 -0.25149,-0.24902 -0.03839,-0.14708 0.0072,-0.19959 0.237126,-0.26262 0.423001,-0.11701 0.450663,-0.11729 0.397005,0.0481 z m -12.196521,3.08913 c -0.08132,0.16563 -0.173355,0.18391 -0.763633,0.17248 -0.368826,0.004 -0.516613,-0.0208 -0.341597,-0.04 0.423613,-0.0563 0.578972,-0.19665 0.228335,-0.21915 -0.15684,-0.007 -0.0096,-0.0346 0.322105,-0.064 0.331675,-0.0294 0.608113,-0.0495 0.626639,-0.041 0.01854,0.008 -0.0082,0.0955 -0.07185,0.19156 z m 0.525836,0.0208 c -0.02696,0.0697 -0.05487,0.0439 -0.05583,-0.0515 -0.01019,-0.0953 0.01698,-0.14763 0.04497,-0.11322 0.02792,0.0257 0.0379,0.10372 0.01085,0.16471 z m -0.467023,0.32564 c -0.03632,0.0524 -0.229728,0.0804 -0.423532,0.065 -0.350644,-0.0225 -0.497289,0.0657 -0.247468,0.14995 0.05557,0.0255 -0.05487,0.0439 -0.257738,0.0459 -0.313491,0.003 -0.332024,-0.005 -0.139004,-0.068 0.193019,-0.0627 0.109341,-0.13121 -0.111599,-0.0943 -0.04611,4.7e-4 -0.07403,-0.0253 -0.07455,-0.0773 -4.37e-4,-0.0434 0.248166,-0.0806 0.561658,-0.0837 0.304365,0.006 0.58072,-0.0232 0.608119,-0.0495 0.0822,-0.0789 0.147611,0.007 0.08411,0.11192 z m 0.590277,0.0114 c 4.37e-4,0.0434 -0.100641,0.0791 -0.229721,0.0804 -0.129093,0.001 -0.231035,-0.0497 -0.231731,-0.11911 -7.85e-4,-0.0781 0.07272,-0.10482 0.229814,-0.0717 0.129254,0.016 0.231202,0.0671 0.231638,0.11044 z m -1.936378,0.0108 c 4.34e-4,0.0434 -0.06397,0.0614 -0.137961,0.0361 -0.07411,-0.0339 -0.139,-0.068 -0.139173,-0.0853 -1.75e-4,-0.0173 0.06422,-0.0353 0.137953,-0.0361 0.07377,-7.4e-4 0.138658,0.0333 0.139181,0.0853 z m -0.0254,0.22579 c -0.02739,0.0264 -0.110306,0.0358 -0.175104,0.0104 -0.07402,-0.0253 -0.04663,-0.0516 0.05479,-0.0526 0.101333,-0.01 0.156915,0.0158 0.1203,0.0422 z m 1.300163,-0.004 c -0.09203,0.0183 -0.239552,0.0198 -0.322715,0.003 -0.09245,-0.0251 -0.0189,-0.0432 0.156318,-0.045 0.175185,-0.002 0.249124,0.0148 0.166397,0.0417 z m 0.140051,0.17208 c -0.119695,0.0185 -0.32254,0.0206 -0.461023,0.005 -0.147698,-0.0159 -0.04646,-0.0342 0.202504,-0.0367 0.258172,-0.003 0.368994,0.0136 0.258519,0.0321 z"
       id="battleship-1" /></g></svg>
