<svg
   width="16.413355mm"
   height="16.413376mm"
   viewBox="0 0 16.413355 16.413376"
   version="1.1"
   id="svg5"
   xml:space="preserve"
   xmlns="http://www.w3.org/2000/svg"
   xmlns:svg="http://www.w3.org/2000/svg"><defs
     id="defs2" /><g
     id="layer1"
     transform="translate(-150.97919,-91.6273)"><g
       transform="matrix(0.00949603,0,0,-0.009515,148.42063,110.467)"
       fill="#000000"
       stroke="none"
       id="emblem-US"><path
         d="m 903.95368,1938.54 c -256.15588,-71.7741 -449.47947,-236.8421 -560.64,-483.254 -43.49741,-93.3041 -55.58313,-160.2837 -55.58313,-342.107 0,-210.52927 7.24905,-241.62693 79.74683,-387.55876 367.3173,-741.625514 1491.01452,-564.59657 1619.09132,253.58892 79.7457,497.60584 -277.905,947.36984 -780.5455,983.25254 -113.5797,7.2053 -212.65919,0 -302.06952,-23.9217 z"
         id="path565-45-4-6"
         style="fill:#ffffff;fill-opacity:1;stroke-width:2.40442" /><path
         d="m 1030,1359 c -211,-95 -214,-386 -5,-485 99,-47 226,-23 302,57 160,170 41,449 -192,449 -39,0 -76,-8 -105,-21 z"
         id="path648"
         style="fill:#990e0e;fill-opacity:1" /><path
         id="path652"
         d="M 884,599 C 747,500 634,415 632,411 c -3,-9 89,-64 158,-94 113,-49 185,-62 345,-62 177,0 243,14 380,81 104,50 133,70 119,83 -11,10 -474,344 -490,354 -7,4 -121,-72 -260,-174 z m 821,597 c -137,-101 -249,-187 -248,-192 6,-39 190,-584 196,-584 17,0 149,135 193,196 100,140 144,274 151,464 5,130 -12,270 -34,291 -5,4 -120,-75 -258,-175 z M 287,1305 c -25,-110 -23,-289 4,-396 29,-114 83,-228 158,-326 53,-70 150,-163 170,-163 3,0 49,133 102,296 l 97,295 -52,38 c -199,146 -455,331 -459,331 -2,0 -11,-34 -20,-75 z m 859,653 c 3,-13 47,-146 96,-295 l 89,-273 h 314 c 173,0 315,3 315,7 0,25 -99,201 -149,265 -141,178 -411,318 -614,318 -56,0 -58,-1 -51,-22 z m -226,-2 c -262,-69 -463,-237 -576,-482 -19,-40 -34,-75 -34,-78 0,-3 142,-6 315,-6 h 314 l 92,283 c 50,155 94,288 96,295 8,20 -112,14 -207,-12 z"
         style="fill:#1f1d75;fill-opacity:1" /></g></g></svg>
