<svg
   width="15.741012mm"
   height="13.342591mm"
   viewBox="0 0 15.741012 13.342591"
   version="1.1"
   id="svg5"
   xml:space="preserve"
   xmlns="http://www.w3.org/2000/svg"
   xmlns:svg="http://www.w3.org/2000/svg"><defs
     id="defs2" /><g
     id="layer1"
     transform="translate(-118.4777,-48.366713)"><path
       d="m 126.30966,48.532889 c -0.0234,0.02755 -0.0724,0.126989 -0.10751,0.218089 -0.19399,0.49138 -0.31318,1.377529 -0.34357,2.525939 l -0.0164,0.621133 -0.68947,0.08283 c -0.45108,0.05519 -0.69181,0.07452 -0.69415,0.05519 -0.003,-0.01378 -0.0211,-0.295386 -0.042,-0.621133 -0.0421,-0.681863 -0.0631,-0.797813 -0.15426,-0.913755 -0.12153,-0.154594 -0.11919,-0.154594 0.46511,-0.168397 0.38797,-0.0087 0.5469,-0.01932 0.58663,-0.04696 0.0514,-0.03319 0.0537,-0.04142 0.0187,-0.07174 -0.0561,-0.04696 -0.3272,-0.09386 -0.65908,-0.110422 -0.15425,-0.0087 -0.34591,-0.02209 -0.42537,-0.03041 l -0.14724,-0.01655 v -0.0911 c 0,-0.242939 -0.16828,-0.367164 -0.31318,-0.231891 -0.0514,0.04696 -0.0607,0.07729 -0.0607,0.190483 v 0.132508 l -0.1449,0.01655 c -0.0818,0.0087 -0.27813,0.02209 -0.4394,0.03041 -0.49081,0.02755 -0.74322,0.08561 -0.68012,0.160114 0.0421,0.04965 0.25009,0.07174 0.72219,0.07174 l 0.44874,0.0026 v 0.06351 c 0,0.03587 -0.0211,0.08835 -0.0444,0.113187 -0.0748,0.08006 -0.0958,0.265016 -0.11218,0.971729 -0.014,0.654258 -0.0164,0.679108 -0.0631,0.69843 -0.0281,0.01378 -0.17997,0.03587 -0.34123,0.05519 -0.16127,0.01932 -0.32488,0.03864 -0.3646,0.04696 l -0.0724,0.01664 -0.0257,-0.223608 c -0.0327,-0.265016 -0.12621,-0.60733 -0.19633,-0.723271 -0.0935,-0.146311 -0.17295,-0.08561 -0.23839,0.184955 -0.0421,0.162878 -0.0841,0.518994 -0.0841,0.690147 0,0.102147 -0.007,0.121469 -0.0514,0.135272 -0.0304,0.0052 -0.68011,0.08834 -1.44438,0.179436 -0.76426,0.0911 -1.46308,0.184964 -1.54955,0.207041 -0.20334,0.05242 -0.34825,0.168397 -0.39966,0.317472 -0.14024,0.414092 0.13322,0.739838 0.81801,0.966202 0.14959,0.04974 0.51652,0.129753 0.8858,0.193247 0.61467,0.104903 0.63805,0.110422 0.88813,0.240166 0.28046,0.143556 0.36227,0.154595 0.75023,0.104903 0.1192,-0.01378 0.17062,-0.01109 0.18465,0.01109 0.009,0.01932 0.0304,0.135272 0.0467,0.259497 0.0328,0.223608 0.0304,0.226363 -0.0187,0.26778 -0.0281,0.0221 -0.0865,0.08006 -0.13087,0.129744 -0.0724,0.08561 -0.0771,0.09938 -0.0607,0.223609 0.009,0.07174 0.0257,0.143547 0.0398,0.162877 0.0537,0.07729 0.50717,0.118697 0.67311,0.06351 0.1005,-0.03319 0.11686,-0.06628 0.11686,-0.229127 0,-0.171153 -0.0257,-0.223609 -0.15426,-0.311944 l -0.10517,-0.07174 0.0164,-0.198758 c 0.009,-0.107666 0.0187,-0.201522 0.0234,-0.20705 0.0117,-0.01655 0.92786,0.138037 0.9489,0.160123 0.007,0.0087 0.0257,0.184955 0.0398,0.389241 0.014,0.204277 0.0328,0.452736 0.0398,0.552119 l 0.014,0.179436 -0.10752,0.03587 c -0.0935,0.02755 -0.11452,0.04965 -0.14724,0.138028 -0.0328,0.08834 -0.0328,0.143547 -0.009,0.419611 0.0514,0.596282 0.13556,0.913755 0.28748,1.076624 l 0.0771,0.08283 0.014,0.657022 c 0.009,0.358881 0.0164,0.869591 0.0187,1.12908 l 0.003,0.477585 h -0.19165 c -0.22437,0 -0.32955,0.05519 -0.44641,0.226364 -0.0607,0.08835 -0.0724,0.132508 -0.0818,0.311953 -0.014,0.253969 0.0304,0.414082 0.14724,0.535552 0.1005,0.102139 0.21035,0.140791 0.41602,0.140791 h 0.15659 v 0.121461 c 0,0.146311 0.0701,0.265017 0.15425,0.265017 0.0958,0 0.19632,-0.07729 0.19632,-0.149067 0,-0.03587 0.007,-0.104902 0.014,-0.151839 l 0.0164,-0.08561 h 2.15488 2.15723 l 0.014,0.08561 c 0.007,0.04696 0.014,0.11595 0.014,0.151839 0,0.07174 0.10049,0.149067 0.19632,0.149067 0.0841,0 0.15426,-0.118706 0.15426,-0.265017 v -0.121461 h 0.17062 c 0.20566,0 0.32019,-0.03587 0.41367,-0.129752 0.11452,-0.113178 0.16361,-0.253969 0.16361,-0.474822 0,-0.226364 -0.0187,-0.292622 -0.1192,-0.427886 -0.10283,-0.140791 -0.201,-0.1822 -0.4207,-0.1822 h -0.18463 l 0.003,-0.380957 c 0,-0.20705 0.009,-0.714997 0.0164,-1.129089 l 0.0164,-0.748113 0.0841,-0.09662 c 0.0467,-0.05242 0.10051,-0.140791 0.12387,-0.196002 0.10985,-0.276064 0.20802,-1.057311 0.1566,-1.258833 -0.0281,-0.113186 -0.11453,-0.193238 -0.21269,-0.193238 -0.0561,0 -0.0561,0.01655 -0.004,-0.648739 l 0.0398,-0.496908 0.47211,-0.08006 c 0.26176,-0.04419 0.47913,-0.07729 0.4838,-0.06906 0.004,0.0052 0.0164,0.09938 0.0257,0.204286 l 0.0164,0.196003 -0.10985,0.08006 c -0.12153,0.0911 -0.15191,0.154586 -0.15191,0.325747 0,0.143547 0.014,0.168397 0.11686,0.207041 0.15892,0.06074 0.61935,0.0221 0.67311,-0.05797 0.014,-0.01932 0.0304,-0.0911 0.0398,-0.162878 0.0164,-0.124225 0.0117,-0.138028 -0.0607,-0.223608 -0.0444,-0.04965 -0.10283,-0.107667 -0.13088,-0.129744 -0.049,-0.04142 -0.049,-0.04696 -0.0187,-0.270545 0.0187,-0.124225 0.0398,-0.240166 0.049,-0.256733 0.0117,-0.0221 0.0677,-0.02478 0.1823,-0.01109 0.38798,0.04973 0.46977,0.03865 0.75024,-0.104902 0.25008,-0.129744 0.27344,-0.135264 0.88813,-0.240167 0.67778,-0.11595 1.02836,-0.218088 1.30415,-0.369919 0.38564,-0.218088 0.51652,-0.485869 0.39265,-0.808852 -0.0654,-0.165641 -0.22905,-0.278819 -0.46978,-0.322991 -0.0444,-0.0087 -0.70816,-0.0911 -1.47243,-0.1822 -0.76425,-0.0911 -1.41166,-0.173917 -1.4397,-0.179436 -0.0444,-0.011 -0.0514,-0.03864 -0.0631,-0.2733 -0.0257,-0.447216 -0.12154,-0.817135 -0.21268,-0.817135 -0.10051,0 -0.22672,0.320227 -0.28748,0.739838 -0.0211,0.146311 -0.0398,0.270536 -0.0421,0.2733 -0.004,0.011 -0.77828,-0.09386 -0.79932,-0.110422 -0.014,-0.01109 -0.0304,-0.303669 -0.0398,-0.701194 -0.0164,-0.73431 -0.0304,-0.864063 -0.10516,-0.957918 -0.0281,-0.03319 -0.0491,-0.08834 -0.0491,-0.12147 0,-0.06074 0.003,-0.06074 0.45108,-0.06351 0.46977,0 0.67777,-0.02209 0.71985,-0.07174 0.0631,-0.07452 -0.18932,-0.132508 -0.68012,-0.160122 -0.16127,-0.0087 -0.35759,-0.0221 -0.43706,-0.03041 l -0.14724,-0.01655 v -0.132508 c 0,-0.113177 -0.009,-0.143547 -0.0607,-0.190474 -0.14491,-0.135273 -0.31319,-0.01109 -0.31319,0.231891 0,0.09109 -0.003,0.09386 -0.12153,0.107658 -0.0677,0.0087 -0.27111,0.0221 -0.45108,0.03041 -0.34122,0.01932 -0.6287,0.06897 -0.67077,0.118706 -0.0164,0.01932 -0.007,0.03864 0.0304,0.06351 0.0398,0.02764 0.20801,0.03864 0.58897,0.04696 0.50483,0.011 0.53055,0.01378 0.53055,0.06351 0,0.03041 -0.0164,0.06074 -0.0351,0.07174 -0.0467,0.01932 -0.1192,0.187719 -0.1379,0.311944 -0.014,0.0911 -0.0841,1.11804 -0.0841,1.220179 0,0.06628 -0.0607,0.06351 -0.78295,-0.02755 l -0.5843,-0.07451 -0.0164,-0.496908 c -0.0467,-1.441024 -0.21034,-2.512137 -0.43472,-2.826836 -0.0631,-0.0911 -0.0654,-0.0911 -0.10984,-0.04142 z m -0.84606,6.619891 0.88345,0.151831 0.88112,-0.151831 c 0.4838,-0.08283 0.91852,-0.154594 0.96292,-0.157358 l 0.0818,-0.0052 0.0257,0.469302 c 0.0281,0.502428 0.0281,0.510711 -0.0841,0.510711 -0.10284,0 -0.20568,0.09662 -0.22437,0.209806 -0.0328,0.204286 0.0444,0.877865 0.13321,1.156685 0.0468,0.146311 0.15193,0.306424 0.2384,0.361635 0.0444,0.03033 0.049,0.115942 0.10049,1.755732 l 0.0164,0.518994 h -2.13152 -2.12917 V 59.84058 c 0.003,-0.513466 0.0724,-2.117368 0.0958,-2.128415 0.0678,-0.02478 0.18462,-0.1822 0.23137,-0.311944 0.10284,-0.281583 0.19165,-0.985533 0.15426,-1.220179 -0.0187,-0.113186 -0.12153,-0.209806 -0.22437,-0.209806 -0.10752,0 -0.10985,-0.01109 -0.0818,-0.510711 0.0164,-0.259497 0.0304,-0.474821 0.0328,-0.480341 0,-0.0052 0.0374,-0.0026 0.0795,0.0087 0.0398,0.0087 0.47212,0.08283 0.95825,0.165633 z"
       id="jet-US" /></g></svg>
