<svg
   width="10.584507mm"
   height="10.650569mm"
   viewBox="0 0 10.584507 10.650569"
   version="1.1"
   id="svg5"
   xml:space="preserve"
   xmlns="http://www.w3.org/2000/svg"
   xmlns:svg="http://www.w3.org/2000/svg"><defs
     id="defs2" /><g
     id="layer1"
     transform="translate(-31.509078,-7.9243783)"><path
       d="m 36.264109,16.826622 c 0.0437,0.0179 0.0877,0.028 0.11108,0.0333 0.0365,-0.0758 0.0716,-0.14494 0.10277,-0.21588 0.0112,-0.0254 0.0124,-0.055 0.0117,-0.0834 -0.0794,0.0856 -0.15234,0.17186 -0.22552,0.26591 z m 4.8196,-5.25595 c -0.0955,0.0187 -0.0931,0.0862 -0.087,0.15343 0.004,0.0443 0.0135,0.0881 0.0207,0.14127 0.068,-0.0778 0.14507,-0.0586 0.23414,-0.0229 0.18522,0.0743 0.37332,0.14198 0.5624,0.20599 0.0839,0.0284 0.14735,-0.0399 0.11656,-0.12165 -0.009,-0.0232 -0.0399,-0.044 -0.0655,-0.0541 -0.25744,-0.10184 -0.51585,-0.20124 -0.78128,-0.3021 z m -0.007,-5e-4 c -0.0131,-0.0434 -0.0405,-0.0881 -0.0367,-0.12994 0.01,-0.10612 -0.0212,-0.1758 -0.12645,-0.21371 -0.11576,-0.0417 -0.229,-0.0908 -0.34163,-0.14048 -0.0991,-0.0438 -0.19363,-0.0663 -0.28543,0.0162 -0.0122,0.011 -0.0392,0.0159 -0.0552,0.0106 -0.25967,-0.0855 -0.51866,-0.17312 -0.7872,-0.26342 0.13091,-0.0302 0.17855,-0.0936 0.1954,-0.22796 0.0149,-0.11821 -0.0438,-0.17639 -0.14734,-0.20859 -0.20373,-0.0633 -0.39638,-0.17302 -0.60584,-0.14504 -0.0512,-0.0556 -0.0949,-0.10311 -0.15479,-0.16812 -0.005,-0.1070297 -0.11065,-0.1231297 -0.25106,-0.1117597 -0.12016,0.01 -0.18219,0.06 -0.24355,0.1324597 -0.0417,0.0493 -0.0785,0.11432 -0.0856,0.17599 -0.003,0.0266 0.0702,0.0716 0.11602,0.0924 0.11392,0.0517 0.23196,0.0944 0.34835,0.14069 -5e-4,0.009 -0.001,0.0183 -0.002,0.0275 -0.0605,-0.007 -0.12132,-0.0127 -0.18155,-0.0218 -0.0486,-0.007 -0.0966,-0.0271 -0.12489,0.0388 -0.006,0.014 -0.0405,0.0177 -0.0627,0.0224 -0.0342,0.007 -0.0754,0.002 -0.10238,0.0188 -0.11719,0.0753 -0.2101,0.003 -0.31081,-0.0391 -0.0546,-0.023 -0.11537,-0.031 -0.17237,-0.0488 -0.0965,-0.0303 -0.19223,-0.063 -0.30068,-0.0988 0.10489,-0.0707 0.1806,-0.13044 0.14504,-0.27545 -0.0224,-0.0913 0.0301,-0.2010597 0.0504,-0.3103997 0.0997,-0.005 0.10917,-0.0689 0.0671,-0.15065 -0.0498,-0.0968 -0.0251,-0.19419 0.002,-0.2861797 0.0108,-0.0373 0.0675,-0.066 0.10868,-0.0888 0.0694,-0.0385 0.0913,-0.0768 0.0397,-0.15055 -0.0205,-0.0293 -0.0176,-0.0831 -0.009,-0.12227 0.0101,-0.0472 0.0329,-0.0934 0.0582,-0.1352997 0.0464,-0.0773 0.0481,-0.14413 -0.003,-0.22484 -0.0807,-0.12772 -0.0623,-0.16572 0.077,-0.23245 0.0164,-0.008 0.0394,-0.0301 0.0374,-0.0419 -0.003,-0.0214 -0.0198,-0.0474 -0.0384,-0.0578 -0.03,-0.0168 -0.0656,-0.0263 -0.0999,-0.0322 -0.0819,-0.0138 -0.1062,-0.0549 -0.0563,-0.14977 -0.10843,-0.0217 -0.20817,-0.0417 -0.31477,-0.063 -0.015,0.0613 -0.0265,0.10812 -0.0345,0.141 -0.13431,0.11549 -0.28149,0.0786 -0.4284,0.0691 -0.3008,-0.0194 -0.59087,0.0271 -0.86022,0.1711097 -0.16539,0.0885 -0.25726,0.22728 -0.27434,0.41318 -0.0187,0.20394 -0.0327,0.40831 -0.05,0.6123797 -0.0145,0.17077 0.12322,0.22195 0.23137,0.29484 0.0711,0.0479 0.073,0.0451 0.051,0.16036 -0.50223,-0.0739 -0.9023,0.1131297 -1.19259,0.5102997 -0.10257,-0.0631 -0.18884,-0.1322 -0.28688,-0.17313 -0.20791,-0.0868 -0.30443,-0.0261 -0.32676,0.19403 -0.0106,0.10444 -0.0826,0.13544 -0.16533,0.16715 -0.0607,0.0232 -0.12816,0.0505 -0.16989,0.0966 -0.0688,0.0759 -0.0556,0.16839 0.002,0.25881 -0.0792,0.0987 -0.17235,0.19053 -0.13473,0.34415 0.01,0.0404 -0.0547,0.10056 -0.0877,0.1499 -0.14048,0.21003 -0.28662,0.41647 -0.42065,0.63051 -0.0514,0.0821 -0.0828,0.17887 -0.11125,0.2726 -0.0492,0.16197 0.0168,0.30566 0.1712,0.34536 0.16367,0.0421 0.29463,0.10885 0.34806,0.28111 0.005,0.0151 0.0213,0.0264 0.0405,0.0489 0.0376,-0.0357 0.0718,-0.068 0.11829,-0.112 -0.0141,0.10215 -0.026,0.18882 -0.0411,0.29752 -0.11356,-0.006 -0.22952,-0.0157 -0.34564,-0.0182 -0.14786,-0.003 -0.29589,-0.002 -0.44376,2.5e-4 -0.0741,0.002 -0.12245,0.0428 -0.15028,0.11295 -0.0583,0.1471 -0.12061,0.29262 -0.17965,0.43944 -0.009,0.0217 -0.0154,0.0482 -0.0114,0.0705 0.0132,0.074 0.0317,0.14711 0.048,0.21941 -0.0501,0.0177 -0.0794,0.028 -0.12904,0.0456 0.0673,0.13596 0.10001,0.31027 0.20423,0.38567 0.13887,0.10047 0.21568,0.26144 0.37789,0.3344 0.14732,0.0663 0.28191,0.0835 0.41894,-0.0143 0.0285,0.11013 0.0615,0.12206 0.22964,0.096 0.0698,0.0869 0.13051,0.17241 0.20149,0.24825 0.0867,0.0926 0.14432,0.18781 0.10904,0.32198 -0.0185,0.0704 0.0125,0.12269 0.0873,0.14455 0.0263,0.008 0.0501,0.0232 0.087,0.0409 -0.0736,0.13743 -0.005,0.24384 0.072,0.34833 0.0573,0.078 0.0661,0.13796 -0.0258,0.20986 -0.0634,0.0495 -0.0946,0.14011 -0.15411,0.23448 -0.0607,0.009 -0.15401,0.0227 -0.24745,0.0358 -0.0172,0.002 -0.0374,0.007 -0.0521,0.001 -0.25023,-0.10321 -0.52548,-0.0525 -0.7809,-0.12678 -0.0389,-0.0113 -0.0969,5e-4 -0.13117,0.0237 -0.10099,0.0682 -0.20392,0.0699 -0.31116,0.03 -0.23411,-0.0869 -0.45728,-0.0326 -0.68107,0.0433 -0.0605,0.0205 -0.12642,0.0294 -0.19056,0.0342 -0.0899,0.007 -0.14029,0.0488 -0.13652,0.13925 0.006,0.13404 0.0165,0.26788 0.0275,0.40162 0.002,0.0196 0.0108,0.0452 0.0254,0.0563 0.12571,0.096 0.11357,0.23286 0.11171,0.36632 -0.002,0.14264 -0.002,0.28726 0.0951,0.4026 0.0621,0.0743 0.13293,0.15139 0.21658,0.1955 0.18836,0.0993 0.39339,0.14644 0.60917,0.15721 0.12705,0.006 0.15592,-0.07 0.18252,-0.15936 0.0256,-0.0861 0.007,-0.15907 -0.0743,-0.21106 -0.17582,-0.11303 -0.19218,-0.17463 -0.11959,-0.38216 0.0186,-0.0533 0.0192,-0.11285 0.0281,-0.16953 0.01,-0.001 0.0197,-0.003 0.0294,-0.005 0.0133,0.0427 0.0267,0.0853 0.0399,0.12805 0.0394,0.12844 0.0801,0.1395 0.21183,0.16119 0.30152,0.0497 0.60042,0.11576 0.89955,0.17913 0.16083,0.034 0.31321,0.0901 0.48769,0.0455 0.0954,-0.0244 0.20764,0.0237 0.31281,0.0294 0.17971,0.01 0.36404,0.0384 0.53852,0.0102 0.15657,-0.0254 0.30999,-0.10317 0.45103,-0.18237 0.14512,-0.0815 0.21073,-0.23487 0.25004,-0.39101 0.0628,-0.24963 0.12501,-0.49992 0.0808,-0.76274 -0.009,-0.0516 0.006,-0.11566 0.0309,-0.16278 0.11244,-0.21212 0.14822,-0.4386 0.1453,-0.67451 -2.5e-4,-0.0206 0.003,-0.0412 0.005,-0.0616 0.12416,0.006 0.24306,0.0144 0.3621,0.0173 0.11592,0.003 0.23199,5e-4 0.34709,5e-4 -0.059,0.0914 -0.0836,0.20919 -0.18391,0.30621 -0.11972,0.11576 -0.1918,0.28235 -0.27678,0.43133 -0.0202,0.0356 -0.01,0.0886 -0.007,0.14335 5e-4,0.0375 -5e-4,0.0671 -0.0118,0.0925 -0.0311,0.0709 -0.0663,0.14009 -0.10278,0.21588 -0.0233,-0.005 -0.0673,-0.0154 -0.11133,-0.0255 -0.007,0.0748 -0.0372,0.15784 -0.0152,0.22298 0.063,0.18599 -0.0279,0.32383 -0.13869,0.43598 -0.16435,0.16626 -0.24587,0.34807 -0.21385,0.57959 0.002,0.0102 0.002,0.021 5e-4,0.0312 -0.0255,0.18411 -0.0145,0.2055 0.17322,0.23187 0.18855,0.0265 0.38239,0.0735 0.56758,0.0534 0.36433,-0.0396 0.72087,0.0321 1.08108,0.0299 0.0937,-5e-4 0.19119,-0.0139 0.27982,-0.0431 0.12262,-0.0403 0.15066,-0.15216 0.0786,-0.25598 -0.004,-0.006 -0.0116,-0.0106 -0.0126,-0.0167 -0.0389,-0.23175 -0.20071,-0.23068 -0.38447,-0.21648 -0.24166,0.0187 -0.43097,-0.11302 -0.60879,-0.25455 -0.0333,-0.0265 -0.0369,-0.0902 -0.0558,-0.14118 0.0261,-0.004 0.0331,-0.007 0.0384,-0.005 0.24076,0.0834 0.27751,0.0815 0.41252,-0.14017 0.10526,-0.17284 0.17285,-0.36817 0.2689,-0.54722 0.0759,-0.14145 0.15242,-0.28891 0.25892,-0.40623 0.21946,-0.24173 0.35659,-0.51075 0.3733,-0.83907 0.005,-0.0883 0.0364,-0.1639 0.0933,-0.23871 0.1552,-0.20399 0.0899,-0.51399 -0.13554,-0.63178 -0.3899,-0.20369 -0.78613,-0.39524 -1.17846,-0.59433 -0.0334,-0.017 -0.0558,-0.0544 -0.0863,-0.0784 -0.0246,-0.0194 -0.0521,-0.0385 -0.0815,-0.0478 -0.096,-0.0304 -0.19345,-0.0563 -0.30478,-0.088 0.0625,-0.0987 0.0741,-0.18649 0.17691,-0.24841 0.0868,-0.0522 0.13421,-0.1836 0.179,-0.28851 0.077,-0.18028 0.13832,-0.36724 0.21426,-0.57318 0.0712,0.0417 0.15225,0.0754 0.21639,0.12923 0.31631,0.26557 0.6749,0.26759 1.0514,0.18466 0.0675,-0.0148 0.13994,-0.0225 0.20819,-0.0154 0.26715,0.0281 0.50987,-0.0399 0.74188,-0.16643 0.0471,-0.0257 0.10305,-0.0405 0.15664,-0.048 0.12485,-0.0177 0.1578,-0.0713 0.12568,-0.19573 -0.0205,-0.0794 -0.0251,-0.16281 -0.0378,-0.25136 0.0791,0 0.13771,0 0.19982,0 0.006,0.0626 -0.0325,0.1515 0.0747,0.15351 0.0973,0.002 0.13907,-0.0573 0.12386,-0.15867 0.0385,-0.004 0.07,-0.006 0.10011,-0.0126 0.0971,-0.0224 0.15078,-0.0818 0.15914,-0.18406 0.004,-0.0447 0.0202,-0.0883 0.0346,-0.14806 0.11619,0.16786 0.26361,0.19541 0.45211,0.11387 0.044,-0.019 0.10759,-0.0195 0.15317,-0.003 0.15557,0.0555 0.30777,0.12073 0.45981,0.18566 0.0445,0.019 0.0819,0.0553 0.1268,0.0726 0.0343,0.0133 0.0753,0.0109 0.1134,0.0125 0.031,10e-4 0.0666,-0.0122 0.0922,-0.001 0.0597,0.0264 0.0956,-0.002 0.10479,-0.0494 0.007,-0.0366 -0.004,-0.0919 -0.0292,-0.11655 -0.0523,-0.0514 -0.11861,-0.0887 -0.18049,-0.12984 -0.0136,-0.009 -0.0328,-0.014 -0.0494,-0.0138 -0.23752,0.004 -0.42565,-0.14283 -0.63959,-0.21054 -5e-4,-6e-5 0.005,-0.0167 0.0111,-0.0407 -0.003,-0.0591 -0.0126,-0.10297 -0.0167,-0.14729 -0.006,-0.0672 -0.008,-0.13475 0.0797,-0.1542 m -3.81343,-0.47071 c -0.0608,-0.0385 -0.12154,-0.077 -0.19741,-0.12499 0.12983,-0.052 0.13773,-0.0527 0.28705,0.0121 0.0846,0.0368 0.15598,0.0441 0.20089,-0.0571 0.007,-0.0151 0.0288,-0.0333 0.0439,-0.0334 0.15094,-10e-4 0.30966,-0.0948 0.45425,0.0423 -0.0652,0.13523 0.0926,0.11501 0.13544,0.16516 -0.0852,0.0437 -0.16154,0.0905 -0.24359,0.12285 -0.0836,0.0329 -0.17257,0.0707 -0.25945,0.0713 -0.0932,5e-4 -0.1608,0.0141 -0.2017,0.12908 -0.0789,-0.11624 -0.14559,-0.21461 -0.21941,-0.32732 m 1.40306,0.55297 c 0,0.14008 0,0.28016 0,0.3981 -0.13612,0.0452 -0.24648,0.0862 -0.35968,0.11673 -0.0359,0.01 -0.0815,-0.003 -0.11889,-0.0161 -0.0378,-0.0132 -0.0688,-0.048 -0.10684,-0.0583 -0.0683,-0.0185 -0.0922,-0.0551 -0.0703,-0.13323 0.0766,0 0.15754,0.007 0.23633,-0.002 0.0557,-0.007 0.13087,-0.0212 0.15797,-0.0599 0.0573,-0.0817 0.0875,-0.18211 0.13136,-0.27365 0.0314,-0.0656 0.0332,-0.15331 0.13303,-0.19574 -0.007,0.085 -0.0123,0.14961 -0.003,0.22455 m 0.58803,0.286 c -0.016,-0.01 -0.0468,-0.022 -0.0457,-0.0289 0.0169,-0.10198 0.0378,-0.2033 0.0584,-0.30467 0.0108,-0.0531 0.0226,-0.10589 0.0339,-0.15884 0.11113,0.023 0.20947,0.0434 0.30771,0.0637 -0.0339,0.0687 -0.0716,0.1286 -0.0938,0.19377 -0.0417,0.12227 -0.0946,0.22624 -0.26057,0.23498 z"
       id="soldier-US" /></g></svg>
