<svg
   width="30.483791mm"
   height="6.8797221mm"
   viewBox="0 0 30.483791 6.8797221"
   version="1.1"
   id="svg5"
   xml:space="preserve"
   xmlns="http://www.w3.org/2000/svg"
   xmlns:svg="http://www.w3.org/2000/svg"><defs
     id="defs2" /><g
     id="layer1"
     transform="translate(-7.7090532,-141.69915)"><path
       d="m 26.460201,143.29657 c 0.0091,0.9113 -0.01378,1.49248 -0.05683,1.49291 -0.03592,3.7e-4 -0.07021,0.16061 -0.08258,0.35794 l -0.01793,0.36261 -0.37327,0.0198 c -0.322999,0.0193 -0.380289,0.0359 -0.379379,0.1264 9.96e-4,0.10125 -0.07797,0.10204 -3.625547,0.13768 -3.576286,0.0359 -3.626559,0.0364 -3.627629,-0.0702 -9.86e-4,-0.0959 -0.05135,-0.10608 -0.396036,-0.10262 l -0.39498,0.004 -0.0037,-0.37304 c -0.0021,-0.21318 -0.03245,-0.37277 -0.07556,-0.37234 -0.04307,4.4e-4 -0.07529,-0.34567 -0.08118,-0.9319 -0.008,-0.79406 -0.02372,-0.93248 -0.117087,-0.93155 -0.09336,9.2e-4 -0.106325,0.13965 -0.09835,0.93371 0.0055,0.55426 -0.01941,0.93292 -0.06246,0.93335 -0.03592,3.6e-4 -0.0702,0.16061 -0.08258,0.35793 l -0.01792,0.36261 -0.373271,0.0198 c -0.322992,0.0192 -0.380281,0.0358 -0.379371,0.12639 9.86e-4,0.0959 -0.06362,0.10191 -1.973845,0.1211 l -1.974861,0.0198 -0.0059,-0.58622 c -0.0049,-0.48496 0.01568,-0.58643 0.101835,-0.5873 0.05743,-5.7e-4 0.107236,-0.049 0.106646,-0.10767 -5.88e-4,-0.0586 -0.05135,-0.10608 -0.108787,-0.10551 -0.08618,8.4e-4 -0.108581,-0.0842 -0.112275,-0.4519 -0.0037,-0.36773 0.01702,-0.45321 0.103173,-0.45407 0.05743,-5.8e-4 0.107236,-0.049 0.106646,-0.10767 -9.85e-4,-0.0959 -0.05135,-0.10608 -0.431952,-0.10226 l -0.430876,0.004 -0.0062,-0.61287 c -0.0037,-0.37305 -0.03486,-0.61258 -0.07797,-0.61214 -0.04307,4.3e-4 -0.06941,0.24054 -0.06565,0.61359 l 0.0062,0.61286 -0.32316,0.003 -0.315974,0.003 -0.03289,-0.41539 -0.02569,-0.41014 -0.01023,0.4105 -0.01018,0.41583 -0.495512,0.005 c -0.5170525,0.005 -0.7030645,0.0763 -0.4864595,0.19143 0.180502,0.0941 0.181033,0.86161 0.0025,0.96467 -0.114198,0.0704 -0.114091,0.0811 0.01597,0.15441 0.130014,0.0733 0.07262,0.0792 -0.623967,0.0862 -0.466779,0.005 -0.768189,0.029 -0.767868,0.061 2.67e-4,0.0267 0.05082,0.0528 0.108259,0.0522 0.08617,-8.3e-4 0.108627,0.0895 0.112803,0.5052 l 0.0051,0.50628 -0.394973,0.004 -0.394979,0.004 0.0065,0.63952 0.0065,0.63951 0.631208,0.63324 0.638326,0.62784 13.4721955,-0.13005 13.472128,-0.13534 1.006436,-2.05144 c 0.556075,-1.12485 1.020509,-2.07822 1.041682,-2.11575 0.02109,-0.0482 -0.208906,-0.0619 -1.020398,-0.0537 l -1.048461,0.0105 -0.01037,-1.03921 c -0.0065,-0.65551 -0.03916,-1.03892 -0.08225,-1.03849 -0.04307,4.3e-4 -0.06796,0.38443 -0.06137,1.03993 l 0.01038,1.03922 -1.306888,0.0238 -1.306845,0.0291 -0.119141,0.29433 c -0.26614,0.67423 -0.628319,1.08294 -1.079184,1.24203 -0.271988,0.0933 -0.494499,0.10624 -2.361637,0.125 -2.003588,0.0201 -2.06827,0.0155 -2.069235,-0.0805 -9.08e-4,-0.0906 -0.05849,-0.106 -0.374662,-0.11882 l -0.380764,-0.0122 -0.02521,-0.36218 c -0.01634,-0.19703 -0.05386,-0.35655 -0.08976,-0.35619 -0.04307,4.3e-4 -0.07765,-0.58017 -0.08681,-1.49148 -0.01295,-1.28968 -0.02934,-1.49205 -0.122707,-1.49112 -0.09336,9.2e-4 -0.105683,0.2036 -0.09273,1.49329 z m -16.051094,0.79017 c 0.01457,0.0212 0.0079,0.0746 -0.02754,0.11753 -0.04969,0.0591 -0.08553,0.0648 -0.150645,0.0175 -0.04339,-0.0316 -0.05828,-0.0847 -0.03709,-0.11689 0.05673,-0.0699 0.164419,-0.0763 0.215281,-0.0181 z m 0.388269,0.0441 c -0.02759,0.11752 -0.156919,0.10817 -0.186762,-0.003 -0.01489,-0.0531 0.02071,-0.0855 0.0925,-0.0862 0.07182,-7.3e-4 0.108086,0.0362 0.09426,0.0897 z m 0.430877,-0.004 c -0.03458,0.13359 -0.19958,0.15123 -0.200864,0.0233 -6.43e-4,-0.064 0.04195,-0.11236 0.113784,-0.11308 0.06464,-6.5e-4 0.100908,0.0363 0.08708,0.0897 z m 0.416197,-0.0362 c 0.07272,0.0899 -0.09142,0.19278 -0.192721,0.11919 -0.08682,-0.0631 -0.03048,-0.17558 0.07723,-0.17666 0.03592,-3.6e-4 0.08644,0.0258 0.11549,0.0575 z m 0.388324,0.0494 c 0.0013,0.1279 -0.164044,0.11357 -0.201292,-0.0193 -0.01489,-0.0531 0.02066,-0.0908 0.08528,-0.0915 0.07182,-7.3e-4 0.115377,0.0468 0.116019,0.11076 z m -0.511596,1.26297 c -0.02103,0.0535 -0.03582,0.011 -0.03683,-0.0902 -9.97e-4,-0.10124 0.01291,-0.14403 0.03496,-0.0963 0.01489,0.0531 0.01575,0.13842 0.0019,0.18653 z m -2.4933585,-0.11886 c 2.67e-4,0.0267 -0.04974,0.0538 -0.107183,0.0544 -0.05743,5.8e-4 -0.107991,-0.0256 -0.10826,-0.0522 -3.21e-4,-0.032 0.04974,-0.0538 0.107189,-0.0544 0.05743,-5.7e-4 0.107932,0.0202 0.108254,0.0522 z m 0.287247,-0.003 c 2.69e-4,0.0267 -0.04974,0.0538 -0.107188,0.0544 -0.05743,5.8e-4 -0.10798,-0.0256 -0.108246,-0.0522 -3.23e-4,-0.032 0.04974,-0.0538 0.107174,-0.0544 0.05743,-5.7e-4 0.107938,0.0202 0.10826,0.0522 z m 0.35907,-0.004 c 2.66e-4,0.0267 -0.04974,0.0538 -0.107189,0.0544 -0.05743,5.8e-4 -0.107986,-0.0256 -0.108253,-0.0522 -3.22e-4,-0.032 0.04974,-0.0538 0.107181,-0.0544 0.05743,-5.7e-4 0.107938,0.0202 0.108261,0.0522 z m 1.0570905,0.13329 c -0.02103,0.0535 -0.03572,0.0217 -0.03657,-0.0636 -9.09e-4,-0.0906 0.01306,-0.12804 0.03496,-0.0963 0.01472,0.0372 0.01548,0.11177 0.0015,0.15988 z m 0.35907,-0.004 c -0.02096,0.0535 -0.03571,0.0217 -0.03657,-0.0636 -9.09e-4,-0.0906 0.01306,-0.12804 0.03496,-0.0963 0.01472,0.0372 0.01547,0.11177 0.0015,0.15988 z m 0.21544,-0.002 c -0.02096,0.0535 -0.03571,0.0217 -0.03657,-0.0636 -9.08e-4,-0.0906 0.01306,-0.12804 0.03496,-0.0963 0.01472,0.0372 0.01548,0.11177 0.0015,0.15988 z m 0.430883,-0.004 c -0.02103,0.0535 -0.03571,0.0217 -0.03657,-0.0636 -9.09e-4,-0.0906 0.01306,-0.12804 0.03496,-0.0963 0.01472,0.0372 0.01547,0.11177 0.0015,0.15988 z"
       id="transport" /></g></svg>
